<?xml version="1.0" encoding="utf-8"?>
<!-- Generator: Adobe Illustrator 24.1.2, SVG Export Plug-In . SVG Version: 6.00 Build 0)  -->
<svg version="1.1" id="Слой_1" xmlns="http://www.w3.org/2000/svg" xmlns:xlink="http://www.w3.org/1999/xlink" x="0px" y="0px"
	 viewBox="0 0 1000 1000" style="enable-background:new 0 0 1000 1000;" xml:space="preserve">
<style type="text/css">
	.st0{display:none;}
	.st1{display:inline;fill-rule:evenodd;clip-rule:evenodd;fill:#010021;}
	.st2{fill:#FFFFFF;stroke:#FFFFFF;}
	.st3{fill:#FFFFFF;stroke:#FFFFFF;stroke-width:1;stroke-miterlimit:4.0001;}
	.st4{fill:#FFFFFF;stroke:#FFFFFF;stroke-width:1;stroke-miterlimit:4;}
	.st5{fill:#FFFFFF;stroke:#FFFFFF;stroke-miterlimit:10;}
</style>
<g id="Слой_1_1_" class="st0">
	
		<image style="display:inline;overflow:visible;enable-background:new    ;" width="1113" height="1113" xlink:href="6F1DF549.jpeg"  transform="matrix(0.8996 0 0 0.8996 -0.6361 -0.5234)">
	</image>
</g>
<g id="Слой_5" class="st0">
	<rect class="st1" width="1000" height="1000"/>
</g>
<g id="Лого_гиранд">
	<g>
		<g>
			<g>
				<path class="st2" d="M525.4,496.1c-0.8,0.7-2.4,1.4-3.6,0.9c-1.3-0.6-1.6-2.3-1.4-3.6c0.6-4.4,0.9-7.9,6.9-11.4
					C523.9,485.4,521.3,492.1,525.4,496.1z"/>
				<path class="st2" d="M540.1,497.6c-0.7,0.7-3.6,0.5-3.6-0.9c0-0.2,0.1-0.4,0.2-0.6c0.4-1.1,0.3-2.3,0.4-3.4
					c0.2-2.9,2-5.3,3.7-7.7c-1.9,2.9-1.4,9-1.4,9C540.1,497.6,541.1,496.7,540.1,497.6z"/>
				<path class="st2" d="M553.4,498.5c-0.2,0-0.5-0.1-0.7-0.3c-1.3-1.2-1.1-2.9-0.9-4.4c0.4-2.9,1.1-6,2.7-8.1
					c-0.7,2.7-0.8,5.9-0.1,8.7C554.8,496,556.6,499,553.4,498.5z"/>
				<path class="st2" d="M567.5,488.7c-1,2.6-1.5,5.8-1.1,8.6c0.2,1.7,1.7,4.9-1.5,4c-0.2-0.1-0.4-0.2-0.6-0.4
					c-1.2-1.3-0.8-3-0.4-4.5C564.7,493.6,565.7,490.7,567.5,488.7z"/>
				<path class="st2" d="M578.2,496.2c-2.2,1.9-4.1,4.5-5.2,7.1c-0.6,1.6-0.9,5.1-3.3,2.9c-0.2-0.2-0.3-0.4-0.3-0.6
					c-0.4-1.7,0.7-3,1.8-4.1C573.4,499.2,575.7,497.1,578.2,496.2z"/>
				<path class="st2" d="M566.8,532.2c0.2-0.1,0.4-0.2,0.7-0.3c1.8-0.2,3,1.1,4,2.3c1.9,2.3,3.8,4.8,4.4,7.4c-1.6-2.4-4-4.6-6.6-6
					C567.7,534.9,564.2,534.1,566.8,532.2z"/>
				<path class="st2" d="M591.1,471.8C591.1,471.8,591,471.8,591.1,471.8c-1.7,0.2-3.5,0.3-4.8-0.5c-1.4-0.8-2.1-2.3-2-3.8
					c0.1-1,0.6-2,1.2-3c0.3-0.3,0.5-0.7,0.8-1c0.9-1,2-1.9,3.3-2.5c-2.3,0.3-4.4,1.1-5.9,2.6c-0.4,0.4-0.8,0.8-1.1,1.3
					c-0.2,0.3-0.5,0.6-0.9,0.7c-0.5,0.2-1,0.2-1.5,0.2c-0.9,0-2,0-2.9-0.2c-0.1-0.1-0.1-0.1-0.2-0.2c-0.6-0.6-1.3-1.9-1.9-3.3
					c-0.8-1.9-1.3-4.1-1-5.2c-0.6,1.6-1.1,3.2-1.5,4.9c-0.1,0.2-0.1,0.5-0.1,0.7c-0.1,0.4-0.1,0.7,0,1c0.4,1.4,2.2,1.9,3.7,2.4
					c3.8,1.3,7.1,3.5,9.5,6.4c1.2,1.3,1.7,2.9,3.9,2.3c0.7-0.2,1.3-0.5,2-0.9c1.3-0.8,2.5-1.8,3.9-2.2
					C594,471.5,592.5,471.6,591.1,471.8z M575.2,464.2c-0.3-0.8,1.1,0.5,2,1.3C576.3,465.3,575.5,465,575.2,464.2z"/>
				<path class="st2" d="M568.2,480.3c-0.3,0.2-0.6,0.2-0.9,0.2c-0.1,0-0.1,0-0.1,0c-7-0.1-14.1-0.2-21.2-0.4
					c-2.3,0-8.6,0.6-9.4-2.1c-0.8-2.6,3-7.3,4.6-8.9c-1.2,2.6-1.8,5.3-2,8.1c0,0.5,0,1,0.3,1.4c0.4,0.5,1.1,0.6,1.7,0.7
					c4.1,0.3,8.2,0.1,12.2-0.6c-1.2-1.2-1.4-3.1-1-4.8s1.3-3.1,2.2-4.5c-0.6,2.7-1,5.9,0.9,8c2.2,2.4,6,1.7,9.1,2.7
					c1.1-3.9,2.3-6.8,4.6-8.6c-2,2-1,8.4-1.8,9.1C567.8,480.3,568.5,480.1,568.2,480.3z"/>
				<path class="st2" d="M559.4,463.7c0.1-1.6,0.5-3.2,1.1-4.8c0,1.7,0.2,3.4,0.7,5h-0.3C560.4,464,559.8,463.9,559.4,463.7z"/>
				<path class="st2" d="M577.5,522.3c2.1,0.9,4.2,2.1,6.2,3.3c-2.1-0.5-4.3-0.9-6.5-1.2c-0.8-0.1-1.7-0.3-2.5-0.4
					c-0.3,0-0.5-0.1-0.8-0.2c-0.3-0.2-0.4-0.4-0.5-0.7c-0.3-0.8-0.6-1.7-0.8-2.8l0,0c-0.3-1.9-0.5-4.2-0.1-6.1
					c0.2-1.2,0.7-2.3,1.3-3.1c1-1.2,2.2-1.5,3.5-1.5c2.3,0,5,1.2,7,0.8c-2.3,0.4-4.5,1-6.7,1.7c-0.5,0.2-1,0.3-1.5,0.5
					c-0.3,0.1-0.5,0.2-0.8,0.4c-0.5,0.4-0.6,1-0.6,1.6c-0.3,2.2-0.5,4.5-0.8,6.7C575.2,521.5,576.3,521.8,577.5,522.3z"/>
				<path class="st2" d="M580,478.6c-1,1.8-2,3.6-3.1,5.4c-0.2,0.3-0.3,0.5-0.6,0.7c-0.7,0.4-1.6-0.1-2.2-0.7c0-0.3,0.1-0.5,0.2-0.8
					l-0.1-0.1C575.9,481.4,578,480,580,478.6z"/>
				<path class="st2" d="M590.9,482.1l0.2-0.1c1.5,0.1,3.1,0.3,4.6,0.6c-0.7,0-1.5,0.2-2.2,0.5c-0.5,0.2-0.9,0.5-1.4,0.6
					s-1.1,0.1-1.4-0.3C590.3,482.9,590.4,482.2,590.9,482.1z"/>
				<path class="st2" d="M571.4,556.4c-1.6-1-3.4-1.8-5.2-2.6l1.8-2C569.1,553.2,570.4,555.6,571.4,556.4z"/>
				<path class="st2" d="M566.3,553.6c0.1-0.3,0.2-0.7,0.4-0.9C567,552.5,566.4,553.1,566.3,553.6z"/>
				<path class="st2" d="M566.2,553.8c0-0.1,0-0.2,0-0.2C566.2,553.7,566.2,553.8,566.2,553.8z"/>
				<path class="st2" d="M568.8,551.1l-0.8,0.8c-0.2-0.2-0.4-0.4-0.5-0.6C567.3,551.1,568.5,551.2,568.8,551.1z"/>
			</g>
			<g>
				<path class="st2" d="M474.1,495.8c0.9,0.7,2.4,1.4,3.6,0.9c1.3-0.6,1.6-2.3,1.4-3.6c-0.6-4.4-0.9-7.9-6.9-11.4
					C475.6,485.1,478.1,491.8,474.1,495.8z"/>
				<path class="st2" d="M459.3,497.3c0.7,0.7,3.6,0.5,3.6-0.9c0-0.2-0.1-0.4-0.2-0.6c-0.4-1.1-0.3-2.3-0.4-3.4
					c-0.2-2.9-2-5.3-3.7-7.7c1.9,2.9,1.4,9,1.4,9C459.3,497.3,458.4,496.4,459.3,497.3z"/>
				<path class="st2" d="M446,498.2c0.2,0,0.5-0.1,0.6-0.3c1.3-1.2,1.1-2.9,0.9-4.4c-0.4-2.9-1.1-6-2.7-8.1c0.7,2.7,0.8,5.9,0.1,8.7
					C444.6,495.7,442.8,498.7,446,498.2z"/>
				<path class="st2" d="M431.9,488.4c1,2.6,1.5,5.8,1.1,8.6c-0.2,1.7-1.6,4.9,1.5,4c0.2-0.1,0.4-0.2,0.6-0.4c1.2-1.3,0.8-3,0.4-4.5
					C434.8,493.4,433.8,490.4,431.9,488.4z"/>
				<path class="st2" d="M421.2,495.9c2.2,1.9,4.1,4.5,5.2,7.1c0.6,1.6,0.9,5.1,3.3,2.9c0.2-0.2,0.3-0.4,0.4-0.6
					c0.4-1.7-0.7-3-1.8-4.1C426.1,499,423.8,496.8,421.2,495.9z"/>
				<path class="st2" d="M432.6,531.9c-0.2-0.1-0.4-0.2-0.7-0.3c-1.8-0.2-3,1.1-4,2.3c-1.9,2.3-3.8,4.8-4.4,7.4c1.6-2.4,4-4.6,6.6-6
					C431.8,534.6,435.2,533.8,432.6,531.9z"/>
				<path class="st2" d="M427,462.2c0-0.3-0.1-0.6-0.2-0.9c-0.4-1.6-0.9-3.3-1.5-4.9c0.3,1.1-0.3,3.5-1.2,5.5
					c-0.5,1.3-1.2,2.4-1.8,3c-0.1,0.1-0.1,0.2-0.2,0.2c-1,0.2-2,0.2-2.9,0.2c-0.5,0-1.1,0-1.5-0.2s-0.7-0.4-0.9-0.7
					c-0.2-0.3-0.5-0.6-0.7-0.9l0,0c-1.6-1.7-3.8-2.6-6.3-2.9c1.3,0.7,2.4,1.5,3.3,2.5c0.4,0.4,0.8,0.9,1.1,1.4
					c0.5,0.8,0.8,1.6,0.9,2.5c0.1,1.5-0.5,3-2,3.8c-1.2,0.6-2.7,0.7-4.1,0.5c-0.3,0-0.5,0-0.8,0c-1.5-0.1-2.9-0.3-4.3-0.4
					c1.5,0.5,3,1.7,4.4,2.5c0.5,0.3,1,0.5,1.5,0.6c2.2,0.5,2.7-1,3.9-2.3c2.5-2.8,5.7-5,9.5-6.4c1.5-0.5,3.3-1.1,3.7-2.4
					C427,462.8,427,462.5,427,462.2z M424.2,463.9c-0.3,0.8-1.1,1.1-2,1.3C423.1,464.4,424.5,463.1,424.2,463.9z"/>
				<path class="st2" d="M431.2,480c0.3,0.2,0.6,0.2,0.9,0.2c0.1,0,0.1,0,0.1,0c7-0.1,14.1-0.2,21.2-0.4c2.3,0,8.6,0.6,9.4-2.1
					c0.8-2.6-3-7.3-4.6-8.9c1.1,2.6,1.8,5.3,2,8.1c0,0.5,0,1-0.3,1.4c-0.4,0.5-1.1,0.6-1.7,0.7c-4.1,0.3-8.2,0.1-12.2-0.6
					c1.1-1.2,1.4-3.1,1-4.8s-1.3-3.1-2.2-4.5c0.6,2.7,1,5.9-0.9,8c-2.2,2.4-6,1.7-9.1,2.7c-1.1-3.9-2.3-6.8-4.6-8.6
					c2,2,1,8.4,1.8,9.1C431.7,480,431,479.8,431.2,480z"/>
				<path class="st2" d="M440.1,463.4c-0.1-1.6-0.5-3.2-1.1-4.8c0,1.7-0.2,3.4-0.7,5h0.3C439.1,463.7,439.6,463.6,440.1,463.4z"/>
				<path class="st2" d="M424.8,523.7c0.3,0,0.5-0.1,0.8-0.2c0.3-0.2,0.4-0.4,0.5-0.7c1.3-2.9,1.9-9.4-0.4-12
					c-2.8-3.3-7.4-0.1-10.5-0.7c2.8,0.5,5.5,1.3,8.2,2.2c0.3,0.1,0.5,0.2,0.8,0.4c0.5,0.4,0.6,1,0.6,1.6c0.3,2.2,0.5,4.5,0.8,6.7
					c-3.5,0.7-6.7,2.5-9.8,4.4C418.7,524.6,421.7,524.1,424.8,523.7z"/>
				<path class="st2" d="M419.5,478.3c1,1.8,2,3.6,3.1,5.4c0.1,0.3,0.3,0.5,0.6,0.7c0.7,0.4,1.6-0.1,2.2-0.7c0-0.3-0.1-0.5-0.2-0.8
					l0.1-0.1C423.5,481.1,421.5,479.7,419.5,478.3z"/>
				<path class="st2" d="M408.6,481.8l-0.1-0.1c-1.5,0.1-3.1,0.3-4.6,0.6c0.7,0,1.5,0.2,2.2,0.5c0.5,0.2,0.9,0.5,1.4,0.6
					s1.1,0.1,1.4-0.3C409.1,482.6,409,482,408.6,481.8z"/>
				<path class="st2" d="M428.1,556.1c1.6-1,3.4-1.8,5.2-2.6l-1.8-2C430.4,552.9,429,555.3,428.1,556.1z"/>
				<path class="st2" d="M433.2,553.3c-0.1-0.3-0.2-0.7-0.4-0.9C432.5,552.2,433,552.8,433.2,553.3z"/>
				<path class="st2" d="M433.2,553.6c0-0.1,0-0.2,0-0.2C433.2,553.4,433.2,553.5,433.2,553.6z"/>
				<path class="st2" d="M430.6,550.8l0.8,0.8c0.2-0.2,0.4-0.4,0.5-0.6C432.2,550.8,431,550.9,430.6,550.8z"/>
			</g>
			<g>
				<path class="st2" d="M571.3,548.6c-0.9,0.3-1.7,0.4-2.6,0.4h-0.2l-0.1,0.1c-13.8,24-40.1,38.9-68.5,38.9
					c-28.1,0-54.2-14.7-68.1-38.3l-0.1-0.1h-0.1c-1-0.2-1.9-0.5-2.6-0.9c-0.1,0-0.1-0.1-0.2-0.1l-0.9-0.5l0.4,0.8
					c14.1,25.7,41.5,41.7,71.6,41.7c30,0,57.5-16,71.6-41.6l0.3-0.5L571.3,548.6z"/>
				<path class="st2" d="M540,551.1c-0.8-0.1-1.6-0.4-2.2-0.8c-9.8,9.1-23.2,14.8-37.8,14.8c-14.7,0-28-5.6-37.8-14.7
					c-0.9,0-1.9,0-2.8,0.2c10.3,10.2,24.7,16.6,40.6,16.6C515.6,567.1,529.8,561,540,551.1z"/>
			</g>
			<path class="st2" d="M508.5,506h-0.9l-1.6,12.9h4.2L508.5,506z M564,510.5c-0.4-1.6-0.8-2.6-1.5-3c-0.6-0.5-1.4-0.7-2.4-0.7v21.8
				c1.1,0,2-0.3,2.6-0.8s1.1-1.6,1.4-3.2c0.3-1.6,0.5-3.9,0.5-7C564.6,514.4,564.4,512.1,564,510.5z M508.5,506h-0.9l-1.6,12.9h4.2
				L508.5,506z M564,510.5c-0.4-1.6-0.8-2.6-1.5-3c-0.6-0.5-1.4-0.7-2.4-0.7v21.8c1.1,0,2-0.3,2.6-0.8s1.1-1.6,1.4-3.2
				c0.3-1.6,0.5-3.9,0.5-7C564.6,514.4,564.4,512.1,564,510.5z M483.9,507.6c-0.5-0.7-1.7-1.1-3.6-1.1v8.5c1.9,0,3.1-0.3,3.6-1
				s0.8-1.8,0.8-3.4C484.6,509.4,484.3,508.4,483.9,507.6z M508.5,506h-0.9l-1.6,12.9h4.2L508.5,506z M564,510.5
				c-0.4-1.6-0.8-2.6-1.5-3c-0.6-0.5-1.4-0.7-2.4-0.7v21.8c1.1,0,2-0.3,2.6-0.8s1.1-1.6,1.4-3.2c0.3-1.6,0.5-3.9,0.5-7
				C564.6,514.4,564.4,512.1,564,510.5z M508.5,506h-0.9l-1.6,12.9h4.2L508.5,506z M564,510.5c-0.4-1.6-0.8-2.6-1.5-3
				c-0.6-0.5-1.4-0.7-2.4-0.7v21.8c1.1,0,2-0.3,2.6-0.8s1.1-1.6,1.4-3.2c0.3-1.6,0.5-3.9,0.5-7C564.6,514.4,564.4,512.1,564,510.5z
				 M483.9,507.6c-0.5-0.7-1.7-1.1-3.6-1.1v8.5c1.9,0,3.1-0.3,3.6-1s0.8-1.8,0.8-3.4C484.6,509.4,484.3,508.4,483.9,507.6z
				 M613.6,501.3l-0.1-0.1c-1-1.6-2.6-0.9-3.5-0.5c-0.5,0.2-1.2,0.5-2.1,0.8c-0.1,0-3.4,0.9-5-1.3c-1.3-1.8-1.3-3.6-1.2-5.8v-0.5
				c0.1-2.4,0.3-4,0.5-5.9c0.1-0.5,0.1-0.9,0.2-1.4c0.8-6.3,1.4-18-3.1-25.3c-2.3-3.7-4-5.9-8.2-8.5c-16.2-10.6-31.6,1-36.7,4.8
				c-0.5,0.4-1,0.8-1.2,0.9c-3.2,1.8-8.2,2.1-10.6-0.3c-1.6-1.6-2-5-1.4-8.7c0.3-1.9,0.9-3.8,1.7-5.7l0,0l-2.4-0.2l-0.1,0.2
				c-2,4.4-2.6,8.5-1.9,11.8c0.3,1.7,1.1,3.2,2.1,4.3c3.3,3.5,9.8,3.1,13.9,0.8c0.3-0.2,0.8-0.5,1.5-1.1c4.7-3.5,19-14.2,33.6-4.6
				c3.7,2.4,5.2,4.3,7.4,7.7c4.3,7,3.4,18.9,2.8,23.7c-0.1,0.5-0.1,1-0.2,1.4c-0.3,1.9-0.5,3.6-0.6,6.1v0.5
				c-0.1,2.5-0.2,4.9,1.7,7.4c2.2,2.9,6,2.8,7.9,2.3c1.1-0.3,1.9-0.7,2.5-0.9c0.1,0,0.1,0,0.2-0.1c0.1,0.5,0.1,1.1-0.1,1.7
				c-0.3,0.8-2.3,4.1-5.8,4.4c-3,0.2-4.8-0.2-7.3-1.8c-1.9-1.2-3.5-3.9-3.9-6.4l-0.1-1.5v-0.3l0,0c-0.2-4.3-0.4-7.5-0.6-9.9
				c-0.2-1.9-0.4-4-0.7-5.9c0-0.1,0-0.2,0-0.3c0-0.3,0-0.7,0-1c-0.1-3.5-0.6-6.6-1.1-8.5c-0.2-0.8-0.4-1.4-0.6-1.8l0,0
				c-1.4-3.4-3.2-5.8-5.5-7.2l0,0c-0.6-0.4-1.2-0.7-1.8-0.9c-2.6-1.1-5.6-1.7-8.5-1.6c-0.9,0-1.8,0.1-2.7,0.3
				c-0.5,0.1-1.1,0.3-1.6,0.4c-3.2-0.6-6.6-0.8-10.1-0.5c-0.4,0-0.8,0.1-1.3,0.1c-1.1,0.1-2.3,0.3-3.4,0.5c-0.6,0.1-1.3,0.2-1.9,0.4
				c-6.2,1.2-11,1.3-14.2,0.5l-0.7-0.2l0.9,1.2h0.1c4.3,2.9,9.7,1.9,14.4,1c0.6-0.1,1.2-0.2,1.8-0.3c6.8-1.2,13.3-0.8,18.8,1.3
				c6.2,2.3,11.1,6.7,13.3,12c1.4,3.3,1.8,7,2.2,10.9c0.2,2.1,0.4,5.1,0.5,8.8c-3.8-8-10.3-12.6-14.1-14.6c0-0.1-0.1-0.1-0.1-0.2
				c-0.3-0.6-0.8-1.2-1.3-1.8c-1.9-2-4.8-3.6-8.1-4.4c-0.7-0.2-1.4-0.3-2.1-0.4c-0.2,0-0.4-0.1-0.6-0.1c-3.1-0.4-6.7-0.2-9.8,0.2
				c-0.9,0.1-1.8,0.3-2.6,0.4l0,0c-1.5,0.3-2.7,0.5-3.8,0.7c-0.5,0-1.1,0-1.6,0h-1.6c-2.1,0-4.3-0.1-6.4-0.3
				c-0.9-0.1-1.8-0.2-2.7-0.3c-0.4-0.1-0.9-0.2-1.3-0.3c-2.1-0.7-3.4-2.6-3.6-3.5l-0.1-0.2c-0.5-1.8-0.8-3,0.3-4.6
				c1-1.6,3.2-3.8,4.7-3.7c-3.5-0.6-12.5,1.6-14.3,5.2c1.4,3.4,3.5,6.1,8.9,8.2c4.7,1.8,9.7,1.9,14.6,2h1.6
				c9.9,0.2,17.2,0.9,25.1,3.6c0.7,0.2,16.5,5.9,19,23c1,6.5,0.5,15.1-1.2,21.3c-1.5,5.5-2.8,8.6-6.5,12.5c-5.1,5.5-11.3,7-19,8.3
				c-7.4,1.3-16.9,1.1-26,0.7c-3.1-0.1-5.7-0.2-8.1-0.2c-2.5,0-5,0-8-0.2c-2.3-0.1-6.7,0.5-9.1,3.4c-0.7,0.8-1.2,1.8-1.4,2.9
				c-0.3,1.1-0.4,2.2-0.2,3.2c0.1,0.3,0.1,0.5,0.2,0.8c0.1,0.5,0.3,0.9,0.3,1.4c-1.3,0.1-2.7-1-3.5-1.9c-3.5-4.2-3.9-10.3-0.9-14.3
				c1.5-1.9,3.6-3.3,6.5-4.3c1-0.3,2.2-0.6,3.3-0.8c3.6,0,8.8,0,14.5,0h27.3v-0.1c4.5-0.3,8-1.8,10.6-3.7c0.6-0.5,1.2-0.9,1.7-1.4
				c2.4-2.2,3.7-4.5,4.1-5.8c0.5-1.5,0.9-3.1,1.2-4.8c0.1-0.7,0.2-1.4,0.3-2c0.4-3.3,0.5-6.7,0.1-10.3c-0.1-0.5-0.1-1-0.2-1.5
				c0-0.3-0.1-0.6-0.1-0.9c-0.4-2.4-1.5-5.5-3.4-8.2c-0.4-0.5-0.8-1-1.2-1.5c-1.7-1.9-3.8-3.5-6.5-4.5c-0.6-0.2-1.2-0.4-1.8-0.6l0,0
				c-0.7-0.2-1.4-0.3-2.2-0.4c-1.9-0.2-3.2-0.1-4.8,0c-0.4,0-0.8,0-1.2,0.1c-0.1,0-0.8,0-1.7,0c-0.7,0-1.7,0-2.7,0l0,0
				c-3.4,0-8.2,0-12.1,0c-0.9,0-1.8,0-2.5,0c-1.8,0-3.2,0-3.9-0.1c-3.4-0.2-6.6-0.6-9.5-1.2c-1.1-0.2-2.2-0.5-3.2-0.8
				c-3.3-0.9-6.1-2.1-8.7-3.6c-2.5-3-1.9-5.8-1.6-7c0-0.1,0-0.2,0.1-0.3c0.4-2,1.1-2.9,2.2-4.5c0.2-0.3,0.4-0.5,0.6-0.8
				c2.1-2.9,5.6-5.2,6.4-5.3c-4,0.3-7.7,2.1-10.3,4.9c-1.8,2-3,4.5-3.4,7.1c-0.6-1.2-1-2.7-1.3-4.1c-0.2-1.4,0-3.5,0.5-4.8
				c2.3-5.7,9-9.8,15.3-9.2l2.2,0.2l-2.1-0.7c-1.4-0.5-2.8-0.7-4.2-0.8c-0.8-0.1-1.6-0.1-2.4,0c-1.5,0.1-2.9,0.4-4,0.9
				c-3,1.3-5.4,4.1-7.2,8.7l0,0c-1.1,2.9-1.9,10.3-2.5,15.2c0,0.3-0.1,0.6-0.1,1c0-0.3-0.1-0.6-0.1-1c-0.5-4.7-1.3-11.8-2.4-14.9
				c0-0.1-0.1-0.2-0.1-0.4c-1.8-4.6-4.1-7.5-7.2-8.7c-1.1-0.5-2.5-0.8-4-0.9c-0.8,0-1.6,0-2.5,0c-1.4,0.1-2.8,0.4-4.1,0.8l-2.1,0.7
				l2.2-0.2c6.3-0.6,13,3.5,15.3,9.2c0.5,1.3,0.7,3.4,0.5,4.8c-0.3,1.4-0.7,2.9-1.3,4.1c-0.5-2.6-1.7-5.1-3.4-7.1
				c-2.6-2.9-6.4-4.7-10.3-4.9v0.5c2.3,0.3,4.4,1.9,6.5,4.8c0.2,0.3,0.4,0.6,0.6,0.8c1.1,1.5,1.8,2.5,2.2,4.5c0,0.1,0,0.2,0.1,0.3
				c0.3,1.2,0.9,4-1.6,7c-2.7,1.6-5.7,2.9-9.2,3.8c-1.1,0.3-2.2,0.5-3.4,0.8l0,0c-2.7,0.5-5.6,0.9-8.8,1c-0.8,0-2.5,0.1-4.5,0.1
				c-0.8,0-1.7,0-2.6,0c-4,0-8.8,0-12,0c-1.2,0-2.1,0-2.8,0c-0.6,0-1,0-1.1,0c-0.4,0-0.8,0-1.1-0.1c-1.7-0.1-3-0.2-4.8,0
				c-0.9,0.1-1.8,0.3-2.6,0.5c-0.7,0.2-1.4,0.4-2,0.7c-2.5,1-4.5,2.6-6.1,4.4c-0.5,0.5-0.9,1.1-1.3,1.7c-1.7,2.5-2.7,5.3-3.1,7.6
				c-0.1,0.4-0.1,0.8-0.2,1.2c-0.1,0.5-0.1,1-0.1,1.5c-0.3,3.5-0.3,6.8,0.1,9.9c0.1,0.7,0.2,1.5,0.3,2.2c0.3,1.8,0.7,3.5,1.2,5.1
				c0.4,1.2,1.5,3.3,3.6,5.3c0.5,0.5,1.1,1,1.7,1.5l0,0c2.6,2,6.2,3.7,11.1,4v0.1h27.3c5.8,0,11,0,14.5,0c1.2,0.2,2.3,0.5,3.3,0.8
				c2.9,1,5,2.4,6.5,4.3c3.1,3.9,2.7,10.1-0.9,14.3c-0.8,1-2.2,2-3.5,1.9c0-0.5,0.2-0.9,0.3-1.4c0.1-0.3,0.2-0.5,0.2-0.8
				c0.2-1,0.2-2.2-0.2-3.2c-0.2-1.1-0.7-2.1-1.4-2.9c-2.4-2.8-6.8-3.5-9.1-3.4c-3.1,0.1-5.6,0.2-8.1,0.2s-5,0-8.1,0.2
				c-9.1,0.4-18.6,0.6-26-0.7c-7.6-1.3-13.9-2.8-19-8.3c-3.6-4-4.9-7.1-6.5-12.5c-1.7-6.2-2.2-14.8-1.2-21.3
				c2.6-17.1,18.4-22.8,19-23c7.9-2.7,15.2-3.4,25.1-3.6h1.5c4.9-0.1,9.9-0.2,14.6-2c5.4-2.1,6.9-4.9,8.4-8.4v-0.1v-0.1
				c-1.7-3.7-8.8-4.4-14-5.1c2.8,1.5,3.7,2.9,4.7,4.5s0.8,2.2,0.4,4l-0.1,0.2c-0.2,0.9-1.5,2.8-3.6,3.5c-0.6,0.1-1.3,0.3-1.9,0.3
				c-0.9,0.1-1.8,0.2-2.7,0.3c-1.9,0.1-3.9,0.2-5.8,0.2h-1.6c-0.5,0-1.1,0-1.5,0c-1.2-0.3-2.7-0.5-4.5-0.8c-0.9-0.1-1.8-0.3-2.7-0.4
				c-3-0.4-6.2-0.5-9.1-0.1c-0.3,0-0.7,0.1-1,0.1c-0.8,0.1-1.5,0.3-2.2,0.5c-3.1,0.9-5.9,2.5-7.7,4.4c-0.6,0.6-1,1.2-1.4,1.9
				c0,0-0.1,0-0.1,0.1c-3.8,2.1-10.2,6.6-14,14.6c0.2-3.7,0.4-6.7,0.5-8.8c0.3-3.8,0.8-7.6,2.2-10.9c2.2-5.3,7.1-9.7,13.3-12
				c5.5-2,12-2.5,18.8-1.3c0.6,0.1,1.2,0.2,1.8,0.3c4.8,0.9,10.2,1.9,14.4-1l1-1.3l-0.7,0.2c-3.2,0.9-7.9,0.7-14.2-0.5
				c-0.6-0.1-1.3-0.2-1.9-0.4c-1.3-0.2-2.6-0.4-4-0.5c-0.5,0-0.9-0.1-1.4-0.1c-3.3-0.2-6.4,0-9.5,0.5c-0.7-0.2-1.4-0.4-2.1-0.5
				c-0.9-0.1-1.9-0.2-2.9-0.2c-2.8,0-5.6,0.6-8,1.7l0,0c-0.6,0.3-1.1,0.5-1.6,0.8c-0.1,0.1-0.2,0.1-0.3,0.2
				c-2.1,1.4-3.8,3.7-5.1,6.8c0,0.1-0.1,0.2-0.1,0.3c-0.2,0.4-0.4,1-0.6,1.8c-0.5,1.9-1,4.8-1.1,8.1l0,0c0,0.4,0,0.9,0,1.3
				c0,0.1,0,0.1,0,0.2l0,0c-0.4,2-0.6,4.1-0.8,6c-0.2,2.4-0.4,5.7-0.6,10l0,0v0.3l-0.1,1.4c-0.4,2.5-2,5.3-3.9,6.5
				c-2.5,1.6-4.3,2-7.3,1.8c-3.6-0.3-5.5-3.6-5.8-4.4c-0.2-0.6-0.2-1.3-0.1-1.7c0.1,0,0.1,0,0.2,0.1c0.6,0.3,1.4,0.6,2.5,0.9
				c1.9,0.5,5.7,0.6,7.9-2.3c1.9-2.5,1.8-4.9,1.7-7.4v-0.5c-0.1-2.5-0.3-4.2-0.6-6.1c-0.1-0.5-0.1-0.9-0.2-1.4
				c-0.6-4.8-1.5-16.8,2.8-23.7c2.2-3.5,3.7-5.3,7.4-7.7c14.6-9.5,28.9,1.1,33.6,4.6c0.7,0.5,1.2,0.9,1.5,1.1
				c4.1,2.3,10.6,2.7,13.9-0.8c1.1-1.1,1.8-2.6,2.1-4.3c0.7-3.3,0-7.4-1.9-11.8l-0.1-0.2H457l0,0c0.9,1.9,1.4,3.9,1.8,5.8
				c0.6,3.8,0.2,7.2-1.4,8.8c-2.4,2.5-7.4,2.2-10.6,0.3c-0.2-0.1-0.7-0.5-1.2-0.9c-5.1-3.8-20.5-15.3-36.7-4.7
				c-4.1,2.7-5.9,4.8-8.2,8.5c-4.6,7.4-3.9,19-3.1,25.3c0.1,0.5,0.1,1,0.2,1.4c0.3,1.9,0.5,3.5,0.5,5.9v0.5c0.1,2.2,0.1,4-1.2,5.8
				c-1.6,2.2-4.9,1.3-5,1.3c-0.9-0.3-1.6-0.5-2.1-0.8c-0.9-0.4-2.5-1.1-3.5,0.5l-0.1,0.1c0,0.1-0.9,2.1-0.1,4.2
				c0.5,1.5,3.2,5.7,8.1,6.1c0.6,0,1.1,0.1,1.7,0.1c2.7,0,4.8-0.6,7.3-2.2c0.8-0.5,1.5-1.2,2.2-2c-0.1,1.9-0.1,4-0.2,6.2v0.3h0.1
				c0,5.3,0.6,10.8,1.8,15.1c0.8,2.9,1.6,5.3,2.8,7.6c3.9,9.7,10.7,20.7,17.6,28.6c0.3,0.4,0.6,0.7,1,1.1c1.1,1.2,2,2.2,2.5,3.7
				c0.3,0.9,0.2,1.8-0.3,2.5c-0.5,0.8-1.3,1.4-2.4,1.7c-1.7,0.5-2.1,1.7-2,2.6c0.3,1.7,2.7,3.7,5.8,3.7c3,0,4.5-0.3,7.1-2
				c2.2-1.4,3.7-3.9,4-6.4c0.1-1.4,0-3-0.3-4.5c-0.6-2.7-2-5.5-4-8.2l-0.2-0.2l-2.1,1.5l0.1,0.2c0,0,0,0,0.1,0.1
				c1.7,2.2,4.3,6.3,3.8,10.8c-0.2,1.8-1.3,3.5-2.8,4.5c-2.2,1.4-3.1,1.5-5.6,1.5c-1.3,0-2.4-0.6-2.9-1.1c-0.1-0.1-0.1-0.2-0.2-0.2
				c1.8-0.5,3.2-1.5,4-2.9s1-2.9,0.5-4.5c-0.6-2.1-1.8-3.4-3-4.7c-0.3-0.3-0.6-0.6-0.9-1c-4.5-5.2-9-11.8-12.7-18.5
				c3.7,3,7.9,4.5,12.4,5.6l0,0c0.5,0.1,1,0.2,1.5,0.3c0.3,0,0.5,0.1,0.8,0.2c0.4,0.1,0.8,0.2,1.2,0.2c0.6,0.1,1.3,0.2,1.9,0.3
				c7.7,1.3,17.4,1.1,26.6,0.7h0.1l0.9,0.1c0.3,0,0.5,0,0.8,0l0.9,1c3.6,4,10.1,7.2,16.1,9.1c6.3,2,6.6,2.3,13.8,3.2
				c2.2,0.3,5.2,0.3,7.4,0.2c1,0,2.2-0.3,3-0.3c3.3,0,8.9-0.9,11.8-1.9c8.8-3.1,15.8-6.3,21.7-11.4c0.2,0,0.4,0,0.6,0
				c8.8,0.4,18.7,0.7,26.7-0.7c0.6-0.1,1.3-0.2,1.9-0.3c0.2,0,0.4-0.1,0.6-0.1l0,0c0.4-0.1,0.7-0.1,1.1-0.2c0.6-0.1,1.2-0.3,1.8-0.4
				c4.5-1,8.7-2.6,12.4-5.6c-3.7,6.8-8.1,13.3-12.7,18.5c-0.3,0.3-0.6,0.7-0.9,1c-1.3,1.4-2.4,2.6-3,4.7c-0.5,1.5-0.3,3.1,0.5,4.5
				s2.2,2.4,4,2.9c0,0.1-0.1,0.2-0.2,0.2c-0.5,0.5-1.5,1.1-2.8,1.1c-2.6,0-3.5-0.2-5.7-1.5c-1.6-1-2.6-2.7-2.8-4.5
				c-0.4-4.5,2.2-8.8,3.9-10.9l0.2-0.2l0,0l-2.1-1.5l-0.2,0.2c-2,2.7-3.4,5.4-4,8.1c-0.4,1.5-0.5,3.1-0.3,4.5c0.3,2.5,1.8,5,4,6.4
				c2.6,1.7,4.1,2,7.1,2c3.1,0,5.5-1.9,5.8-3.7c0.1-1-0.3-2.2-2-2.6c-1.1-0.3-2-0.9-2.4-1.7c-0.4-0.7-0.5-1.7-0.3-2.5
				c0.5-1.5,1.3-2.5,2.5-3.8c0.3-0.3,0.6-0.7,0.9-1c6.9-8,13.6-18.9,17.6-28.6c1.2-2.3,2-4.7,2.8-7.6c1.2-4.3,1.8-9.8,1.8-15.1h0.1
				v-0.3c-0.1-2.2-0.1-4.3-0.2-6.2c0.7,0.8,1.4,1.5,2.2,2c2.5,1.6,4.6,2.2,7.3,2.2c0.5,0,1.1,0,1.7-0.1c5-0.4,7.6-4.7,8.1-6.1
				C614.5,503.4,613.6,501.4,613.6,501.3z M449.5,525.6c-0.4,1.7-1.1,3.2-2,4.5c-0.9,1.2-2,2.2-3.4,2.7c-1.3,0.6-2.8,0.9-4.5,0.9
				c-3.5,0-6.2-1.4-8.2-4.1c-2-2.7-3-6.7-3-11.7c0-5.1,0.8-9.1,2.4-11.9s3.9-4.2,6.8-4.2c2,0,3.6,0.9,5,2.8h0.1v-2.3h5.1v10.6h-5.1
				c0-1.9-0.4-3.4-0.9-4.4c-0.6-1-1.3-1.4-2.3-1.4c-1.2,0-1.9,0.6-2.2,1.9c-0.3,1.3-0.5,4-0.5,8.1c0,3.3,0.1,5.8,0.2,7.4
				c0.1,1.6,0.4,2.7,0.8,3.3s1,0.9,1.7,0.9c1.8,0,2.7-1.7,2.8-5.1h-2.2v-4.7h9.8C450.1,521.5,449.9,523.8,449.5,525.6z M467.1,506.8
				h-3.3v21.8h3.3v4.7H453v-4.7h3.1v-21.8H453v-4.6h14.1V506.8z M492.9,533.2h-7.1l-3.1-13.6h-2.5v9h2v4.7h-11.6v-4.7h2v-21.8h-2
				v-4.6h12c3,0,5.3,0.9,7,2.6s2.6,3.9,2.6,6.5c0,1.4-0.3,2.6-0.7,3.6c-0.5,1-1.3,1.8-2.4,2.7l2.5,11.1h1.3L492.9,533.2L492.9,533.2
				z M550.2,528.6h2.3v-21.8h-2.3v-4.6h11.2c3.4,0,6.1,1.4,8.2,4.2c1.5,2.1,2.5,4.7,2.9,7.8c-0.3,1.9-0.3,4.2,0.1,6.1l0,0
				c-0.3,3.5-1.2,6.3-2.8,8.6c-1.9,2.9-4.8,4.3-8.5,4.3h-11.1L550.2,528.6L550.2,528.6z M539.5,520.7h0.4c-0.2-4.6-0.3-7.2-0.3-7.9
				v-6.1h-1.9v-4.6h8.5v4.6h-1.8v26.7h-6l-2.5-6.2c-1.1-2.7-2.1-5.3-2.9-7.7c-0.8-2.4-1.7-4.9-2.5-7.6h-0.4
				c0.3,3.6,0.4,7.1,0.4,10.5v6.1h1.8v4.7h-8.6v-4.7h2v-21.8h-2v-4.6h9.3C535.5,507.6,537.6,513.8,539.5,520.7z M497.8,528.6
				l3.4-21.8h-2v-4.6H517v4.6h-2.2l3.7,21.8h2v4.7h-11v-4.7h2l-0.8-5.8h-5.3l-0.8,5.8h2v4.7h-11.1v-4.7H497.8z M564.1,524.6
				c0.3-1.6,0.5-3.9,0.5-7s-0.2-5.5-0.5-7c-0.4-1.6-0.8-2.6-1.5-3c-0.6-0.5-1.4-0.7-2.4-0.7v21.8c1.1,0,2-0.3,2.6-0.8
				C563.3,527.2,563.8,526.2,564.1,524.6z M508.5,506h-0.9l-1.6,12.9h4.2L508.5,506z M480.3,506.6v8.5c1.9,0,3.1-0.3,3.6-1
				s0.8-1.8,0.8-3.4c0-1.3-0.2-2.3-0.7-3.1C483.4,506.9,482.2,506.6,480.3,506.6z M483.9,507.6c-0.5-0.7-1.7-1.1-3.6-1.1v8.5
				c1.9,0,3.1-0.3,3.6-1s0.8-1.8,0.8-3.4C484.6,509.4,484.3,508.4,483.9,507.6z M564,510.5c-0.4-1.6-0.8-2.6-1.5-3
				c-0.6-0.5-1.4-0.7-2.4-0.7v21.8c1.1,0,2-0.3,2.6-0.8s1.1-1.6,1.4-3.2c0.3-1.6,0.5-3.9,0.5-7C564.6,514.4,564.4,512.1,564,510.5z
				 M508.5,506h-0.9l-1.6,12.9h4.2L508.5,506z M564,510.5c-0.4-1.6-0.8-2.6-1.5-3c-0.6-0.5-1.4-0.7-2.4-0.7v21.8
				c1.1,0,2-0.3,2.6-0.8s1.1-1.6,1.4-3.2c0.3-1.6,0.5-3.9,0.5-7C564.6,514.4,564.4,512.1,564,510.5z M508.5,506h-0.9l-1.6,12.9h4.2
				L508.5,506z M483.9,507.6c-0.5-0.7-1.7-1.1-3.6-1.1v8.5c1.9,0,3.1-0.3,3.6-1s0.8-1.8,0.8-3.4
				C484.6,509.4,484.3,508.4,483.9,507.6z M564,510.5c-0.4-1.6-0.8-2.6-1.5-3c-0.6-0.5-1.4-0.7-2.4-0.7v21.8c1.1,0,2-0.3,2.6-0.8
				s1.1-1.6,1.4-3.2c0.3-1.6,0.5-3.9,0.5-7C564.6,514.4,564.4,512.1,564,510.5z M564,510.5c-0.4-1.6-0.8-2.6-1.5-3
				c-0.6-0.5-1.4-0.7-2.4-0.7v21.8c1.1,0,2-0.3,2.6-0.8s1.1-1.6,1.4-3.2c0.3-1.6,0.5-3.9,0.5-7C564.6,514.4,564.4,512.1,564,510.5z"
				/>
			<g>
				<path class="st2" d="M507.7,426.1c-1.3-5.5-14.5-5.2-15.2,0.7c-0.4,1.6,1.1,3.7,3.2,7.8c-0.1-4,0.6-6.2,1.5-7
					c1.7-1.4,2.8-1,4.6-0.4c0.4,0.3,2.8,1.4,2.3,7.4C506.4,430.2,508.1,427.7,507.7,426.1z"/>
				<path class="st2" d="M513.4,459L513.4,459L513.4,459c-2-3.5-4.4-7.5-5.8-9.7c0.4,1.6,2.6,12.8,2.9,14.4l-21.5-0.1
					c0.3-1.6,2.8-12.7,3.2-14.3c-1.4,2.1-3.8,6.2-5.8,9.7l0,0l0,0c-0.5,0.8-1,1.6-1.4,2.4c-0.5,0.7-1.1,1.5-1.3,2.3
					c0,0,0.1,0.1,0.2,0.1c2.8,1.4,4.9,3.2,8,3.6c0.6,1.8,2.1,2.7,3,4.3c0.3,0.7,0.6,1.5,0.9,2.2c0.2,0,0.3,0,0.5,0c0,0,0,0,0.1,0.1
					c0.2,0.1,0.5,0.1,0.7,0.1c1,0,2.9-10.6,2.9-10.6l2.9,10.6c0.2,0,0.5,0,0.7-0.1c0,0,0,0,0.1-0.1c0.2,0,0.3,0,0.5,0
					c0.3-0.7,0.6-1.5,0.9-2.2c4.5-8.8,2.3-3.6,11-8c0.2-0.1,0.2-0.1,0.2-0.1c-0.2-0.8-0.8-1.6-1.3-2.3
					C514.4,460.6,513.9,459.8,513.4,459z"/>
				<path class="st2" d="M493.8,453.7c0.7-1.5,1.4-3.1,2.1-4.6c0.3-0.6,0.5-1.1,1-1.6c0.2-0.2,0.5-0.4,0.9-0.5c0.2,0,0.5,0,0.7,0
					c0,0.7,0,1.3,0.1,1.4c0.2,1.8,0.5,3.6,0.9,5.4c0.5-2.3,0.9-4.6,1.3-6.9c0.1,0,0.2,0,0.3,0c0.5,0.1,0.9,0.3,1.2,0.6
					c0.5,0.5,0.8,1,1,1.6c0.7,1.5,1.4,3.1,2.1,4.6c-0.1-1.6-0.4-3.1-0.7-4.7c-0.2-1.8-0.6-3.5-1.1-5.3c-1.4,0.7-3,0.6-4.6,0.5
					c-0.9-0.1-2-0.2-2.7-0.8c-0.6,1.4-0.7,2.1-0.9,3.3c-0.3,1.3-0.8,2.9-1.1,4.4C494,452.3,493.8,453.2,493.8,453.7z"/>
				<path class="st2" d="M493.3,406.8c0.3,0.2,0.5,0.4,0.6,0.6C493.7,407.2,493.4,406.9,493.3,406.8z M506.1,407.3
					c0.2-0.1,0.4-0.3,0.6-0.5C506.6,406.9,506.3,407.1,506.1,407.3z M544.4,418.6c-0.3-0.4-0.6-0.7-1-0.9c-0.2-0.3-0.3-0.7-0.5-1
					c-0.3-0.9-0.8-1.7-1.3-2.5c-3.5-5.7-9.3-11.2-15.7-13.7c-2.9-1.1-4.6-2-6.9-4c-1-0.9-1.1-1.3-2.1-2.1c-3.3-2.8-4.9-2.8-7.2-3.3
					s-8.7-1.6-14.4-0.6l0,0c-1.9,0.1-3.6,0.4-4.8,0.6c-2.3,0.5-3.9,0.5-7.2,3.3c-1,0.8-1.1,1.3-2.1,2.1c-2.3,2-4,2.9-6.9,4
					c-6.4,2.5-12.2,8-15.7,13.7c-0.5,0.8-1,1.6-1.3,2.5c-0.2,0.3-0.4,0.6-0.5,1c-0.4,0.2-0.7,0.5-1,0.9c-1.1,1.4-1,2.6-0.9,4.3
					c0.1,1,0.2,2.6,1.3,3.6c-0.3,2-0.4,4.3-0.4,5.5c-0.1,0.6-0.1,1.3,0,1.8c0.1,2,0.3,4.1,0.6,6.1c0.1,0.6,0.2,1.1,0.3,1.7v0.1
					c0.1,0.4,0.2,1,0.3,1.6l0,0c0.4,1.7,1.1,4,1.8,5.8c0.1,0.4,0.3,0.8,0.4,1.2c0,0.1,0.1,0.2,0.1,0.3c0.5,1.5,1,2.9,1.8,4.2
					c0.1,0.2,0.2,0.4,0.4,0.6c0.6,1,1.4,1.8,2.2,2.7c0.9,1.3,1.8,2.3,2.8,3c0.3,0.2,0.5,0.3,0.8,0.5c0.5,0.4,1,0.7,1.5,0.9
					c0.2,0.1,0.3,0.1,0.5,0.2c1.4,0.7,2.9,1.2,4.4,1.4c3.9,0.5,10.2-1.5,11.9-5.9c-3.7,2.5-9.7,3.2-13.9,1.5
					c-4.1-1.7-7.4-5.2-8.8-9.3c-1-2.7-1.1-5.7-0.7-8.5c0.4-2.5,0.4-2.8,1.2-3.4c1.6,0.6,3.2,1.2,4.9,1.9c-0.5,3.7-1.2,9-0.7,9.5
					c0.3,0.3,9.5,4.1,12.8,5.3c3.4-2.2,4.8-3.5,4.8-3.5s-0.6-2.5-1-4.6c1.5,0.6,3.1,1.3,4.5,1.8c0.3-0.4,5.7-7,6.2-7.5
					c-2-1.5-2.6-3-3.6-4.9c-0.6,0.7-1.1,1.7-1.5,2.8c-0.6,1-1.7,3.2-2.5,4.5c-1.3-0.7-2.7-1.4-4.2-2c-1.3-3.3-3.7-7.9-3.8-9
					c0.3,2.6,0.6,5.2,1.1,7.8c-4.5-1.8-9.1-3.4-12.1-5c0-0.1,0.2-0.9,0.2-0.9c0.2-0.7,0.8-2.5,1-3.8c0.3-1.7,0.1-3.5-0.8-4.9
					c0-0.1-0.1-0.1-0.2-0.2c-0.1-0.2-0.2-0.4-0.3-0.5c-0.1-0.1-0.2-0.1-0.3-0.2c-0.2-0.1-0.3-0.3-0.5-0.4c-1.5-1.3-3.2-3.3-8.1-3.2
					c-0.5,0-0.9,0-1.3,0c0,0,0,0-0.1,0c4.4-3.7,8.8-2.3,13.6,0.6c0.4,0.4,0.8,0.8,1.1,1.3c1.4,1.7,2,2.4,2.5,4.4
					c-0.2-0.1,0,0.2,0,0.1c0,0.1,0,0.1,0.1,0.2c2.3,0.8,4.9,1.8,7.5,2.7c2.6,1,5.3,1.9,7.6,2.7c0,0-2.1-6-2.1-6.9
					c0.3-1.1,3.6-5.5,7.5-7.5c1.2-0.3,2.2-0.9,3-0.8c0,0,0-4.9-0.8-6.7c-0.3-0.7-0.2-0.3-0.7-0.9c-0.9-1-2-2-3.1-2.9l0,0l0,0l0,0
					l-0.9-0.7c0-0.1,0-0.1,0.1,0c-1.4-1.2-3.8-2.9-4.5-3.6c-1.1-1.1-3.9-2.6-3.9-4.1c0-1.4,1.6-3.5,2.8-4.3
					c2.9-1.9,10.3-2.6,14.6-2.5c3.8,0.4,7.9,1.2,9.9,2.5c1.2,0.8,2.8,2.9,2.8,4.3c0,1.5-2.7,3.1-3.9,4.1c-0.7,0.7-3.1,2.4-4.5,3.6
					h0.1c-0.3,0.2-0.6,0.5-0.9,0.7l0,0c-1.2,0.9-2.3,1.9-3.1,2.9c-0.5,0.6-0.2-0.1-0.5,0.6c-0.8,1.8-0.9,7.1-0.9,7.1
					c1.6,0.3,0.4,0,1.6,0.3c2.4,0.9,4.5,2.2,5.7,3.7c1.5,1.5,3.3,3.3,3.3,3.3c0,0.8-2.9,7.9-2.9,7.9c4.6-1.6,11.1-4,15.7-5.7
					c0-0.1,0-0.1,0.1-0.2l0,0c0.6-2,1.2-2.7,2.5-4.4c0.3-0.4,0.7-0.9,1.1-1.3c4.8-2.9,9.2-4.3,13.6-0.6l0,0c-0.5,0-0.9,0-1.3,0
					c-5-0.1-6.6,1.9-8.2,3.2c-0.2,0.1-0.4,0.3-0.5,0.4s-0.2,0.1-0.3,0.2c-0.1,0-0.2,0.2-0.3,0.5c-0.1,0.1-0.1,0.1-0.2,0.2
					c-0.9,1.4-1.1,3.3-0.8,4.9c0.2,1.5,1.1,4.3,1.3,5l0,0l0,0c0,0,0,0,0,0.1c0,0,0,0,0,0.1c-0.5,0.2-1,0.5-1.5,0.7
					c-0.7,0-1.7,0.5-2.9,1.2c-2.5,0.9-5.4,1.9-8.2,2.9c0.4-2.7,0.8-5.3,1.1-8c-0.1,1-2.6,5.8-3.9,9.1c-1.4,0.6-2.7,1.2-3.9,1.8
					c-0.4-0.6-1.1-2.2-1.5-2.8l-0.1-0.1c-0.8-1.3-1.7-2.7-2.5-4c-0.6,2.4-1.8,3.6-3.1,4.9c0.1,0,3.4,4,3.6,4.3c0,0,1.3,2,1.6,2.4
					c0.5-0.2,2.2-0.8,4.5-1.6c-0.4,2-0.9,4.3-0.9,4.3s1.4,1.3,4.7,3.5c3.3-1.2,12.3-5,12.6-5.3c0.5-0.4,0-4.7-0.5-8.2
					c3.2-1.2,5.4-2,5.4-2c0.9,0.6,0.5-0.3,1.2,2.9c0.6,2.8,0.3,5.8-0.7,8.5c-1.4,4.1-4.6,7.6-8.8,9.3c-4.2,1.7-10.2,1-13.9-1.5
					c1.8,4.4,8,6.4,11.9,5.9c1.6-0.2,3-0.7,4.4-1.4c0.2-0.1,0.3-0.1,0.5-0.2c0.5-0.3,1-0.6,1.5-0.9c0.3-0.2,0.5-0.3,0.8-0.5
					c1-0.6,1.9-1.7,2.8-3c0.8-0.9,1.5-1.7,2.2-2.7c0.1-0.2,0.3-0.4,0.4-0.6c0.8-1.3,1.3-2.8,1.8-4.2c0-0.1,0-0.2,0.1-0.3
					c0.1-0.3,0.3-0.7,0.4-1.1c0.7-1.8,1.3-4,1.7-5.7l0,0c0.2-0.7,0.3-1.3,0.4-1.8v-0.1c0.1-0.6,0.2-1.1,0.3-1.7
					c0.3-2,0.5-4.1,0.6-6.1c0.1-0.6,0.1-1.2,0-1.8c0-1.2-0.1-3.4-0.4-5.5c1.1-1,1.3-2.6,1.3-3.6C545.4,421.2,545.5,420,544.4,418.6z
					 M457,417.2c0,0.1,0,0.2-0.1,0.3c0,0.1-0.1,0.1-0.1,0.2l0,0C456.8,417.5,456.9,417.3,457,417.2z M465,429.7
					c0,1.6-0.1,3.2-0.1,4.5c-0.2,0.5-0.4,0.9-0.5,1.3c-0.1,0-0.3,0-0.4,0c-2.2-0.3-4.7-0.8-6.1-2.5c-0.5-0.6-0.8-1.5-1-2.5
					c0.1-1.1,0.2-2.2,0.1-3.3c0.2,0.1,0.4,0.2,0.7,0.2C459.9,428.1,462.6,429,465,429.7z M485.4,423.6c-0.2,1.4-1.1,2.7-2.4,3.1
					c-1.1,0.3-2.3-0.1-3.2-0.8c-0.9-0.7-1.6-1.6-2.3-2.5c-2.5-3-5.9-5.3-9.6-6.6c-1.3-0.5-2.7-0.9-4.1-1.1c-0.1,0-0.2-0.1-0.3-0.1
					c-0.8-0.3-1.6-0.5-2.5-0.5c0.5-0.4,1.1-0.9,1.7-1.3c0.9-0.6,1.9-0.9,2.9-1.1c0.2,0,0.5,0,0.7,0.1l-0.6-0.1
					c1.1-0.2,2.2-0.2,3.2-0.2c1.7,0.1,3.4,0.4,5,0.6l0,0c2.8,0.8,4.5,1.7,6.9,3.3c2,1.2,3.7,3,4.5,5.1
					C485.5,422.1,485.5,422.9,485.4,423.6z M485.2,403.6c1,0.5,4.6,2.9,5.3,3.9c0.6,0.9,2.5,2.7,2.5,5.1c0,2.1-1,3.3-2.6,4.4l0,0
					c-0.2,0-0.4,0-0.7,0c-1.4-0.1-2.5-1.1-3.6-1.9c-4-3.1-8.8-5.5-14-6.2c-1-0.1-2.1-0.2-3.1,0.1c-2,0.2-3.9,1-5.5,1.9
					c2.3-2.5,4.9-4.7,7.8-6.5c2.5-1.6,6.4-2.3,9.4-2C482.7,402.6,483.5,402.8,485.2,403.6z M510.3,417c-0.2,0-0.4,0-0.7,0l0,0
					c-1.6-1.1-3-2.3-2.6-4.4c0.2-1.1,0.8-3.4,1.5-4.3c4.7-5.9,8.8-5.7,10.7-5.9c3-0.3,6.9,0.4,9.4,2c2.9,1.8,5.5,4,7.8,6.5
					c-1.6-0.9-3.5-1.7-5.5-1.9c-1-0.3-2.1-0.3-3.1-0.1c-5.2,0.6-10,3-14,6.2C512.8,416,511.7,416.9,510.3,417z M536.6,415.5
					c-0.1,0-0.2,0.1-0.3,0.1c-1.4,0.3-2.8,0.6-4.1,1.1c-3.7,1.4-7.1,3.6-9.6,6.6c-0.7,0.9-1.4,1.8-2.3,2.5c-0.9,0.7-2.1,1.1-3.2,0.8
					c-1.4-0.4-2.2-1.8-2.4-3.1c-0.1-0.7-0.1-1.5,0-2.2c0.8-2.1,2.5-3.9,4.5-5.1c2.5-1.5,4.1-2.5,6.9-3.3l0,0c1.7-0.2,3.3-0.5,5-0.6
					c1.1,0,2.2,0,3.2,0.2l-0.6,0.1c0.2,0,0.5,0,0.7-0.1c1,0.2,2,0.5,3,1.1c0.6,0.4,1.1,0.8,1.7,1.3
					C538.2,415,537.4,415.2,536.6,415.5z M542.2,432.9c-1.4,1.7-3.8,2.2-6.1,2.5c-0.1,0-0.3,0-0.4,0c-0.2-0.5-0.3-0.9-0.5-1.3
					c-0.1-1.3-0.2-2.9-0.2-4.5c2.3-0.7,5-1.5,7.4-2.3c0.3-0.1,0.5-0.1,0.7-0.2c-0.1,1.1,0,2.2,0.1,3.3
					C543,431.4,542.7,432.3,542.2,432.9z M543.2,417.6c0-0.1-0.1-0.1-0.1-0.2s-0.1-0.2-0.1-0.3C543.1,417.3,543.2,417.5,543.2,417.6
					C543.3,417.6,543.2,417.6,543.2,417.6z"/>
			</g>
		</g>
		<path class="st2" d="M572.5,514.2c-0.3,1.9-0.3,4.2,0.1,6.1c0.1-0.8,0.1-1.7,0.1-2.5C572.7,516.5,572.6,515.3,572.5,514.2z"/>
		<path class="st2" d="M449.6,563.4l-1.9-1.7l7.7-7.8l1.9,1.7L449.6,563.4L449.6,563.4z M454.6,567.5l2.1,1.6l6.9-8.4l-2-1.5
			L458,564l2.3-5.9l-2.1-1.6l-6.9,8.4l2,1.5l3.6-4.8l0,0L454.6,567.5L454.6,567.5z M466.6,565.1l1.1-1.9l5.9,3.3l-1.1,1.9l-1.8-1
			l-4.4,7.4l-2.3-1.3l4.4-7.4L466.6,565.1L466.6,565.1z M472.2,577.5l1.7-4.2l1.7,0.6l-1.7,4.2l2.4,0.9l4.1-10l-2.4-0.9l-1.6,3.8
			l-1.7-0.6l1.6-3.8l-2.4-0.9l-4.1,10L472.2,577.5L472.2,577.5z M484.4,581.3l-5.9-1.6l3-10.3l5.8,1.6l-0.6,2.1l-3.2-0.9l-0.6,1.9
			l3.1,0.9l-0.6,2.1l-3.1-0.9l-0.7,2.2l3.4,0.9L484.4,581.3L484.4,581.3z M496.8,582.9l-5.8-0.4l0.8-10.7l2.6,0.2l-0.7,8.6l3.2,0.2
			L496.8,582.9L496.8,582.9z M502.9,579.7l-0.1-4.4c0-0.4-0.1-0.8-0.2-1c-0.1-0.3-0.4-0.5-0.8-0.5s-0.6,0.2-0.8,0.5
			c-0.1,0.2-0.1,0.6-0.1,1l0.1,4.4c0,0.4,0.1,0.8,0.2,1c0.2,0.4,0.4,0.5,0.8,0.5s0.6-0.2,0.8-0.5
			C502.9,580.5,502.9,580.2,502.9,579.7L502.9,579.7z M505.4,575.1l0.1,4.4c0,1.3-0.2,2.2-0.7,2.8s-1.5,1-2.7,1
			c-1.3,0-2.2-0.3-2.8-0.9c-0.5-0.6-0.8-1.5-0.9-2.7l-0.1-4.4c0-1,0.3-1.8,0.9-2.4c0.6-0.6,1.5-0.9,2.6-0.9s2,0.2,2.6,0.8
			C505,573.3,505.4,574.1,505.4,575.1L505.4,575.1z M506.9,579.2l2.4-0.3l0.1,0.8c0,0.3,0.2,0.6,0.3,0.8s0.5,0.3,0.8,0.2
			c0.3,0,0.5-0.2,0.6-0.4s0.2-0.5,0.1-0.8c0-0.4-0.3-0.7-0.6-0.9c-0.1-0.1-0.5-0.3-1.1-0.5c-0.5-0.2-0.9-0.4-1.2-0.5
			c-0.4-0.2-0.7-0.4-1-0.6c-0.3-0.2-0.5-0.5-0.7-0.9c-0.2-0.3-0.3-0.7-0.4-1.2c-0.1-1,0.1-1.8,0.6-2.4c0.5-0.6,1.3-0.9,2.3-1.1
			c1.1-0.1,2,0.1,2.6,0.7c0.6,0.5,1,1.3,1.1,2.4l-2.4,0.3c-0.1-0.5-0.1-0.8-0.2-1c-0.2-0.3-0.5-0.5-0.8-0.5
			c-0.6,0.1-0.9,0.3-0.8,0.8c0,0.1,0,0.2,0,0.2c0,0.2,0.1,0.4,0.3,0.6c0.2,0.2,0.4,0.3,0.6,0.5c0.7,0.3,1.1,0.5,1.4,0.6
			c0.5,0.2,0.9,0.4,1.2,0.6c0.4,0.3,0.7,0.6,0.8,0.9c0.2,0.4,0.3,0.9,0.4,1.5c0.1,1,0,1.8-0.5,2.5c-0.5,0.6-1.3,1-2.4,1.1
			s-2,0-2.7-0.5c-0.6-0.4-0.9-1-1-1.8L506.9,579.2L506.9,579.2z M513.7,573.3l2-0.4l2,8.4l2.5-0.6l-2-8.4l2-0.5l-0.5-2.1l-6.6,1.5
			L513.7,573.3L513.7,573.3z M531.9,569l-2.4,1l-0.3-0.6c-0.4-0.8-0.8-1.2-1.4-0.9c-0.3,0.2-0.6,0.3-0.6,0.6c-0.1,0.2,0,0.5,0.2,0.9
			l2.3,4.8c0.1,0.3,0.3,0.5,0.5,0.6s0.5,0.1,0.8-0.1c0.4-0.2,0.5-0.4,0.5-0.8c0-0.3-0.1-0.6-0.3-1l-0.4-0.9l2.4-1l0.6,1.2
			c0.4,0.9,0.5,1.7,0.2,2.4c-0.3,0.8-1.1,1.4-2.3,1.9c-1.1,0.5-2,0.5-2.7,0.2s-1.3-1-1.8-2l-1.9-4c-0.5-1.1-0.6-2-0.3-2.7
			s1-1.3,2.1-1.8c1-0.5,2-0.6,2.7-0.4c0.8,0.2,1.4,0.8,1.8,1.8L531.9,569L531.9,569z M539.1,573l-5.5-9.3l-2.3,1.3l5.5,9.3
			L539.1,573L539.1,573z M535.8,565.2l-1.3-1.8l5.5-3.8l1.3,1.8l-1.7,1.2l5.2,7l-2.1,1.5l-5.2-7L535.8,565.2L535.8,565.2z
			 M542.3,557.8l-2,1.7l6.2,3l3.1,3.4l2-1.7l-3.1-3.4l-2.1-6.2l-0.1-0.1l-1.9,1.6l1.3,3.5L542.3,557.8z"/>
	</g>
</g>
<g id="сегменты">
	<g>
		<g>
			<g>
				<polygon class="st2" points="646.9,415.5 646.4,414.7 741.7,359.5 795.9,328.1 796.5,328.9 796.4,329 				"/>
				<rect x="669.4" y="499.5" class="st2" width="172.8" height="1"/>
				<path class="st2" d="M500,842.7c-60,0-119-15.7-170.7-45.5c-51.3-29.5-94.4-72.1-124.6-123.1c-31.1-52.5-47.5-112.8-47.5-174.1
					c0-61.4,16.4-121.6,47.5-174.1c30.1-51,73.2-93.6,124.6-123.1C381,173,440,157.3,500,157.3s119,15.7,170.7,45.5
					c52.2,30,95.7,73.4,125.9,125.5c30.2,52,46.1,111.3,46.1,171.8c0,61.4-16.4,121.6-47.5,174.1c-30.1,51-73.2,93.6-124.6,123.1
					C619,827,560,842.7,500,842.7z M500,158.3c-59.8,0-118.7,15.7-170.2,45.3C224,264.5,158.3,378.1,158.3,500
					S224,735.5,329.8,796.4c51.5,29.7,110.4,45.3,170.2,45.3s118.7-15.7,170.2-45.3C776,735.5,841.7,621.9,841.7,500
					c0-60.2-15.9-119.5-45.9-171.3c-30.1-51.9-73.5-95.2-125.6-125.1C618.7,173.9,559.8,158.3,500,158.3z"/>
				<polygon class="st2" points="795.9,671.9 646.4,585.3 646.9,584.5 742.2,639.6 796.4,671 				"/>
				<path class="st2" d="M500,941.1c-77.2,0-153.2-20.2-219.7-58.5c-66.1-38-121.5-92.8-160.3-158.5C80.1,656.5,58.9,579,58.9,500
					S80.1,343.5,120,275.9c38.8-65.6,94.2-120.4,160.3-158.5C346.8,79.2,422.8,58.9,500,58.9s153.2,20.2,219.7,58.5
					c66.1,38,121.5,92.8,160.3,158.5c40,67.6,61.1,145.1,61.1,224.1S920,656.5,880,724.1c-38.8,65.7-94.2,120.5-160.3,158.5
					C653.2,920.8,577.2,941.1,500,941.1z M500,59.9c-77,0-152.8,20.2-219.2,58.4C144.6,196.7,59.9,343,59.9,500
					s84.6,303.3,220.9,381.7c66.4,38.2,142.2,58.4,219.2,58.4s152.8-20.2,219.2-58.4C855.4,803.3,940.1,657,940.1,500
					s-84.6-303.3-220.9-381.7C652.8,80.1,577,59.9,500,59.9z M500,669.9c-29.7,0-59-7.8-84.6-22.5c-25.5-14.7-46.8-35.8-61.7-61
					c-15.4-26-23.5-55.9-23.5-86.3s8.1-60.3,23.5-86.3c14.9-25.3,36.3-46.4,61.7-61c25.6-14.7,54.9-22.5,84.6-22.5s59,7.8,84.6,22.5
					c25.5,14.6,46.8,35.8,61.7,61c15.4,26,23.5,55.9,23.5,86.3c0,30.4-8.1,60.3-23.5,86.3c-14.9,25.3-36.3,46.4-61.7,61l0,0
					C559,662.1,529.7,669.9,500,669.9z M500,331.1c-29.6,0-58.6,7.8-84.1,22.4c-52.3,30.1-84.8,86.2-84.8,146.5
					s32.5,116.4,84.8,146.5c25.5,14.7,54.6,22.4,84.1,22.4c29.5,0,58.6-7.8,84.1-22.4l0.3,0.4l-0.3-0.4
					c52.3-30.1,84.8-86.2,84.8-146.5s-32.5-116.4-84.8-146.5C558.6,338.9,529.6,331.1,500,331.1z"/>
				
					<rect x="347.6" y="99.9" transform="matrix(0.8672 -0.498 0.498 0.8672 -71.0438 204.6299)" class="st3" width="1" height="271.2"/>
				
					<rect x="451.4" y="162.2" transform="matrix(0.9822 -0.188 0.188 0.9822 -38.6883 89.3898)" class="st3" width="1" height="172.9"/>
				
					<rect x="461.6" y="248.1" transform="matrix(0.1884 -0.9821 0.9821 0.1884 200.6797 740.0118)" class="st4" width="172.9" height="1"/>
				
					<rect x="651.4" y="628.9" transform="matrix(0.8672 -0.498 0.498 0.8672 -294.1427 426.1767)" class="st3" width="1" height="271.2"/>
				
					<rect x="212.5" y="764" transform="matrix(0.498 -0.8672 0.8672 0.498 -488.188 685.6865)" class="st3" width="271.2" height="1"/>
				
					<rect x="212.9" y="658.3" transform="matrix(0.7848 -0.6198 0.6198 0.7848 -343.8629 327.296)" class="st3" width="172.8" height="1"/>
				
					<rect x="163.5" y="553.6" transform="matrix(0.9775 -0.2111 0.2111 0.9775 -111.335 65.2535)" class="st3" width="172.9" height="1"/>
				
					<rect x="198.8" y="313.5" transform="matrix(0.1669 -0.986 0.986 0.1669 -276.7827 570.6779)" class="st3" width="1" height="271.2"/>
				
					<rect x="516.4" y="235" transform="matrix(0.498 -0.8672 0.8672 0.498 123.0925 683.5703)" class="st3" width="271.2" height="1"/>
				<rect x="842.2" y="499.5" class="st2" width="98.3" height="1"/>
				
					<rect x="414" y="755.2" transform="matrix(5.859072e-03 -1 1 5.859072e-03 -258.1386 1251.7816)" class="st3" width="172.9" height="1"/>
			</g>
		</g>
	</g>
	<g>
		<g>
			
				<image style="overflow:visible;opacity:0.5;enable-background:new    ;" width="35" height="34" xlink:href="6F1DF54B.png"  transform="matrix(0.9706 0 0 0.9706 702.4071 865.5981)">
			</image>
			<g>
				<circle class="st2" cx="719.5" cy="882.1" r="4.4"/>
			</g>
		</g>
		<g>
			
				<image style="overflow:visible;opacity:0.5;enable-background:new    ;" width="33" height="34" xlink:href="6F1DF549.png"  transform="matrix(1 0 0 1 924 483)">
			</image>
			<g>
				<circle class="st2" cx="940.6" cy="500" r="4.4"/>
			</g>
		</g>
		<g>
			
				<image style="overflow:visible;opacity:0.5;enable-background:new    ;" width="33" height="34" xlink:href="6F1DF54F.png"  transform="matrix(1 0 0 1 703 101)">
			</image>
			<g>
				<circle class="st2" cx="719.5" cy="117.9" r="4.4"/>
			</g>
		</g>
		<g>
			
				<image style="overflow:visible;opacity:0.5;enable-background:new    ;" width="35" height="35" xlink:href="6F1DF54A.png"  transform="matrix(0.9714 0 0 0.9714 263.483 101.0213)">
			</image>
			<g>
				<circle class="st2" cx="280.5" cy="117.9" r="4.4"/>
			</g>
		</g>
		<g>
			
				<image style="overflow:visible;opacity:0.5;enable-background:new    ;" width="35" height="35" xlink:href="6F1DF545.png"  transform="matrix(0.9714 0 0 0.9714 48.5404 409.6128)">
			</image>
			<g>
				<circle class="st2" cx="65.6" cy="426.5" r="4.4"/>
			</g>
		</g>
		<g>
			
				<image style="overflow:visible;opacity:0.5;enable-background:new    ;" width="35" height="35" xlink:href="6F1DF546.png"  transform="matrix(0.9714 0 0 0.9714 263.483 865.2413)">
			</image>
			<g>
				<circle class="st2" cx="280.5" cy="882.1" r="4.4"/>
			</g>
		</g>
	</g>
</g>
<g id="текст">
	<g>
		<path class="st2" d="M492.8,230.7c0,3.4-2.2,4-5,4h-1.5v3.4h-2.6v-11.3h4C490.6,226.7,492.8,227.3,492.8,230.7z M490.2,230.7
			c0-1.6-0.8-1.7-2.3-1.7h-1.6v3.4h1.6C489.4,232.4,490.2,232.2,490.2,230.7z"/>
		<path class="st2" d="M495.9,226.7l3,10.6h0.6l3-10.6h2.6l-3.3,11.3h-5.3l-3.3-11.3H495.9z"/>
		<path class="st2" d="M506,226.7h8v2.2h-5.5v2.3h4.7v2.2h-4.7v2.3h5.5v2.2h-8V226.7z"/>
	</g>
	<g>
		<path class="st2" d="M574,240.9c2.8,0,5,1.7,5.4,4.2h-2.6c-0.3-1.3-1.1-1.9-2.8-1.9c-2,0-3.1,1.1-3.1,3.6s0.9,3.6,2.8,3.6
			c1.5,0,2.5-0.8,2.5-2.3h-2.6V246h5.9c0.9,0,1.4,0.5,1.4,1.4v4.9h-2.6v-3.9l0.5-1.8h-0.6c0,3.5-1.4,5.8-4.5,5.8
			c-3.4,0-5.2-2.4-5.2-5.8C568.3,243.2,570.8,240.9,574,240.9z"/>
		<path class="st2" d="M588.3,247.2v-3h2.6v8.1h-2.6v-1l0.5-1.4h-0.6c-0.3,1.4-1.3,2.6-3.1,2.6c-2.1,0-3.3-1.4-3.3-3.9v-4.4h2.6v4
			c0,1.5,0.4,2,1.7,2C587.4,250.2,588.3,249.5,588.3,247.2z"/>
		<path class="st2" d="M592,250.1h2.3v-3.7l-2,0.1v-2.2l3-0.2c0.9-0.1,1.4,0.4,1.4,1.3v4.7h2.3v2.2h-7V250.1z M593.8,242.1
			c0-0.8,0.6-1.3,1.5-1.3c1,0,1.5,0.5,1.5,1.3s-0.6,1.3-1.5,1.3C594.3,243.4,593.8,243,593.8,242.1z"/>
		<path class="st2" d="M599.8,250.1h2.2v-7.4l-1.9,0.1v-2.2l3.1-0.1c0.9,0,1.4,0.4,1.4,1.3v8.3h2.2v2.2h-7V250.1L599.8,250.1z"/>
		<path class="st2" d="M614.2,252.3v-0.5l0.5-1.4H614c-0.4,1.1-1.2,2.1-3.2,2.1c-2.3,0-3.5-1.9-3.5-4.2s1.2-4.2,3.5-4.2
			c2,0,2.8,1,3.2,2.1h0.6l-0.5-1.4v-4.2h2.6v11.8h-2.5V252.3z M612,246.3c-1.4,0-2.1,0.6-2.1,1.9s0.8,2,2.1,2c1.4,0,2.2-0.6,2.2-2
			C614.2,246.9,613.4,246.3,612,246.3z"/>
	</g>
	<g>
		<path class="st2" d="M646.6,299.9h5l1.7,10.6h0.6l1.7-10.6h5v11.3H658v-9l0.5-1.6h-0.6l-1.8,10.6h-5l-1.8-10.6h-0.6l0.5,1.6v9
			h-2.6L646.6,299.9L646.6,299.9z"/>
		<path class="st2" d="M661.8,308.9h2.3v-3.7l-2,0.1v-2.2l3-0.2c0.9,0,1.4,0.5,1.4,1.3v4.7h2.3v2.2h-7V308.9z M663.6,301
			c0-0.8,0.6-1.3,1.5-1.3s1.5,0.5,1.5,1.3s-0.6,1.3-1.5,1.3S663.6,301.8,663.6,301z"/>
		<path class="st2" d="M672.3,308.2v3h-2.6v-8.1h2.6v1l-0.5,1.4h0.6c0.3-1.4,1.3-2.6,3.1-2.6c2.1,0,3.3,1.4,3.3,3.9v4.4h-2.6v-4
			c0-1.5-0.4-2-1.7-2C673.2,305.1,672.3,305.9,672.3,308.2z"/>
		<path class="st2" d="M687.1,308.9v2.2l-4.2,0.2c-0.9,0-1.4-0.5-1.4-1.4v-4.6h-1.9v-2.2h1.9v-1.5l2.6-0.8v2.3h2.7v2.2h-2.7v3.8
			L687.1,308.9z"/>
		<path class="st2" d="M693,299.9h5l3.4,10.6h0.6l-0.5-1.6v-9h2.6v11.3h-5l-3.4-10.6h-0.6l0.5,1.6v9H693V299.9z"/>
		<path class="st2" d="M705.8,299.9h8v2.2h-5.5v3.3l5.1-0.3v2.3l-5.1,0.3v3.5h-2.6L705.8,299.9L705.8,299.9z"/>
		<path class="st2" d="M724.9,302.1h-3.7v9h-2.6v-9H715v-2.2h9.9V302.1z"/>
	</g>
	<g>
		<path class="st2" d="M730.8,550.8c0,3.4-2.2,4-5,4h-1.5v3.4h-2.6v-11.3h4C728.6,546.8,730.8,547.4,730.8,550.8z M728.2,550.8
			c0-1.5-0.8-1.7-2.3-1.7h-1.7v3.4h1.7C727.4,552.5,728.2,552.4,728.2,550.8z"/>
		<path class="st2" d="M731.9,551.3c0-0.9,0.5-1.4,1.4-1.3l5.3,0.1v2.2l-4.1-0.1v5.9h-2.6L731.9,551.3L731.9,551.3z"/>
		<path class="st2" d="M743.8,549.9c2.5,0,4.5,1.4,4.5,4.2s-2,4.2-4.5,4.2s-4.6-1.4-4.6-4.2C739.2,551.3,741.2,549.9,743.8,549.9z
			 M743.8,556c1.2,0,2-0.6,2-2c0-1.3-0.8-2-2-2s-2,0.6-2,2S742.5,556,743.8,556z"/>
		<path class="st2" d="M762.9,553.9v4.2h-2.6v-4c0-1.5-0.3-2-1.2-2c-1.4,0-1.7,1.2-1.7,3.2v2.8h-2.6v-4c0-1.5-0.3-2-1.2-2
			c-1.4,0-1.7,1.2-1.7,3.2v2.8h-2.6V550h2.6v0.8l-0.5,1.4h0.6c0.3-1.4,1.1-2.4,2.6-2.4s2.2,1,2.4,2.4h0.5c0.3-1.4,1-2.4,2.6-2.4
			C762.3,549.9,762.9,551.7,762.9,553.9z"/>
		<path class="st2" d="M768.4,549.9c2.5,0,4.5,1.4,4.5,4.2s-2,4.2-4.5,4.2s-4.6-1.4-4.6-4.2C763.9,551.3,765.9,549.9,768.4,549.9z
			 M768.4,556c1.2,0,2-0.6,2-2c0-1.3-0.8-2-2-2s-2,0.6-2,2S767.2,556,768.4,556z"/>
		<path class="st2" d="M780.8,555.9v2.2l-4.2,0.2c-0.9,0-1.4-0.5-1.4-1.4v-4.6h-1.9V550h1.9v-1.5l2.6-0.8v2.3h2.7v2.2h-2.7v3.8
			L780.8,555.9z"/>
		<path class="st2" d="M785.7,549.9c2.5,0,4.3,1.5,4.3,3.9v0.8h-6.1c0,0.9,0.7,1.6,2.1,1.6c0.9,0,1.6-0.3,1.7-0.9h2.6
			c-0.2,1.2-1.5,3-4.3,3c-3.1,0-4.5-2-4.5-4.3C781.4,551.4,783.2,549.9,785.7,549.9z M787.5,553.2c0-0.6-0.5-1.2-1.9-1.2
			s-1.9,0.6-1.9,1.2H787.5z"/>
		<path class="st2" d="M728.3,575.1v2.2l-4.2,0.2c-0.9,0-1.4-0.5-1.4-1.4v-4.6h-1.9v-2.2h1.9v-1.5l2.6-0.8v2.3h2.7v2.2h-2.7v3.8
			L728.3,575.1z"/>
		<path class="st2" d="M738.7,573v4.4h-2.6v-4c0-1.5-0.4-2-1.7-2c-1.4,0-2.3,0.7-2.3,3v3h-2.6v-11.8h2.6v4.7l-0.5,1.4h0.6
			c0.3-1.4,1.3-2.6,3.1-2.6C737.5,569.1,738.7,570.5,738.7,573z"/>
		<path class="st2" d="M743.9,569.1c2.5,0,4.3,1.5,4.3,3.9v0.8h-6.1c0,0.9,0.7,1.6,2.1,1.6c0.9,0,1.6-0.3,1.7-0.9h2.6
			c-0.2,1.2-1.5,3-4.3,3c-3.1,0-4.5-2-4.5-4.3C739.7,570.6,741.4,569.1,743.9,569.1z M745.8,572.4c0-0.6-0.5-1.2-1.9-1.2
			s-1.9,0.6-1.9,1.2H745.8z"/>
		<path class="st2" d="M764.8,569.2v2.2h-0.5c-0.2,0-0.5,0-0.8,0.1c0.1,0.1,0.2,0.5,0.2,0.9c0,1.5-1.4,2.5-3.7,3.2
			c1.8-0.1,3.5,0.4,3.5,2.1c0,2.4-2.8,2.7-8.8,2.7v-2.2c5.2,0,6.2-0.1,6.2-1c0-1.2-2.9-0.7-5.4-0.2l-0.3-1.4c1.8-0.2,3.5-0.4,5-0.7
			v-0.6c-3,1.1-6.1,0.6-6.1-2c0-2.1,2-3.2,4.6-3.2c1.2,0,2.3,0.2,3.2,0.9c0.5-0.6,1.3-0.7,2-0.7L764.8,569.2L764.8,569.2z
			 M761.1,572.4c0-0.7-0.6-1.1-2.1-1.1s-2.2,0.4-2.2,1.1c0,0.7,0.6,1.1,2.2,1.1C760.5,573.5,761.1,573.1,761.1,572.4z"/>
		<path class="st2" d="M768.5,572.6l2.5-0.3c0-0.7-0.5-1.1-1.6-1.1c-1,0-1.6,0.4-1.6,1.2h-2.4c0-2,1.7-3.3,4-3.3
			c2.2,0,4.2,1.1,4.2,3.7v2.3h1.2v2.2H773c-0.8,0-1.2-0.4-1.2-1.2V576l0.4-1h-0.6c-0.3,1.3-1.1,2.5-3.3,2.5c-2.5,0-3-1.5-3-2.4
			C765.2,573.7,766.1,572.9,768.5,572.6z M768.7,575.2c1.4,0,2.3-0.6,2.3-1.6l-2.1,0.3c-0.8,0.1-1.2,0.2-1.2,0.7
			C767.8,575.1,768.2,575.2,768.7,575.2z"/>
		<path class="st2" d="M789.2,573.1v4.2h-2.6v-4c0-1.5-0.3-2-1.2-2c-1.4,0-1.7,1.2-1.7,3.2v2.8h-2.6v-4c0-1.5-0.3-2-1.2-2
			c-1.4,0-1.7,1.2-1.7,3.2v2.8h-2.6v-8.1h2.6v0.8l-0.5,1.4h0.6c0.3-1.4,1.1-2.4,2.6-2.4s2.2,1,2.4,2.4h0.5c0.3-1.4,1-2.4,2.6-2.4
			C788.6,569.1,789.2,570.9,789.2,573.1z"/>
		<path class="st2" d="M794.4,569.1c2.5,0,4.3,1.5,4.3,3.9v0.8h-6.1c0,0.9,0.7,1.6,2.1,1.6c0.9,0,1.6-0.3,1.7-0.9h2.6
			c-0.2,1.2-1.5,3-4.3,3c-3.1,0-4.5-2-4.5-4.3C790.2,570.6,791.9,569.1,794.4,569.1z M796.3,572.4c0-0.6-0.5-1.2-1.9-1.2
			s-1.9,0.6-1.9,1.2H796.3z"/>
	</g>
	<g>
		<path class="st2" d="M531.9,752.8h8v2.2h-5.5v3.3l5.1-0.3v2.3l-5.1,0.3v3.5h-2.6L531.9,752.8L531.9,752.8z"/>
		<path class="st2" d="M543.8,759.3l2.5-0.3c0-0.7-0.5-1.1-1.6-1.1c-1,0-1.6,0.4-1.6,1.2h-2.4c0-2,1.7-3.3,4-3.3
			c2.2,0,4.2,1.1,4.2,3.7v2.3h1.2v2.2h-1.8c-0.8,0-1.2-0.4-1.2-1.2v-0.2l0.4-1h-0.6c-0.3,1.3-1.1,2.5-3.3,2.5c-2.5,0-3-1.5-3-2.4
			C540.5,760.5,541.4,759.7,543.8,759.3z M544,762c1.4,0,2.3-0.6,2.3-1.6l-2.1,0.3c-0.8,0.1-1.2,0.2-1.2,0.7
			C543.1,761.8,543.6,762,544,762z"/>
		<path class="st2" d="M551,757.2c0-0.9,0.5-1.4,1.4-1.3l5.3,0.1v2.2l-4.1-0.1v5.9H551V757.2L551,757.2z"/>
		<path class="st2" d="M572.2,759.9v4.2h-2.6v-4c0-1.5-0.3-2-1.2-2c-1.4,0-1.7,1.2-1.7,3.2v2.8h-2.6v-4c0-1.5-0.3-2-1.2-2
			c-1.4,0-1.7,1.2-1.7,3.2v2.8h-2.6V756h2.6v0.8l-0.5,1.4h0.6c0.3-1.4,1.1-2.4,2.6-2.4s2.2,1,2.4,2.4h0.5c0.3-1.4,1-2.4,2.6-2.4
			C571.5,755.8,572.2,757.7,572.2,759.9z"/>
		<path class="st2" d="M573.1,761.8h2.3v-3.7l-2,0.1V756l3-0.2c0.9,0,1.4,0.5,1.4,1.3v4.7h2.3v2.2h-7V761.8z M574.9,753.9
			c0-0.8,0.6-1.3,1.5-1.3c1,0,1.5,0.5,1.5,1.3s-0.6,1.3-1.5,1.3S574.9,754.7,574.9,753.9z"/>
		<path class="st2" d="M583.7,761.1v3h-2.6V756h2.6v1l-0.5,1.4h0.6c0.3-1.4,1.3-2.6,3.1-2.6c2.1,0,3.3,1.4,3.3,3.9v4.4h-2.6v-4
			c0-1.5-0.4-2-1.7-2C584.6,758.1,583.7,758.8,583.7,761.1z"/>
		<path class="st2" d="M601.5,756v2.2H601c-0.2,0-0.5,0-0.8,0.1c0.1,0.1,0.2,0.5,0.2,0.9c0,1.5-1.4,2.5-3.7,3.2
			c1.8-0.1,3.5,0.4,3.5,2.1c0,2.4-2.8,2.7-8.8,2.7V765c5.2,0,6.2-0.1,6.2-1c0-1.2-2.9-0.7-5.4-0.2l-0.3-1.4c1.8-0.2,3.5-0.4,5-0.7
			V761c-3,1.1-6.1,0.6-6.1-2c0-2.1,2-3.2,4.6-3.2c1.2,0,2.3,0.2,3.2,0.9c0.5-0.6,1.3-0.7,2-0.7H601.5L601.5,756z M597.9,759.1
			c0-0.7-0.6-1.1-2.1-1.1s-2.2,0.4-2.2,1.1c0,0.7,0.6,1.1,2.2,1.1C597.3,760.2,597.9,759.8,597.9,759.1z"/>
	</g>
	<g>
		<path class="st2" d="M405.4,762.7c-4.1,0-5.6-1.7-5.6-4.5h2.6c0,1.7,0.9,2.3,3.1,2.3c1.6,0,2.2-0.4,2.2-1c0-0.8-1.4-1.2-3-1.7
			c-2.4-0.8-4.3-1.4-4.3-3.7c0-1.9,1.5-3,4.4-3c3.5,0,5,1.8,5,4h-2.6c0-1.4-1.1-1.8-2.5-1.8c-1.1,0-1.9,0.3-1.9,0.8s0.3,0.7,2.1,1.3
			c2.1,0.7,5.3,1.6,5.3,4C410.2,761.4,408.9,762.7,405.4,762.7z"/>
		<path class="st2" d="M418.1,760.3v2.2l-4.2,0.2c-0.9,0-1.4-0.5-1.4-1.4v-4.6h-1.9v-2.2h1.9V753l2.6-0.8v2.3h2.7v2.2h-2.7v3.8
			L418.1,760.3z"/>
		<path class="st2" d="M422.3,757.8l2.5-0.3c0-0.7-0.5-1.1-1.6-1.1c-1,0-1.6,0.4-1.6,1.2h-2.4c0-2,1.7-3.3,4-3.3
			c2.2,0,4.2,1.1,4.2,3.7v2.3h1.2v2.2h-1.8c-0.8,0-1.2-0.4-1.2-1.2v-0.2l0.4-1h-0.6c-0.3,1.3-1.1,2.5-3.4,2.5c-2.5,0-3-1.5-3-2.4
			C419.1,758.9,419.9,758.1,422.3,757.8z M422.5,760.5c1.4,0,2.3-0.6,2.3-1.6l-2.1,0.3c-0.8,0.1-1.1,0.2-1.1,0.7
			C421.7,760.3,422.1,760.5,422.5,760.5z"/>
		<path class="st2" d="M433.9,759.4l-1.8,0.8v2.3h-2.6v-11.8h2.6v6.8l3.7-1.7v-1.5h2.6v1.8c0,0.8-0.3,1.3-1,1.6l-1.3,0.6l2.7,4.2
			h-2.9L433.9,759.4z"/>
		<path class="st2" d="M439.5,760.3h2.3v-3.7l-2,0.1v-2.2l3-0.2c0.9,0,1.4,0.5,1.4,1.3v4.7h2.3v2.2h-7L439.5,760.3L439.5,760.3z
			 M441.3,752.4c0-0.8,0.6-1.3,1.5-1.3c1,0,1.5,0.5,1.5,1.3s-0.6,1.3-1.5,1.3C441.8,753.7,441.3,753.2,441.3,752.4z"/>
		<path class="st2" d="M450,759.5v3h-2.6v-8.1h2.6v1l-0.5,1.4h0.6c0.3-1.4,1.3-2.6,3.1-2.6c2.1,0,3.3,1.4,3.3,3.9v4.4H454v-4
			c0-1.5-0.4-2-1.7-2C451,756.5,450,757.3,450,759.5z"/>
		<path class="st2" d="M467.9,754.5v2.2h-0.5c-0.2,0-0.5,0-0.8,0.1c0.1,0.1,0.2,0.5,0.2,0.9c0,1.5-1.4,2.5-3.6,3.2
			c1.8-0.1,3.5,0.4,3.5,2.1c0,2.4-2.8,2.7-8.8,2.7v-2.2c5.2,0,6.2-0.1,6.2-1c0-1.2-2.9-0.7-5.4-0.2l-0.3-1.4c1.8-0.2,3.5-0.4,5-0.7
			v-0.6c-3,1.1-6.1,0.6-6.1-2c0-2.1,2-3.2,4.6-3.2c1.2,0,2.4,0.2,3.2,0.9c0.5-0.6,1.3-0.7,2-0.7L467.9,754.5L467.9,754.5z
			 M464.2,757.6c0-0.7-0.6-1.1-2.1-1.1s-2.2,0.4-2.2,1.1c0,0.7,0.6,1.1,2.2,1.1C463.6,758.7,464.2,758.3,464.2,757.6z"/>
	</g>
	<g>
		<path class="st2" d="M296.9,694.4h4.4c2.7,0,5,0.6,5,3.2c0,1.9-1.5,2.4-2.9,2.5v0.6h1.6c0.9,0,1.4,0.5,1.4,1.4v3.6h-2.6v-4h-4.4v4
			h-2.6L296.9,694.4L296.9,694.4z M301.2,699.5c1.5,0,2.5,0,2.5-1.4s-0.9-1.4-2.5-1.4h-1.8v2.8L301.2,699.5L301.2,699.5z"/>
		<path class="st2" d="M310.7,700.9l2.5-0.3c0-0.7-0.5-1.1-1.6-1.1c-1,0-1.6,0.4-1.6,1.2h-2.4c0-2,1.7-3.3,4-3.3
			c2.2,0,4.2,1.1,4.2,3.7v2.3h1.2v2.2h-1.8c-0.8,0-1.2-0.4-1.2-1.2v-0.2l0.4-1h-0.6c-0.3,1.3-1.1,2.5-3.3,2.5c-2.5,0-3-1.5-3-2.4
			C307.5,702.1,308.3,701.3,310.7,700.9z M311,703.6c1.4,0,2.3-0.6,2.3-1.6l-2.1,0.3c-0.8,0.1-1.1,0.2-1.1,0.7
			C310.1,703.5,310.5,703.6,311,703.6z"/>
		<path class="st2" d="M324.1,703.5v2.2l-4.2,0.2c-0.9,0-1.4-0.5-1.4-1.4v-4.6h-1.9v-2.2h1.9v-1.5l2.6-0.8v2.3h2.7v2.2h-2.7v3.8
			L324.1,703.5z"/>
		<path class="st2" d="M325.1,703.5h2.3v-3.7l-2,0.1v-2.2l3-0.2c0.9,0,1.4,0.5,1.4,1.3v4.7h2.3v2.2h-7L325.1,703.5L325.1,703.5z
			 M326.9,695.5c0-0.8,0.6-1.3,1.5-1.3c1,0,1.5,0.5,1.5,1.3s-0.6,1.3-1.5,1.3S326.9,696.4,326.9,695.5z"/>
		<path class="st2" d="M335.7,702.7v3h-2.6v-8.1h2.6v1l-0.5,1.4h0.6c0.3-1.4,1.3-2.6,3.1-2.6c2.1,0,3.3,1.4,3.3,3.9v4.4h-2.6v-4
			c0-1.5-0.4-2-1.7-2C336.6,699.7,335.7,700.4,335.7,702.7z"/>
		<path class="st2" d="M353.5,697.6v2.2H353c-0.2,0-0.5,0-0.8,0.1c0.1,0.1,0.2,0.5,0.2,0.9c0,1.5-1.4,2.5-3.6,3.2
			c1.8-0.1,3.5,0.4,3.5,2.1c0,2.4-2.8,2.7-8.8,2.7v-2.2c5.2,0,6.2-0.1,6.2-1c0-1.2-2.9-0.7-5.4-0.2L344,704c1.8-0.2,3.5-0.4,5-0.7
			v-0.6c-3,1.1-6.1,0.6-6.1-2c0-2.1,2-3.2,4.6-3.2c1.2,0,2.4,0.2,3.2,0.9c0.5-0.6,1.3-0.7,2-0.7L353.5,697.6L353.5,697.6z
			 M349.9,700.8c0-0.7-0.6-1.1-2.1-1.1s-2.2,0.4-2.2,1.1c0,0.7,0.6,1.1,2.2,1.1C349.3,701.8,349.9,701.5,349.9,700.8z"/>
	</g>
	<g>
		<path class="st2" d="M242.7,609.6H239v9h-2.6v-9h-3.7v-2.2h9.9L242.7,609.6L242.7,609.6z"/>
		<path class="st2" d="M242.4,616.4h2.3v-3.7l-2,0.1v-2.2l3-0.2c0.9,0,1.4,0.5,1.4,1.3v4.7h2.3v2.2h-7V616.4L242.4,616.4z
			 M244.2,608.5c0-0.8,0.6-1.3,1.5-1.3s1.5,0.5,1.5,1.3s-0.6,1.3-1.5,1.3S244.2,609.3,244.2,608.5z"/>
		<path class="st2" d="M256.2,616.4v2.2l-4.2,0.2c-0.9,0-1.4-0.5-1.4-1.4v-4.6h-1.9v-2.2h1.9V609l2.6-0.8v2.3h2.7v2.2h-2.7v3.8
			L256.2,616.4z"/>
		<path class="st2" d="M257.2,616.4h2.2V609l-1.9,0.1v-2.2l3.1-0.1c0.9,0,1.4,0.5,1.4,1.3v8.3h2.2v2.2h-7L257.2,616.4L257.2,616.4z"
			/>
		<path class="st2" d="M269,610.4c2.5,0,4.3,1.5,4.3,3.9v0.8h-6.1c0,0.9,0.7,1.6,2.1,1.6c0.9,0,1.6-0.3,1.7-0.9h2.6
			c-0.2,1.2-1.5,3-4.3,3c-3.1,0-4.5-2-4.5-4.3C264.7,611.9,266.5,610.4,269,610.4z M270.8,613.7c0-0.6-0.5-1.2-1.9-1.2
			s-1.9,0.6-1.9,1.2H270.8z"/>
		<path class="st2" d="M278.4,618.8c-3,0-4.3-1.2-4.3-3.1h2.6c0,0.6,0.4,1.2,1.8,1.2c0.7,0,1.1-0.2,1.1-0.5c0-0.4-0.5-0.5-1.8-1
			c-1.5-0.5-3.3-0.9-3.3-2.7c0-1.4,1.3-2.3,3.5-2.3c2.7,0,3.9,1.4,3.9,2.9h-2.6c0-0.6-0.4-1-1.3-1c-0.6,0-0.9,0.1-0.9,0.5
			s0.8,0.6,2.1,1c1.6,0.5,3,0.9,3,2.6C282.2,617.8,281.2,618.8,278.4,618.8z"/>
	</g>
	<g>
		<path class="st2" d="M181.3,509.5c-4.1,0-5.6-1.7-5.6-4.5h2.6c0,1.7,0.9,2.3,3.1,2.3c1.6,0,2.2-0.4,2.2-1c0-0.8-1.4-1.2-3-1.8
			c-2.4-0.8-4.3-1.4-4.3-3.6c0-1.9,1.5-3,4.4-3c3.5,0,5,1.8,5,4h-2.6c0-1.4-1.1-1.8-2.4-1.8c-1.1,0-1.9,0.3-1.9,0.8s0.3,0.7,2.1,1.3
			c2.1,0.7,5.3,1.6,5.3,4C186.1,508.2,184.8,509.5,181.3,509.5z"/>
		<path class="st2" d="M189.8,501.3v0.5l-0.5,1.4h0.6c0.4-1.1,1.2-2.1,3.2-2.1c2.3,0,3.5,1.9,3.5,4.2s-1.2,4.2-3.5,4.2
			c-2,0-2.8-1-3.2-2.1h-0.6l0.5,1.4v3.5h-2.6v-11.1h2.6V501.3z M191.9,507.3c1.4,0,2.1-0.6,2.1-2s-0.8-2-2.1-2c-1.4,0-2.1,0.6-2.1,2
			C189.8,506.7,190.6,507.3,191.9,507.3z"/>
		<path class="st2" d="M201.7,501.1c2.5,0,4.3,1.5,4.3,3.9v0.8h-6.1c0,0.9,0.7,1.6,2.1,1.6c0.9,0,1.6-0.3,1.7-0.9h2.6
			c-0.2,1.2-1.5,3-4.3,3c-3.1,0-4.5-2-4.5-4.3C197.4,502.6,199.2,501.1,201.7,501.1z M203.6,504.4c0-0.6-0.4-1.2-1.9-1.2
			s-1.9,0.6-1.9,1.2H203.6z"/>
		<path class="st2" d="M211.5,501.1c2.2,0,4.2,1.2,4.3,3.5h-2.6c-0.1-0.7-0.8-1.3-1.8-1.3c-1.2,0-1.9,0.7-1.9,2s0.6,2,1.9,2
			c1,0,1.7-0.5,1.8-1.3h2.6c-0.1,2.3-2.1,3.5-4.3,3.5c-2.6,0-4.4-1.5-4.4-4.2S208.9,501.1,211.5,501.1z"/>
		<path class="st2" d="M216.4,507.1h2.3v-3.7l-2,0.1v-2.2l3-0.2c0.9,0,1.4,0.5,1.4,1.3v4.7h2.3v2.2h-7V507.1L216.4,507.1z
			 M218.3,499.2c0-0.8,0.6-1.3,1.5-1.3s1.5,0.5,1.5,1.3s-0.6,1.3-1.5,1.3C218.8,500.5,218.3,500,218.3,499.2z"/>
		<path class="st2" d="M227.5,504.6l2.5-0.4c0-0.7-0.5-1.1-1.6-1.1c-1,0-1.6,0.4-1.6,1.2h-2.4c0-2,1.7-3.3,4-3.3
			c2.2,0,4.2,1.1,4.2,3.7v2.3h1.2v2.2H232c-0.8,0-1.2-0.4-1.2-1.2v0l0.4-1h-0.6c-0.3,1.3-1.1,2.5-3.3,2.5c-2.5,0-2.9-1.5-2.9-2.4
			C224.3,505.7,225.1,504.9,227.5,504.6z M227.7,507.3c1.4,0,2.3-0.6,2.3-1.6l-2,0.3c-0.8,0.1-1.1,0.2-1.1,0.7
			S227.3,507.3,227.7,507.3z"/>
		<path class="st2" d="M234.4,507.1h2.2v-7.4l-1.9,0.1v-2.2l3.1-0.1c0.9,0,1.4,0.5,1.4,1.3v8.3h2.2v2.2h-7V507.1L234.4,507.1z"/>
		<path class="st2" d="M242.3,507.1h2.3v-3.7l-2,0.1v-2.2l3-0.2c0.9,0,1.4,0.5,1.4,1.3v4.7h2.3v2.2h-7V507.1L242.3,507.1z
			 M244.1,499.2c0-0.8,0.6-1.3,1.5-1.3s1.5,0.5,1.5,1.3s-0.6,1.3-1.5,1.3C244.6,500.5,244.1,500,244.1,499.2z"/>
		<path class="st2" d="M250.3,505l7.3-1.4V503l-1.4,0.5h-5.9v-2.2h8v4.3L251,507v0.6l1.4-0.5h5.9v2.2h-7.9L250.3,505L250.3,505z"/>
		<path class="st2" d="M262.4,504.6l2.5-0.4c0-0.7-0.5-1.1-1.6-1.1c-1,0-1.6,0.4-1.6,1.2h-2.4c0-2,1.7-3.3,4-3.3
			c2.2,0,4.2,1.1,4.2,3.7v2.3h1.2v2.2h-1.8c-0.8,0-1.2-0.4-1.2-1.2v0l0.4-1h-0.6c-0.3,1.3-1.1,2.5-3.4,2.5c-2.5,0-2.9-1.5-2.9-2.4
			C259.2,505.7,260,504.9,262.4,504.6z M262.6,507.3c1.4,0,2.3-0.6,2.3-1.6l-2.1,0.3c-0.8,0.1-1.1,0.2-1.1,0.7
			S262.2,507.3,262.6,507.3z"/>
		<path class="st2" d="M275.8,507.1v2.2l-4.2,0.2c-0.9,0-1.4-0.5-1.4-1.4v-4.6h-1.9v-2.2h1.9v-1.5l2.6-0.8v2.3h2.7v2.2h-2.7v3.8
			L275.8,507.1z"/>
		<path class="st2" d="M276.8,507.1h2.3v-3.7l-2,0.1v-2.2l3-0.2c0.9,0,1.4,0.5,1.4,1.3v4.7h2.3v2.2h-7L276.8,507.1L276.8,507.1z
			 M278.6,499.2c0-0.8,0.6-1.3,1.5-1.3c1,0,1.5,0.5,1.5,1.3s-0.6,1.3-1.5,1.3C279.1,500.5,278.6,500,278.6,499.2z"/>
		<path class="st2" d="M288.9,501.1c2.5,0,4.5,1.4,4.5,4.2c0,2.8-2,4.2-4.5,4.2s-4.6-1.4-4.6-4.2S286.3,501.1,288.9,501.1z
			 M288.9,507.3c1.2,0,2-0.6,2-2c0-1.3-0.8-2-2-2s-2,0.6-2,2C286.9,506.6,287.6,507.3,288.9,507.3z"/>
		<path class="st2" d="M297.1,506.3v3h-2.6v-8.1h2.6v1l-0.5,1.4h0.6c0.3-1.4,1.3-2.6,3.1-2.6c2.1,0,3.3,1.4,3.3,3.9v4.4H301v-4
			c0-1.5-0.4-2-1.7-2C298,503.3,297.1,504.1,297.1,506.3z"/>
	</g>
	<g>
		<path class="st2" d="M231.7,347.4h5l1.6,10.6h0.6l1.6-10.6h5v11.3h-2.6v-9l0.5-1.6H243l-1.8,10.6h-5l-1.8-10.6h-0.6l0.5,1.6v9
			h-2.6L231.7,347.4L231.7,347.4z"/>
		<path class="st2" d="M250.1,353.9l2.5-0.4c0-0.7-0.5-1.1-1.6-1.1c-1,0-1.6,0.4-1.6,1.2H247c0-2,1.7-3.3,4-3.3
			c2.2,0,4.2,1.1,4.2,3.7v2.3h1.2v2.2h-1.8c-0.8,0-1.2-0.4-1.2-1.2v-0.2l0.4-1h-0.6c-0.3,1.3-1.1,2.5-3.4,2.5
			c-2.5,0-2.9-1.5-2.9-2.4C246.9,355.1,247.7,354.3,250.1,353.9z M250.3,356.6c1.4,0,2.3-0.6,2.3-1.6l-2.1,0.3
			c-0.8,0.1-1.1,0.2-1.1,0.7S249.9,356.6,250.3,356.6z"/>
		<path class="st2" d="M257.3,351.8c0-0.9,0.5-1.4,1.4-1.3l5.3,0.1v2.2l-4.1-0.1v5.9h-2.6L257.3,351.8L257.3,351.8z"/>
		<path class="st2" d="M269.5,355.6l-1.8,0.8v2.3h-2.6v-11.8h2.6v6.8l3.7-1.7v-1.5h2.6v1.8c0,0.8-0.3,1.3-1,1.6l-1.3,0.6l2.7,4.1
			h-2.9L269.5,355.6z"/>
		<path class="st2" d="M278.8,350.4c2.5,0,4.3,1.5,4.3,3.9v0.8H277c0,0.9,0.7,1.6,2.1,1.6c0.9,0,1.6-0.3,1.7-0.9h2.6
			c-0.2,1.2-1.5,3-4.3,3c-3.1,0-4.5-2-4.5-4.3C274.5,352,276.3,350.4,278.8,350.4z M280.7,353.7c0-0.6-0.5-1.2-1.9-1.2
			s-1.9,0.6-1.9,1.2H280.7z"/>
		<path class="st2" d="M291.1,356.4v2.2l-4.2,0.2c-0.9,0-1.4-0.5-1.4-1.4v-4.6h-1.9v-2.2h1.9v-1.5l2.6-0.8v2.3h2.7v2.2h-2.7v3.8
			L291.1,356.4z"/>
		<path class="st2" d="M295.1,350.6v0.5l-0.5,1.4h0.6c0.4-1.1,1.2-2.1,3.2-2.1c2.3,0,3.5,1.9,3.5,4.2s-1.2,4.2-3.5,4.2
			c-2,0-2.8-1-3.2-2.1h-0.6l0.5,1.4v3.5h-2.6v-11.1h2.6V350.6z M297.3,356.6c1.4,0,2.1-0.6,2.1-2s-0.8-2-2.1-2s-2.1,0.6-2.1,2
			S295.9,356.6,297.3,356.6z"/>
		<path class="st2" d="M302.6,356.4h2.2V349l-1.9,0.1v-2.2l3.1-0.1c0.9,0,1.4,0.5,1.4,1.3v8.3h2.2v2.2h-7L302.6,356.4L302.6,356.4z"
			/>
		<path class="st2" d="M313.7,353.9l2.5-0.4c0-0.7-0.5-1.1-1.6-1.1c-1,0-1.6,0.4-1.6,1.2h-2.4c0-2,1.7-3.3,4-3.3
			c2.2,0,4.2,1.1,4.2,3.7v2.3h1.2v2.2h-1.8c-0.8,0-1.2-0.4-1.2-1.2v-0.2l0.4-1h-0.6c-0.3,1.3-1.1,2.5-3.3,2.5c-2.5,0-3-1.5-3-2.4
			C310.5,355.1,311.3,354.3,313.7,353.9z M313.9,356.6c1.4,0,2.3-0.6,2.3-1.6l-2.1,0.3c-0.8,0.1-1.1,0.2-1.1,0.7
			C313,356.5,313.5,356.6,313.9,356.6z"/>
		<path class="st2" d="M324.9,350.4c2.2,0,4.2,1.2,4.3,3.5h-2.6c-0.1-0.7-0.8-1.3-1.8-1.3c-1.2,0-1.9,0.7-1.9,2s0.6,2,1.9,2
			c1,0,1.7-0.5,1.8-1.3h2.6c-0.1,2.3-2.1,3.5-4.3,3.5c-2.6,0-4.4-1.5-4.4-4.2C320.5,352,322.3,350.4,324.9,350.4z"/>
		<path class="st2" d="M334.3,350.4c2.5,0,4.3,1.5,4.3,3.9v0.8h-6.1c0,0.9,0.7,1.6,2.1,1.6c0.9,0,1.6-0.3,1.7-0.9h2.6
			c-0.2,1.2-1.5,3-4.3,3c-3.1,0-4.5-2-4.5-4.3C330,352,331.7,350.4,334.3,350.4z M336.1,353.7c0-0.6-0.5-1.2-1.9-1.2
			s-1.9,0.6-1.9,1.2H336.1z"/>
	</g>
	<g>
		<path class="st2" d="M402.1,246.3c0,3.4-2.2,4-5,4h-1.5v3.4H393v-11.3h4C400,242.3,402.1,242.9,402.1,246.3z M399.6,246.3
			c0-1.6-0.8-1.7-2.3-1.7h-1.6v3.4h1.6C398.8,248,399.6,247.8,399.6,246.3z"/>
		<path class="st2" d="M405.2,242.3l3,10.6h0.6l3-10.6h2.6l-3.3,11.3h-5.3l-3.3-11.3H405.2z"/>
		<path class="st2" d="M424.4,246.3c0,3.4-2.2,4-5,4h-1.5v3.4h-2.6v-11.3h4C422.3,242.3,424.4,242.9,424.4,246.3z M421.9,246.3
			c0-1.6-0.8-1.7-2.3-1.7H418v3.4h1.6C421.1,248,421.9,247.8,421.9,246.3z"/>
	</g>
	<g>
		<path class="st2" d="M717.6,424.4c3.2,0,5.2,1.7,5.6,4.5h-2.6c-0.3-1.5-1.4-2.3-3-2.3c-2,0-3.3,1.2-3.3,3.5s1.3,3.6,3.3,3.6
			c1.5,0,2.7-0.8,3-2.3h2.6c-0.3,2.8-2.4,4.5-5.6,4.5c-3.6,0-5.8-2.5-5.8-5.8C711.8,426.9,714.1,424.4,717.6,424.4z"/>
		<path class="st2" d="M724.7,424.5h4.4c2.7,0,5,0.6,5,3.1c0,1.9-1.5,2.4-2.9,2.5v0.6h1.7c0.9,0,1.4,0.5,1.4,1.4v3.6h-2.6v-4h-4.4v4
			h-2.6L724.7,424.5L724.7,424.5z M729,429.6c1.5,0,2.5,0,2.5-1.4s-0.9-1.4-2.5-1.4h-1.8v2.8H729L729,429.6z"/>
		<path class="st2" d="M743.5,432.2h-4.6l-1,3.6h-2.6l3.3-11.3h5.3l3.3,11.3h-2.6L743.5,432.2z M742.9,430l-1.3-4.8H741l-1.3,4.8
			H742.9z"/>
		<path class="st2" d="M748.2,424.5h8v2.2h-5.5v3.3l5.1-0.3v2.3l-5.1,0.3v3.5h-2.6L748.2,424.5L748.2,424.5z"/>
		<path class="st2" d="M767.3,426.8h-3.7v9H761v-9h-3.7v-2.2h9.9L767.3,426.8L767.3,426.8z"/>
		<path class="st2" d="M773.2,424.5h5l3.4,10.6h0.6l-0.5-1.6v-9h2.6v11.3h-5l-3.4-10.6h-0.6l0.5,1.6v9h-2.6V424.5z"/>
		<path class="st2" d="M786,424.5h8v2.2h-5.5v3.3l5.1-0.3v2.3l-5.1,0.3v3.5H786V424.5z"/>
		<path class="st2" d="M805.1,426.8h-3.7v9h-2.6v-9h-3.7v-2.2h9.9L805.1,426.8L805.1,426.8z"/>
	</g>
	<g>
		<path class="st2" d="M667.3,672.5v11.3h-2.6v-4.4H659v4.4h-2.6v-11.3h2.6v4.7h5.7v-4.7H667.3z"/>
		<path class="st2" d="M672.5,675.5c2.5,0,4.3,1.5,4.3,3.9v0.8h-6.1c0,0.9,0.7,1.6,2.1,1.6c0.9,0,1.6-0.3,1.7-0.9h2.6
			c-0.2,1.2-1.5,3-4.3,3c-3.1,0-4.5-2-4.5-4.3C668.2,677,670,675.5,672.5,675.5z M674.4,678.8c0-0.6-0.5-1.2-1.9-1.2
			s-1.9,0.6-1.9,1.2H674.4z"/>
		<path class="st2" d="M677.7,681.5h2.2v-7.4l-1.9,0.1V672l3.1-0.1c0.9,0,1.4,0.5,1.4,1.3v8.3h2.2v2.2h-7V681.5L677.7,681.5z"/>
		<path class="st2" d="M688.6,675.7v0.5l-0.5,1.4h0.6c0.4-1.1,1.2-2.1,3.2-2.1c2.3,0,3.5,1.9,3.5,4.2s-1.2,4.2-3.5,4.2
			c-2,0-2.8-1-3.2-2.1h-0.6l0.5,1.4v3.5H686v-11.1L688.6,675.7L688.6,675.7z M690.7,681.7c1.4,0,2.2-0.6,2.2-2s-0.8-2-2.2-2
			s-2.1,0.6-2.1,2C688.6,681.1,689.3,681.7,690.7,681.7z"/>
		<path class="st2" d="M708.2,681.5v2.2l-4.2,0.2c-0.9,0-1.4-0.5-1.4-1.4v-4.6h-1.9v-2.2h1.9v-1.5l2.6-0.8v2.3h2.7v2.2h-2.7v3.8
			L708.2,681.5z"/>
		<path class="st2" d="M713.3,675.5c2.5,0,4.5,1.4,4.5,4.2s-2,4.2-4.5,4.2s-4.6-1.4-4.6-4.2C708.8,676.9,710.8,675.5,713.3,675.5z
			 M713.3,681.7c1.2,0,2-0.6,2-2c0-1.3-0.8-2-2-2s-2,0.6-2,2C711.3,681.1,712.1,681.7,713.3,681.7z"/>
		<path class="st2" d="M656.5,691.2h2.6v4.2l-0.5,1.4h0.6c0.4-1.1,1.2-2.1,3.2-2.1c2.3,0,3.5,1.9,3.5,4.2s-1.2,4.2-3.5,4.2
			c-2,0-2.8-1-3.2-2.1h-0.6l0.5,1.4v0.5h-2.6V691.2z M661.2,700.9c1.4,0,2.1-0.6,2.1-2s-0.8-2-2.1-2c-1.4,0-2.2,0.6-2.2,2
			S659.8,700.9,661.2,700.9z"/>
		<path class="st2" d="M671,694.7c2.5,0,4.3,1.5,4.3,3.9v0.8h-6.1c0,0.9,0.7,1.6,2.1,1.6c0.9,0,1.6-0.3,1.7-0.9h2.6
			c-0.2,1.2-1.5,3-4.3,3c-3.1,0-4.5-2-4.5-4.3C666.7,696.3,668.4,694.7,671,694.7z M672.8,698c0-0.6-0.5-1.2-1.9-1.2
			s-1.9,0.6-1.9,1.2H672.8z"/>
		<path class="st2" d="M686.5,694.9v2.2H686c-0.2,0-0.5,0-0.8,0.1c0.1,0.1,0.2,0.5,0.2,0.9c0,1.5-1.4,2.5-3.7,3.2
			c1.8-0.1,3.5,0.4,3.5,2.1c0,2.4-2.8,2.7-8.8,2.7v-2.2c5.2,0,6.2-0.1,6.2-1c0-1.2-2.9-0.7-5.4-0.2l-0.3-1.4c1.8-0.2,3.5-0.4,5-0.7
			V700c-3,1.1-6.1,0.6-6.1-2c0-2.1,2-3.2,4.6-3.2c1.2,0,2.3,0.2,3.2,0.9c0.5-0.6,1.3-0.7,2-0.7L686.5,694.9L686.5,694.9z M682.9,698
			c0-0.7-0.6-1.1-2.2-1.1s-2.2,0.4-2.2,1.1c0,0.7,0.6,1.1,2.2,1.1S682.9,698.7,682.9,698z"/>
		<path class="st2" d="M687.1,700.7h2.3V697l-2,0.1v-2.2l3-0.2c0.9,0,1.4,0.5,1.4,1.3v4.7h2.3v2.2h-7V700.7z M688.9,692.8
			c0-0.8,0.6-1.3,1.5-1.3s1.5,0.5,1.5,1.3s-0.6,1.3-1.5,1.3S688.9,693.6,688.9,692.8z"/>
		<path class="st2" d="M697.7,700v3h-2.6v-8.1h2.6v1l-0.5,1.4h0.6c0.3-1.4,1.3-2.6,3.1-2.6c2.1,0,3.3,1.4,3.3,3.9v4.4h-2.6v-4
			c0-1.5-0.4-2-1.7-2C698.6,697,697.7,697.7,697.7,700z"/>
		<path class="st2" d="M708.2,700v3h-2.6v-8.1h2.6v1l-0.5,1.4h0.6c0.3-1.4,1.3-2.6,3.1-2.6c2.1,0,3.3,1.4,3.3,3.9v4.4h-2.6v-4
			c0-1.5-0.4-2-1.7-2C709.1,697,708.2,697.7,708.2,700z"/>
		<path class="st2" d="M720,694.7c2.5,0,4.3,1.5,4.3,3.9v0.8h-6.1c0,0.9,0.7,1.6,2.1,1.6c0.9,0,1.6-0.3,1.7-0.9h2.6
			c-0.2,1.2-1.5,3-4.3,3c-3.1,0-4.5-2-4.5-4.3C715.7,696.3,717.5,694.7,720,694.7z M721.8,698c0-0.6-0.5-1.2-1.9-1.2
			s-1.9,0.6-1.9,1.2H721.8z"/>
		<path class="st2" d="M725.6,696.1c0-0.9,0.5-1.4,1.4-1.3l5.3,0.1v2.2l-4.1-0.1v5.9h-2.6L725.6,696.1L725.6,696.1z"/>
	</g>
	<g>
		<path class="st2" d="M731.6,184.5c-2.1,2.9-3,6.2-2.5,9.4c0.2,1.6,0.8,3.1,1.7,4.6s2.1,2.9,3.6,4.1c5.5,4.3,11.4,4.5,16,0.3
			l-4.5-3.8c-2.5,2.1-5.7,1.9-8.4-0.3c-3.5-2.8-4.2-6.7-1.1-10.8c3.1-4.1,7.1-4.3,10.7-1.5c2.8,2.3,4,5.3,2.3,8.2l4.5,3.8
			c3.3-5.1,2.1-11.3-3.9-15.9c-1.7-1.3-3.4-2.2-5.1-2.8c-1.7-0.6-3.5-0.6-5.1-0.4C736.7,179.8,733.7,181.6,731.6,184.5z"/>
		<path class="st2" d="M746.7,212.2c1.5,1.2,2.9,2.5,4.3,3.8l5.8-6.5c2.5,2.3,5,4.5,7.5,6.8l-5.9,6.4l4.1,3.9l5.5-5.7
			c1.3-1.4,1.3-2.9-0.2-4.3l-2.7-2.6l1-1c2.5,1.9,5.8,3.5,8.6,0.6c1.9-2,2.1-4.2,1.3-6.4c-0.4-1.1-1.1-2.3-2-3.4
			c-0.9-1.1-2-2.2-3.2-3.3l-3.9-3.5l-1.9-1.7l-2-1.7L746.7,212.2z M760,205.8l4.1-4.6l3.2,2.8c2.7,2.4,4.3,3.9,2.2,6.2
			c-2.1,2.2-3.7,0.8-6.3-1.6L760,205.8z"/>
		<path class="st2" d="M765,229c1.1,1,2.2,2.1,3.2,3.2l3.1,3.2l3.1,3.2c1,1.1,2,2.2,3.1,3.3l3.6-3.3c-2.8-3.1-5.7-6-8.6-8.9l3.5-3.5
			l3.8,3.8c1.3,1.3,2.5,2.5,3.7,3.9l3.6-3.4c-1.2-1.4-2.5-2.6-3.8-3.9l-3.8-3.9l3.5-3.5c3,3.1,6.1,6.1,8.9,9.3l3.6-3.3
			c-1.1-1.2-2.1-2.4-3.3-3.5l-3.3-3.4l-3.3-3.4c-1.1-1.1-2.2-2.3-3.4-3.4L765,229z"/>
		<path class="st2" d="M792.5,258.9l3.6,4.5c4.9-7,9.7-14.2,14.4-21.4l-8.2-9.5c-7.9,3.5-15.7,7.2-23.4,11l3.9,4.3l7.4-3.5l6.8,7.9
			L792.5,258.9z M794.9,242c3.3-1.5,6.6-3,10-4.5l1,1.1c-2,3.1-3.9,6.1-5.9,9.1L794.9,242z"/>
		<path class="st2" d="M827.8,264.4l-1.7-2.4l-1.8-2.4l-3.6-4.7c-2.3-3.2-4.8-6.2-7.3-9.3l-3.8,3.1c1.8,2.3,3.7,4.5,5.4,6.8
			l-15.6,12.1l3.4,4.6l15.8-11.9c1.7,2.3,3.5,4.6,5.1,7L827.8,264.4z"/>
		<path class="st2" d="M809.3,280.8c1.7,2.5,3.5,4.9,5.1,7.4l4.9,7.5l4.1-2.6c-2.3-3.4-4.5-6.9-6.9-10.3l4.1-2.8c2,2.9,4,6,6,8.9
			l4.1-2.7c-2-3-4-6.1-6-9l4.1-2.8c2.5,3.5,4.8,7.2,7.1,10.7l4.1-2.6l-5.3-8c-1.7-2.7-3.7-5.2-5.5-7.9L809.3,280.8z"/>
		<path class="st2" d="M858.6,314.4l-2.8-5.2l-1.4-2.6l-1.5-2.6c-2-3.4-3.9-6.9-5.9-10.2l-4.2,2.5c1.5,2.5,2.9,5,4.3,7.5l-17.2,9.8
			l2.8,5l17.3-9.5l4,7.6L858.6,314.4z"/>
		<path class="st2" d="M847.8,320.4c-3.2,1.7-5.4,4.2-6.4,7.2s-0.9,6.5,0.9,10.1c0.4,0.9,0.9,1.7,1.5,2.4c0.5,0.8,1.1,1.4,1.7,2
			c1.2,1.2,2.6,2,4.1,2.6c3,1.1,6.4,1,9.7-0.5c3.3-1.4,5.7-3.8,6.8-6.9c0.6-1.5,0.8-3.2,0.7-5c-0.1-0.9-0.2-1.8-0.4-2.8
			c-0.3-0.9-0.6-1.9-1.1-2.8c-1.9-3.8-4.6-6.3-7.7-7.4C854.4,318.4,851,318.7,847.8,320.4z M850.5,325.6c4.2-2.1,8-1.2,10.2,3.3
			c0.5,1.1,0.9,2.2,0.9,3.2c0.1,1-0.1,1.9-0.5,2.8c-0.7,1.7-2.3,3-4.4,4c-2.2,1-4.2,1.2-5.9,0.7c-0.9-0.3-1.7-0.7-2.3-1.4
			c-0.7-0.7-1.3-1.5-1.9-2.6C844.6,331.3,846.2,327.8,850.5,325.6z"/>
		<path class="st2" d="M853.2,362.1c1.1,2.8,2.1,5.6,3.1,8.4l1.5,4.2l1.4,4.3l4.6-1.6c-1.3-3.9-2.7-7.8-4.2-11.7l4.7-1.8l1.9,5
			l0.9,2.5l0.8,2.5l4.6-1.6l-0.9-2.6l-0.9-2.5l-1.9-5.1l4.7-1.7c1.5,4,3,8,4.3,12.1l4.6-1.6l-1.5-4.5l-1.7-4.5c-1.1-3-2.2-6-3.3-9
			L853.2,362.1z"/>
		<path class="st2" d="M865.9,400.6l1.5,5.6c7.4-4.4,14.7-8.9,22-13.6c-1.1-4-2.3-8-3.5-12c-8.6,0-17.3,0.1-25.8,0.4l1.8,5.5
			l8.2-0.2l3,10L865.9,400.6z M875.1,386.3c3.6,0,7.3,0,10.9,0l0.4,1.5c-3,2-6.1,4-9.2,5.9L875.1,386.3z"/>
		<path class="st2" d="M868,408.7c0.5,1.8,0.9,3.7,1.3,5.6l8.5-2c0.7,3.3,1.5,6.5,2.2,9.9l-8.5,1.7l1.1,5.6l7.7-1.5
			c1.9-0.4,2.7-1.6,2.3-3.6l-0.7-3.7l1.4-0.3c0.9,3,2.7,6.2,6.7,5.5c2.7-0.5,4.2-2.2,4.8-4.5c0.3-1.2,0.4-2.5,0.3-3.9
			c-0.1-1.4-0.3-3-0.7-4.5l-1.1-5.1c-0.4-1.7-0.8-3.4-1.2-5L868,408.7z M882.5,411.2l6-1.4l0.9,4.1c0.8,3.5,1.3,5.6-1.8,6.3
			c-3,0.6-3.5-1.5-4.2-5L882.5,411.2z"/>
		<path class="st2" d="M873.1,433l0.5,2.8l0.4,2.8l19.5-3.2l3.3-1.7l0.2,1.5c-7.3,3.9-14.5,7.6-21.8,11.2c0.6,3.7,0.9,7.4,1.4,11.2
			l24.5-2.7l-0.7-6l-19.6,2.5l-3.3,1.5l-0.2-1.4c3.7-1.8,7.4-3.5,11.1-5.4c3.6-1.8,7.3-3.7,10.9-5.6l-0.9-5.9l-0.5-3l-0.5-3
			L873.1,433z"/>
	</g>
	<g>
		<path class="st2" d="M371.5,117.2l-2.3,0.7l-2.3,0.8l-4.5,1.6l8.4,23.2l5.3-1.9l-2.4-6.9c1-0.4,2.1-0.7,3.2-1.1
			c6.1-2,10.4-4.6,8.3-11.8C383.1,114.7,377.9,115.1,371.5,117.2z M375.8,128.9c-1.2,0.4-2.4,0.8-3.6,1.2l-2.5-7.1
			c1.2-0.4,2.4-0.8,3.6-1.2c3.4-1.1,5.2-1.3,6.3,1.9C380.7,126.9,379.1,127.8,375.8,128.9z"/>
		<path class="st2" d="M395.7,135.9c4.7-1.6,9.5-2.8,14.2-4.1l-1.2-4.8l-5.9,1.7l-3,0.8c-1,0.3-2,0.6-2.9,0.9l-5.4-19.4l-5.8,1.7
			l6.3,21.2C392.5,135.8,393.8,136.5,395.7,135.9z"/>
		<path class="st2" d="M431.2,127.2l5.6-1c-3.7-7.7-7.6-15.3-11.7-22.9c-2,0.4-4.1,0.7-6.1,1.2l-6.1,1.3c-0.7,8.6-1.3,17.1-1.7,25.7
			c1.9-0.5,3.7-0.8,5.6-1.3l0.5-8.2l5.1-1.1c1.7-0.4,3.4-0.6,5.1-1L431.2,127.2z M417.7,116.8c0.3-3.6,0.6-7.3,0.9-10.9l1.5-0.3
			c1.7,3.2,3.4,6.5,5.1,9.7C422.7,115.7,420.2,116.3,417.7,116.8z"/>
		<path class="st2" d="M448.6,99.5l-2.1,5.4l-2.1,5.5l0.4,3.1l-1.5,0.2l-0.5-3.1c-2.3-3.1-4.7-6.2-7.1-9.3l-3.2,0.5l-3.2,0.6
			c4.2,4.8,8.3,9.9,12.2,15l1.2,7.9l5.6-0.8l-1.1-7.9c2.4-5.9,4.9-11.8,7.6-17.8L448.6,99.5z"/>
		<path class="st2" d="M531,122.2c3,0.3,5.9,0.4,8.9,0.8l8.9,1l0.6-4.9c-4.1-0.4-8.2-1-12.3-1.4l0.5-5c3.5,0.3,7.1,0.8,10.6,1.2
			l0.6-4.9c-3.6-0.4-7.2-0.9-10.7-1.2l0.5-4.9c4.3,0.4,8.5,1,12.7,1.4l0.6-4.9l-9.4-1.1c-3.2-0.4-6.3-0.6-9.5-0.8L531,122.2z"/>
		<path class="st2" d="M571,127.6c1.9,0.4,3.8,0.7,5.6,1.1c-0.7-8.6-1.6-17.1-2.6-25.6l-6.1-1.1c-2-0.4-4.1-0.6-6.2-1
			c-3.8,7.8-7.4,15.5-10.9,23.3l5.7,0.9l3.4-7.5c1.7,0.3,3.4,0.5,5.1,0.8l5.1,0.9L571,127.6z M562.2,113.1c1.6-3.3,3.2-6.6,4.8-9.9
			l1.5,0.3c0.5,3.6,0.9,7.3,1.3,10.9C567.2,113.9,564.7,113.4,562.2,113.1z"/>
		<path class="st2" d="M579.1,129.3l5.5,1.2l1.9-8.5c3.3,0.7,6.5,1.6,9.7,2.4l-2.2,8.4l5.5,1.4l2.1-7.6c0.5-1.9-0.3-3.2-2.2-3.6
			l-3.6-0.9l0.3-1.4c3.1,0.4,6.7,0.2,7.8-3.7c1.5-5.3-3.5-8-9.7-9.6c-3.3-0.8-6.7-1.5-10.1-2.3L579.1,129.3z M587.7,117.2l1.4-6
			c1.4,0.3,2.8,0.6,4.1,0.9c3.4,0.9,5.6,1.4,4.8,4.4s-2.9,2.4-6.3,1.6C590.4,117.8,589,117.5,587.7,117.2z"/>
		<path class="st2" d="M603.1,135.2l5.5,1.6l5.7-18.9l-0.1-3.7l1.5,0.4c0.4,8.1,0.5,16.4,0.5,24.6c3.5,1.1,7.1,2.3,10.6,3.6
			l8.2-23.3c-1.9-0.7-3.8-1.4-5.7-2l-6.3,18.7l-0.1,3.6l-1.4-0.4c0.1-8.1,0-16.3-0.2-24.5l-2.8-0.9l-2.9-0.8l-5.7-1.7L603.1,135.2z"
			/>
	</g>
	<g>
		<path class="st2" d="M110.8,392.7l-1.5,5.7c-0.5,1.9-1,3.8-1.4,5.7l-2.7,11.5l4.8,1l1.9-8.5l19.3,4.5c0.4-1.9,0.8-3.7,1.3-5.6
			l-19.2-4.8l2.2-8.4L110.8,392.7z"/>
		<path class="st2" d="M135.2,396.8c0.5-1.9,1.1-3.6,1.6-5.5l-8.3-2.5c1-3.2,1.9-6.5,3-9.6l8.3,2.7l1.8-5.4l-7.4-2.6
			c-1.8-0.6-3.2,0.1-3.8,2l-1.2,3.6l-1.3-0.4c0.7-3.1,0.7-6.7-3.1-8c-2.6-0.9-4.7-0.2-6.4,1.6c-0.8,0.9-1.6,2-2.2,3.3
			s-1.2,2.7-1.6,4.3c-1,3.3-2.1,6.6-3,10L135.2,396.8z M123.8,387.5l-5.9-1.8l1.2-4.1c0.5-1.7,0.9-3.1,1.6-3.9s1.6-1.1,3.1-0.6
			s2,1.2,2.1,2.3c0.1,1.1-0.3,2.4-0.8,4.1L123.8,387.5z"/>
		<path class="st2" d="M149.7,355l2.2-5.3c-8.5-1-17-1.9-25.6-2.6c-1.7,3.8-3.1,7.8-4.6,11.7c6.8,5.3,13.6,10.4,20.6,15.4l0.9-2.7
			l1-2.7l-6.6-4.9c1.3-3.2,2.4-6.5,3.8-9.7L149.7,355z M133.6,360.8c-2.9-2.2-5.8-4.4-8.7-6.7l0.5-1.4c3.6,0.3,7.2,0.6,10.9,1
			C135.4,356,134.6,358.4,133.6,360.8z"/>
		<path class="st2" d="M134.4,328.4l-4.1,9l22.6,9.9l3.9-8.5c0.7-1.5,1.3-3.1,1.8-4.7c0.4-1.6,0.6-3.2,0.4-4.7
			c-0.4-3.1-2.4-6.1-7.1-8.6c-4.7-2.4-8.3-2.2-11.1-0.5c-1.4,0.8-2.6,2-3.6,3.4C136.1,325.2,135.2,326.8,134.4,328.4z M152.4,336.8
			l-1.5,3.3l-13.5-6.2l1.6-3.4c0.9-2.1,2-4,3.5-4.9c1.6-0.9,3.6-0.9,6.8,0.6c3.2,1.6,4.4,3.2,4.7,5
			C154.1,332.9,153.3,334.8,152.4,336.8z"/>
		<path class="st2" d="M164.3,323.8l4.3-7.9c1.4-2.6,3-5.2,4.5-7.8l-4.2-2.5c-2.1,3.6-4.2,7.1-6.1,10.8l-4.4-2.4
			c0.9-1.6,1.7-3.2,2.6-4.7l2.7-4.6l-4.2-2.5l-2.7,4.7c-0.9,1.6-1.7,3.2-2.6,4.8l-4.4-2.4c2-3.8,4.2-7.5,6.4-11.2l-4.2-2.5
			c-1.6,2.8-3.2,5.5-4.8,8.3l-4.5,8.4L164.3,323.8z"/>
		<path class="st2" d="M171.9,264.6l-3.4,4.8l-3.3,4.9c-2.2,3.3-4.4,6.5-6.5,9.9l4.1,2.6l2.3-3.7l2.4-3.6l16.5,11l3.2-4.7
			l-16.3-11.2c1.6-2.4,3.3-4.7,5-7.1L171.9,264.6z"/>
		<path class="st2" d="M182.2,271.5c2.9,2.1,6.2,3,9.4,2.5c3.1-0.5,6.2-2.2,8.6-5.4c1.2-1.6,2-3.2,2.5-4.9c0.5-1.6,0.7-3.2,0.5-4.8
			c-0.4-3.1-2-6.1-4.8-8.4c-2.8-2.3-6-3.3-9.3-3c-1.6,0.2-3.3,0.7-4.8,1.6c-1.5,0.9-3,2.2-4.3,3.9c-2.6,3.4-3.6,6.9-3.1,10.2
			C177.4,266.6,179.3,269.4,182.2,271.5z M185.6,266.8c-3.8-2.8-4.7-6.6-1.7-10.6c1.5-2,3.3-3,5.1-3.1s3.7,0.6,5.6,2.1
			c1.9,1.5,3,3.2,3.3,5s-0.2,3.7-1.6,5.6C193.4,269.5,189.4,269.6,185.6,266.8z"/>
		<path class="st2" d="M217,247.9c1.9-2.3,4-4.4,6.1-6.6l3.1-3.3l1.5-1.6l1.6-1.6l-3.5-3.4c-1.5,1.4-2.9,3-4.3,4.5l-4.3,4.5
			l-3.7-3.4l7.4-7.8l-3.5-3.4l-7.4,7.9l-3.7-3.4l4.4-4.7c1.5-1.6,2.9-3.1,4.5-4.6l-3.5-3.4l-1.7,1.7l-1.6,1.7l-3.3,3.5
			c-2.2,2.3-4.4,4.6-6.5,7.1L217,247.9z"/>
		<path class="st2" d="M245.6,219l4.4-3.8c-7.2-4.6-14.6-9.1-22.1-13.4l-9.1,8.6c3.9,7.7,7.9,15.3,12.1,22.8l4.1-4.1l-3.9-7.3
			l7.6-7.1C240.9,216.2,243.2,217.6,245.6,219z M228.6,217.4c-1.7-3.2-3.3-6.5-4.9-9.7l1.1-1c3.2,1.8,6.3,3.7,9.4,5.5L228.6,217.4z"
			/>
		<path class="st2" d="M251.8,213.6c1.4-1.3,2.9-2.5,4.3-3.7l-5.6-6.6l7.8-6.4l5.4,6.8l4.5-3.5l-4.8-6.2c-1.2-1.5-2.7-1.7-4.3-0.4
			c-1,0.8-2,1.5-3,2.3l-0.9-1.1c2.2-2.2,4.3-5.2,1.8-8.4c-3.4-4.4-8.7-2.1-13.6,2c-2.7,2.2-5.4,4.4-7.9,6.7L251.8,213.6z
			 M247.4,199.4l-4-4.7l3.3-2.7c2.8-2.3,4.5-3.7,6.4-1.2c1.9,2.4,0.2,3.8-2.5,6L247.4,199.4z"/>
		<path class="st2" d="M271.1,197.9l2.3-1.8l2.3-1.7L264,178.5l-3-2.1l1.2-0.9c6.8,4.7,13.4,9.4,19.9,14.3c3.1-2.2,6.2-4.2,9.3-6.3
			l-13.6-20.6l-5,3.4l11.1,16.3l2.9,2.3l-1.2,0.8c-3.2-2.5-6.5-5-9.8-7.4s-6.6-4.8-10-7.2l-4.9,3.5l-2.4,1.8l-2.4,1.8L271.1,197.9z"
			/>
	</g>
	<g>
		<path class="st2" d="M757.1,780.5l7,7.5l-9.7,8.7l-6.7-7.7l-4.4,3.7l15.9,18.9l4.7-3.9l-6.3-7.2l9.8-8.8l6.5,7l4.4-4.2l-17.1-17.8
			L757.1,780.5z"/>
		<path class="st2" d="M781,791.8c2.3-2.2,4.5-4.5,6.8-6.8c2.2-2.3,4.5-4.5,6.6-6.9l-3.6-3.3l-2.2,2.4l-2.3,2.3l-4.5,4.6l-3.5-3.5
			c2.5-2.6,5.1-5.2,7.6-7.8l-3.6-3.4c-2.5,2.6-5,5.1-7.5,7.7l-3.5-3.5l4.3-4.4l2.2-2.2l2.1-2.3l-3.6-3.3c-2,2.2-4.1,4.3-6.2,6.5
			c-2.1,2.1-4.2,4.3-6.3,6.3L781,791.8z"/>
		<path class="st2" d="M799.1,773.4c0.9-1,1.8-2,2.6-3l2.5-3.1l5-6.1l-3.8-3.1l-8.1,10l-15-13.4l-3.9,4.2l16.3,14.9
			C796.2,775.1,797.7,775,799.1,773.4z"/>
		<path class="st2" d="M797.8,736.2l-5.7,7l19.1,15.7l3.8-4.7l-5.8-4.6l2.2-2.7c4-5.3,6.1-10.1,0.1-14.5
			C805.5,728,801.7,731.1,797.8,736.2z M807.8,743.5l-2.4,3l-5.9-4.7l2.3-2.9c2.1-2.7,3.4-3.9,6.1-1.9
			C810.7,739.1,809.9,740.8,807.8,743.5z"/>
		<path class="st2" d="M823.8,698.5c-3.8,6.3-7.8,12.5-12,18.6l4,2.8c1.6-2.3,3.1-4.6,4.6-6.9l16.5,10.8l3.3-5.1l-16.7-10.6l4.3-7.1
			L823.8,698.5z"/>
		<path class="st2" d="M834.5,704.5c3.1,1.9,6.5,2.4,9.6,1.6c3.1-0.9,6-3.2,8.1-6.9c0.5-0.9,1-1.8,1.3-2.8c0.3-0.9,0.5-1.8,0.6-2.7
			c0.2-1.8,0.1-3.5-0.4-5c-0.9-3.1-3.2-5.7-6.4-7.3s-6.6-2-9.6-1.1c-1.5,0.5-3,1.2-4.3,2.3c-0.7,0.5-1.2,1.2-1.8,1.9
			s-1.1,1.5-1.6,2.3c-2,3.5-2.4,6.9-1.5,10C829.4,700,831.5,702.7,834.5,704.5z M837.5,699.5c-4.1-2.4-5.5-6-3.2-10.2
			c0.6-1,1.3-1.9,2-2.5s1.5-1,2.4-1.3c1.8-0.4,3.8,0,5.8,1.1c2.1,1.1,3.5,2.6,4.2,4.3c0.3,0.9,0.4,1.8,0.3,2.8c-0.1,1-0.5,2-1.1,3.1
			C845.5,701.2,841.6,701.9,837.5,699.5z"/>
		<path class="st2" d="M865,673.8c1.4-2.9,2.6-5.8,3.9-8.7l1.9-4.4l1.8-4.4l-4.5-1.9c-1.6,4-3.3,7.9-5.1,11.8l-4.6-2l2.2-5l1.1-2.5
			l1-2.5l-4.5-1.9l-1,2.5l-1.1,2.5l-2.2,4.9l-4.5-2c1.7-3.8,3.4-7.5,4.9-11.4l-4.5-1.9l-1.7,4.2l-1.8,4.1c-1.2,2.7-2.4,5.5-3.7,8.2
			L865,673.8z"/>
		<path class="st2" d="M881.1,633.7l1.9-5.8c-8.6-0.1-17.2-0.3-25.8-0.7c-1.3,3.7-2.7,7.4-4,11c6.9,5.2,13.5,10.5,20.2,16l2.3-5.7
			l-6.6-5.1l3.7-10L881.1,633.7z M865.1,640.3c-2.9-2.2-5.8-4.4-8.8-6.5l0.5-1.3c3.6,0.3,7.3,0.5,10.9,0.7L865.1,640.3z"/>
		<path class="st2" d="M883.9,625.3c0.7-1.9,1.2-3.9,1.8-5.8l-8.3-2.5c1-3.3,2-6.5,2.9-9.8l8.4,2.3l1.5-5.9l-7.6-2
			c-1.9-0.5-3.2,0.3-3.7,2.3l-1,3.7l-1.3-0.4c0.5-3.1,0.2-6.8-3.7-7.8c-2.7-0.7-4.7,0.2-6.2,1.9c-0.8,0.9-1.4,2-1.9,3.2
			c-0.6,1.2-1.1,2.6-1.5,4l-1.4,4.7c-0.5,1.6-0.9,3.1-1.4,4.7L883.9,625.3z M872.7,615.6l-5.9-1.8l1.2-3.9c1-3.3,1.6-5.3,4.5-4.5
			c3,0.8,2.4,2.9,1.4,6.3L872.7,615.6z"/>
		<path class="st2" d="M891.1,599.9c0.5-2,1-3.9,1.4-5.9l-19.3-4.5l-3.6,0.3l0.3-1.4c8.1-0.7,16.3-1.6,24.5-2.7
			c0.8-3.9,1.5-7.8,2.3-11.8l-24.3-4.3l-1.1,5.6l19.4,3.8l3.7-0.5L894,580c-4.1,0.6-8.1,1.1-12.2,1.6c-4.1,0.5-8.2,1-12.2,1.4
			l-1.2,5.5c-0.4,1.8-0.8,3.7-1.3,5.5L891.1,599.9z"/>
	</g>
	<g>
		<path class="st2" d="M362.6,858.6l1.8-4.6l-7.9-3.1c-2.6-1-5.2-2.2-7.8-3.3l-2,4.5l5.3,2.3l-5.7,13.7l-5.5-2.4l-2,4.5
			c2.8,1.2,5.5,2.5,8.4,3.5l8.4,3.3l1.8-4.6l-5.5-2.2l5.5-13.8L362.6,858.6z"/>
		<path class="st2" d="M358.7,878.3l5.7,2l6.6-18.6l0.2-3.7l1.3,0.5c-0.2,8.2-0.3,16.4-0.2,24.6c3.8,1.2,7.5,2.5,11.4,3.6l7.1-23.6
			c-1.8-0.5-3.6-1.1-5.4-1.7l-6,18.8v3.7l-1.4-0.5c-0.2-8.2-0.2-16.4-0.1-24.5l-10.5-3.8L358.7,878.3z"/>
		<path class="st2" d="M393.6,863.9c0,8.6,0.1,17.2,0.5,25.8l12.1,3.1c4.4-7.4,8.7-14.9,12.8-22.4l-5.6-1.2c-3.9,7-8,14-12.1,21
			l-1.5-0.4c-0.3-8.1-0.5-16.1-0.6-24.2L393.6,863.9z"/>
		<path class="st2" d="M415.9,894.9c1.5,0.3,3.1,0.7,4.6,1l4.7,0.9c3.1,0.5,6.2,1.2,9.4,1.7l0.8-4.8c-4.2-0.7-8.4-1.5-12.6-2.3
			l1-4.9l10.6,2l0.8-4.8l-10.5-1.9l1-4.9c4,0.7,8.1,1.5,12.1,2.2l0.8-4.8c-2.9-0.4-5.9-1-8.8-1.6l-4.4-0.8c-1.5-0.3-2.9-0.6-4.4-0.9
			L415.9,894.9z"/>
		<path class="st2" d="M461.5,895.1c0.5-5-6.6-7.9-11-10c-2-0.9-3.1-1.5-3.7-2s-0.7-0.9-0.6-1.5c0.2-1.3,1.8-1.5,4.4-1.2
			c3.1,0.4,5.4,1.5,5,4.5l5.8,0.7c0.5-4.9-2.6-9.1-10.2-10c-6.4-0.8-10.1,0.9-10.7,5c-0.8,4.8,3.4,6.9,8.6,9.3
			c3.6,1.7,6.7,2.8,6.5,4.6c-0.1,1.3-1.5,2-5.3,1.6c-1.3-0.2-2.4-0.3-3.3-0.6s-1.6-0.7-2.1-1.1c-1-0.9-1.4-2.2-1.1-4.1l-5.8-0.9
			c-0.5,3.1,0,5.7,1.8,7.6c0.9,1,2.1,1.8,3.8,2.5c0.8,0.3,1.7,0.6,2.7,0.9c1,0.2,2.1,0.4,3.3,0.5C457.6,901.9,461,899.3,461.5,895.1
			z"/>
		<path class="st2" d="M484.8,878.7c-3.7-0.2-7.3-0.3-11-0.6l-11-0.9l-0.5,4.9l8.3,0.7l-1.5,19.7c2,0.2,4,0.3,6,0.4l1.2-19.7
			l8.3,0.4L484.8,878.7z"/>
		<path class="st2" d="M518.9,878.5l-5.5,0.3c-1.8,0.1-3.7,0.1-5.5,0.1c-3.7,0-7.4,0.2-11,0.1v4.9c2.8,0.1,5.5,0,8.3,0l0.3,19.8
			l6-0.1l-0.5-19.8c2.8,0,5.5-0.2,8.3-0.3L518.9,878.5z"/>
		<path class="st2" d="M519.9,890.8c0.2,3.6,1.6,6.7,4,8.9c2.5,2.2,6,3.3,10.2,2.9c4.2-0.3,7.5-2,9.5-4.6c2.1-2.5,2.9-5.8,2.5-9.4
			c-0.4-3.6-2-6.6-4.5-8.6c-2.4-2-5.7-3.1-9.7-2.8s-7,2-9.1,4.3C520.8,884,519.7,887.3,519.9,890.8z M525.7,890.5
			c-0.3-4.7,1.9-7.9,6.7-8.3c4.8-0.4,7.4,2.4,7.9,7.1c0.5,4.8-1.7,8-6.6,8.4C528.7,898.2,526,895.3,525.7,890.5z"/>
		<path class="st2" d="M562.2,898.9l4.7-0.7c1.6-0.3,3.1-0.6,4.7-0.8l9.3-1.8l-1-4.8l-12.6,2.3l-0.8-4.9l10.6-2l-1-4.8l-10.5,1.9
			l-0.8-4.9l12.1-2.3l-1-4.8l-8.8,1.6c-1.5,0.3-2.9,0.6-4.4,0.8l-4.4,0.7L562.2,898.9z"/>
		<path class="st2" d="M604.2,890.1c2-0.5,3.9-1.1,5.9-1.6c-2.3-3.6-4.7-7.2-7-10.8s-4.5-7.3-6.8-11l-5.7,1.4l-2.8,0.7
			c-1,0.2-1.9,0.4-2.9,0.6c-0.5,8.5-1.2,17.1-2,25.7l6-1.3l0.5-8.2c1.7-0.3,3.4-0.8,5.2-1.2l5.1-1.3L604.2,890.1z M589.9,880.5
			c0.2-3.6,0.4-7.3,0.5-10.9l1.4-0.3c1.8,3.1,3.6,6.3,5.5,9.4L589.9,880.5z"/>
		<path class="st2" d="M612.7,887.8l5.8-1.7l-2.5-8.3l9.7-3.2l2.8,8.2l2.9-0.9l2.8-1l-2.6-7.4c-0.6-1.8-2-2.4-3.9-1.7l-3.6,1.2
			l-0.4-1.3c1.4-0.7,2.9-1.5,3.8-2.7c0.9-1.2,1.3-2.7,0.6-4.6c-0.9-2.6-2.7-3.8-5-4.1s-5,0.2-7.9,1.1c-1.5,0.5-3.1,1-4.6,1.5
			l-4.7,1.3L612.7,887.8z M614.5,873.1l-1.8-5.9l3.9-1.3c3.3-1.1,5.3-1.7,6.3,1.2s-1.1,3.6-4.4,4.7L614.5,873.1z"/>
		<path class="st2" d="M637.7,879.6l5.7-2.1l-7-18.5l-2.3-2.9c0.5-0.2,0.9-0.3,1.3-0.5c5.1,6.3,10.4,12.6,15.8,18.8
			c3.7-1.4,7.3-3,11-4.6l-9.9-22.6l-5.2,2.3l7.7,18.2l2.4,2.8l-1.4,0.6c-5.5-6.1-10.8-12.4-16-18.6l-5.2,2.1l-5.3,1.9L637.7,879.6z"
			/>
	</g>
	<g>
		<path class="st2" d="M97.1,473.2l-0.6,9.5l-0.3,9.5l4.9,0.1l0.2-6.4l0.1-3.2l0.2-3.2l5,0.3c-0.3,3.6-0.3,7.2-0.4,10.8l4.9,0.1
			c0.1-3.5,0.1-7.1,0.4-10.7l5,0.3l-0.2,3.1l-0.1,3.1l-0.2,6.2l4.9,0.1l0.3-8.9l0.5-8.9L97.1,473.2z"/>
		<path class="st2" d="M120.9,494.8c-8.3,2.3-16.5,4.7-24.7,7.3v6.2l0.2,6.2c8.3,2.3,16.6,4.4,25,6.3c-0.2-1.9-0.2-3.8-0.2-5.7
			c-7.8-1.9-15.7-3.9-23.5-6.1c0-0.5,0-1,0-1.5c7.8-2.5,15.5-4.8,23.3-7C120.9,498.6,120.9,496.7,120.9,494.8z"/>
		<path class="st2" d="M109.1,521.6c-3.6,0.2-6.7,1.6-8.8,4.1c-1.1,1.2-1.9,2.7-2.4,4.4s-0.8,3.7-0.5,5.8c0.4,4.2,2.1,7.4,4.6,9.5
			c2.5,2,5.9,2.9,9.4,2.5c3.6-0.4,6.5-2,8.5-4.5s3.1-5.8,2.7-9.7c-0.2-2-0.7-3.7-1.4-5.3c-0.7-1.5-1.7-2.8-2.9-3.8
			C116,522.5,112.7,521.4,109.1,521.6z M109.5,527.5c2.4-0.2,4.3,0.3,5.8,1.4c1.4,1.1,2.3,2.8,2.5,5.2c0.5,4.7-2.3,7.4-7,7.9
			s-8-1.6-8.5-6.6c-0.3-2.5,0.4-4.4,1.7-5.7C105.3,528.4,107.2,527.6,109.5,527.5z"/>
		<path class="st2" d="M99.8,556l0.6,3.9l0.7,3.9l1.5,7.8l4.8-0.9c-0.8-4.2-1.7-8.4-2.4-12.6l19.9-2.9l-0.8-5.6l-21.9,2.9
			C100.3,552.6,99.4,553.9,99.8,556z"/>
		<path class="st2" d="M111.8,571.3c-6.1,1.1-8.6,5.8-7,13.5c1.8,7.7,6,11,12,9.5l15.1-3.7l-1.3-5.5l-12.7,2.9c-4.3,1-7,1.2-8.3-4.2
			c-1.1-5.4,1.5-6.3,5.8-7.2l12.8-2.5l-1.1-5.6L111.8,571.3z"/>
		<path class="st2" d="M138.5,614.2l-3.2-10.5l-2.9-10.6l-4.8,1.2l2.2,8l-19.1,5.3c0.5,2,1,3.9,1.7,5.8l19-5.6l2.4,7.9L138.5,614.2z
			"/>
		<path class="st2" d="M140.5,634.7l4.6-1.7c-2.1-5.3-3.8-10.7-5.7-16.1l-4.7,1.5l1.9,5.4l-14.1,4.8l-1.9-5.7l-4.7,1.5
			c2,5.7,3.8,11.5,6,17.1l4.6-1.7l-2.1-5.6l14-5L140.5,634.7z"/>
		<path class="st2" d="M133.9,638.3c-3.4,1.3-5.9,3.6-7.2,6.6c-1.3,3-1.3,6.7,0.3,10.6c0.8,2,1.9,3.6,3.1,4.8
			c1.2,1.3,2.7,2.2,4.2,2.8c3,1.2,6.4,1,9.7-0.5s5.6-3.9,6.8-6.9c0.6-1.5,0.8-3.1,0.8-4.8s-0.4-3.5-1.2-5.3
			c-1.5-3.7-4.1-6.1-6.9-7.3C140.7,637.1,137.3,637.1,133.9,638.3z M136,643.8c4.4-1.7,8.1-0.6,10,3.8c1.8,4.4,0,7.8-4.3,9.7
			c-4.4,1.9-8.1,0.9-10-3.7C129.7,649,131.5,645.6,136,643.8z"/>
		<path class="st2" d="M134.2,670.9l1.3,2.8l1.3,2.7l17.8-8.6l2.7-2.5l0.6,1.3c-5.9,5.7-11.6,11.5-17.4,17.4
			c0.9,1.8,1.8,3.5,2.8,5.3l2.8,5.2l21.6-11.9l-2.7-5l-17.5,9.3l-2.6,2.6l-0.7-1.3c5.6-6,11.3-11.8,17.1-17.6l-2.5-5l-1.2-2.5
			l-1.2-2.5L134.2,670.9z"/>
		<path class="st2" d="M186.1,712.5L183,708c-1-1.5-2-3.1-2.9-4.7c-1.9-3.1-4-6.2-5.8-9.4l-4.2,2.5c0.7,1.2,1.4,2.4,2.1,3.6l2.2,3.5
			L157.6,714l3.2,5.1l16.6-10.7c1.4,2.4,3.1,4.6,4.6,6.9L186.1,712.5z"/>
		<path class="st2" d="M176.1,719.7c-3,2-4.9,4.8-5.5,8.1c-0.6,3.2,0.3,6.8,2.8,10.2c1.2,1.7,2.6,3,4.1,4s3.1,1.5,4.7,1.8
			c3.2,0.5,6.5-0.5,9.4-2.7c2.8-2.2,4.6-5.1,5-8.3c0.2-1.6,0.1-3.2-0.3-4.8c-0.4-1.7-1.2-3.3-2.4-4.9c-2.3-3.2-5.3-5-8.4-5.6
			C182.4,717,179.1,717.7,176.1,719.7z M179.4,724.6c3.9-2.7,7.8-2.5,10.6,1.4c1.4,1.9,1.8,3.8,1.5,5.6c-0.4,1.8-1.5,3.4-3.4,4.8
			c-1.9,1.4-3.8,2.1-5.6,2s-3.5-1.2-5-3.3C174.4,731.1,175.4,727.3,179.4,724.6z"/>
		<path class="st2" d="M191.1,760.1c1,1.2,2,2.5,3.1,3.7l3.2,3.6c2.1,2.3,4.2,4.8,6.4,7.1l3.6-3.3c-2.9-3.1-5.7-6.4-8.5-9.5l3.8-3.3
			l7.2,8.1l3.6-3.3l-7.1-8l3.8-3.3c2.8,3.1,5.4,6.2,8.2,9.2l3.6-3.3c-2.1-2.2-4-4.4-6-6.6l-3-3.3c-1-1.1-1.9-2.3-2.9-3.4
			L191.1,760.1z"/>
		<path class="st2" d="M220.5,791.5c1.5,1.4,3,2.8,4.5,4.2c3.7-7.8,7.5-15.4,11.5-23c-2.8-2.8-5.6-5.5-8.3-8.3
			c-7.6,4-15.2,7.9-23,11.6l4.2,4.4l7.3-3.8c2.5,2.5,5,5,7.5,7.5L220.5,791.5z M221.3,774.2c3.2-1.7,6.4-3.5,9.6-5.2l1,1
			c-1.8,3.2-3.5,6.4-5.2,9.6L221.3,774.2z"/>
		<path class="st2" d="M226.9,797.4c1.5,1.4,2.9,2.8,4.5,4.1l5.8-6.5l7.7,6.7l-5.6,6.6c1.5,1.3,3.1,2.6,4.7,3.8l5-6.1
			c1.2-1.5,1-3-0.5-4.3c-1-0.8-1.9-1.6-2.9-2.4l0.9-1.1c1.3,0.9,2.8,1.7,4.3,1.8c1.5,0.2,3-0.3,4.3-1.9c1.7-2.1,1.8-4.3,0.9-6.4
			c-0.9-2.1-2.8-4.2-5-6.2l-3.7-3.2c-1.2-1.1-2.4-2.2-3.6-3.3L226.9,797.4z M240.4,791.4l4.1-4.6l3.1,2.7c2.6,2.2,4.2,3.6,2.2,6
			c-2,2.3-3.6,0.9-6.2-1.3L240.4,791.4z"/>
		<path class="st2" d="M246.9,814.6c1.6,1.3,3.1,2.6,4.7,3.8l12.2-15.6l1.3-3.4l1.1,0.9c-2.8,7.7-5.4,15.4-7.9,23.3
			c1.6,1.2,3.2,2.4,4.8,3.5l4.9,3.5l14.2-20.2l-4.6-3.3l-11.6,16l-1.1,3.5l-1.2-0.9c2.4-7.8,4.9-15.6,7.6-23.3c-3-2.3-6-4.5-8.8-6.9
			L246.9,814.6z"/>
	</g>
</g>
<g>
	<path class="st5" d="M499.6,108.1l5.7,1.3c-0.3,1.1-0.6,1.9-0.9,2.5s-0.7,1.4-1.2,2.3l2.8,1.9c0.3,0.2,0.8,0.5,1.3,0.8l-4,4.6
		c-0.7-0.4-1.5-0.8-2.2-1.3c-0.8-0.5-1.5-0.9-2.1-1.3c-1.3,0.8-2.6,1.5-3.8,1.8c-1.8,0.5-3.8,0.8-6,0.8c-3.5,0-6.2-0.7-7.9-2.2
		c-1.7-1.5-2.6-3.3-2.6-5.3c0-1.5,0.5-2.9,1.5-4.3c1-1.3,2.7-2.5,5-3.4c-1-1.2-1.6-2.2-2-3c-0.4-0.9-0.5-1.7-0.5-2.6
		c0-1.9,0.7-3.4,2.1-4.6s3.6-1.8,6.5-1.8c3,0,5.2,0.6,6.6,1.7c1.4,1.2,2.1,2.5,2.1,4.2c0,0.9-0.2,1.8-0.6,2.6
		c-0.4,0.8-0.9,1.5-1.5,2s-1.7,1.3-3.2,2.3c1.3,1.3,2.6,2.5,4,3.6C499,109.7,499.3,108.9,499.6,108.1z M488.5,109.9
		c-1,0.7-1.7,1.3-2,1.8s-0.5,1-0.5,1.6c0,0.9,0.4,1.7,1.1,2.3s1.7,1,3,1s2.8-0.5,4.4-1.5C493,114,491,112.2,488.5,109.9z
		 M491.2,103.5c1-0.5,1.7-1.1,2.2-1.7s0.8-1.2,0.8-1.7c0-0.6-0.2-1-0.7-1.4c-0.4-0.4-1-0.6-1.8-0.6c-0.7,0-1.4,0.2-1.8,0.7
		s-0.7,0.9-0.7,1.5C489.2,101,489.8,102.1,491.2,103.5z"/>
</g>
</svg>
