<svg width="200" height="200" viewBox="0 0 200 200" fill="none" xmlns="http://www.w3.org/2000/svg">
<path d="M100 200C155.228 200 200 155.228 200 100C200 44.7715 155.228 0 100 0C44.7715 0 0 44.7715 0 100C0 155.228 44.7715 200 100 200Z" fill="#006D8F"/>
<g filter="url(#filter0_i_960_1459)">
<path fill-rule="evenodd" clip-rule="evenodd" d="M68.494 132.396C69.322 133.474 70.618 135.568 70.398 137.794C70.314 138.692 69.776 139.56 68.998 140.052C67.91 140.742 67.466 140.822 66.184 140.822C65.51 140.822 64.996 140.532 64.758 140.282C64.718 140.238 64.688 140.198 64.662 140.168C65.576 139.918 66.274 139.404 66.672 138.706C67.062 138.028 67.146 137.24 66.912 136.466C66.608 135.434 66.02 134.79 65.39 134.102C65.246 133.948 65.096 133.788 64.946 133.614C62.698 131.01 60.468 127.752 58.626 124.366C60.478 125.856 62.548 126.62 64.808 127.138H64.812C65.002 127.462 65.202 127.778 65.396 128.092C64.956 128.724 64.482 129.484 64.124 129.808C64.698 129.464 65.296 129.164 65.904 128.884C66.688 130.066 67.52 131.208 68.414 132.292L68.464 132.356C68.474 132.372 68.484 132.386 68.494 132.396Z" fill="white"/>
<path fill-rule="evenodd" clip-rule="evenodd" d="M68.7441 106.206C68.5841 106.836 68.5041 108.192 68.5041 110.268C68.5041 111.914 68.5441 113.136 68.6241 113.938C68.6981 114.726 68.8281 115.276 69.0281 115.56C69.2221 115.848 69.5061 115.988 69.8861 115.988C70.7941 115.988 71.2521 115.14 71.2721 113.45H70.2001V111.13H75.1021C75.1021 112.552 74.9981 113.7 74.8041 114.562C74.6001 115.424 74.2641 116.164 73.8001 116.782C73.3381 117.4 72.7781 117.854 72.1201 118.148C71.4561 118.448 70.7141 118.592 69.8701 118.592C68.1501 118.592 66.7921 117.914 65.8001 116.548C64.8021 115.18 64.3081 113.23 64.3081 110.702C64.3081 108.152 64.7121 106.168 65.5161 104.76C66.3181 103.348 67.4521 102.65 68.9021 102.65C69.8861 102.65 70.7241 103.104 71.4121 104.022H71.4561V102.864H74.0261V108.148H71.4561C71.4321 107.18 71.2821 106.456 70.9921 105.972C70.7081 105.494 70.3241 105.254 69.8501 105.254C69.2661 105.254 68.9021 105.568 68.7441 106.206Z" fill="white"/>
<path fill-rule="evenodd" clip-rule="evenodd" d="M81.9858 69.5944C80.8698 69.4348 79.6478 69.2002 78.9598 68.3424C78.7138 68.033 78.5398 67.5842 78.4458 67.0952C78.4758 66.5666 78.5598 65.988 78.4958 65.4492C78.6038 65.4942 78.7198 65.534 78.8438 65.564C80.0118 65.968 81.3638 66.367 82.5258 66.7212C82.5298 67.5142 82.4798 68.3124 82.4498 68.9558C82.3598 69.1754 82.2718 69.3948 82.1958 69.6192C82.1258 69.6142 82.0518 69.6044 81.9858 69.5944Z" fill="white"/>
<path fill-rule="evenodd" clip-rule="evenodd" d="M81.9601 105.184V116.058H83.6121V118.378H76.5781V116.058H78.1341V105.184H76.5781V102.866H83.6121V105.184H81.9601Z" fill="white"/>
<path fill-rule="evenodd" clip-rule="evenodd" d="M81.7621 59.6486C81.3641 59.504 80.9501 59.3842 80.5361 59.3792C80.8041 59.1648 81.0741 58.9352 81.3681 58.7558C81.8181 58.4764 82.3161 58.3018 82.8341 58.207C82.9501 58.217 83.0641 58.227 83.1741 58.242L82.8741 58.197C83.4041 58.1022 83.9521 58.0874 84.4861 58.1122C85.3341 58.1522 86.1621 58.2968 87.0001 58.4066C87.0041 58.4066 87.0041 58.4066 87.0041 58.4066C88.4121 58.7806 89.2441 59.2694 90.4621 60.0376C91.4501 60.6562 92.3081 61.539 92.7261 62.5866C92.7761 62.9558 92.7861 63.3298 92.7221 63.699C92.6021 64.3724 92.1921 65.0556 91.5141 65.2452C90.9561 65.3998 90.3461 65.1754 89.8921 64.8262C89.4441 64.477 89.1101 64.0132 88.7501 63.5742C87.5081 62.0828 85.8281 60.9406 83.9661 60.2622C83.3081 60.0178 82.6261 59.8382 81.9321 59.7184C81.8721 59.6934 81.8181 59.6686 81.7621 59.6486Z" fill="white"/>
<path fill-rule="evenodd" clip-rule="evenodd" d="M95.7982 116.058L94.5602 110.536C95.1242 110.128 95.5342 109.678 95.7782 109.206C96.0182 108.726 96.1422 108.128 96.1422 107.42C96.1422 106.108 95.7081 105.016 94.8401 104.158C93.9781 103.3 92.8042 102.866 91.3282 102.866H85.3481V105.184H86.3301V116.058H85.3481V118.378H91.1442V116.058H90.1562V111.574H91.4142L92.9402 118.378H96.4622V116.058H95.7982ZM91.9362 108.822C91.6882 109.166 91.0942 109.34 90.1562 109.34V105.08C91.1242 105.08 91.7221 105.254 91.9561 105.608C92.1961 105.968 92.3162 106.476 92.3162 107.14C92.3162 107.918 92.1862 108.476 91.9362 108.822Z" fill="white"/>
<path fill-rule="evenodd" clip-rule="evenodd" d="M84.5459 56.4416C83.5219 56.5464 82.5799 56.9454 81.7959 57.3794C82.9439 56.1424 84.2599 55.05 85.7019 54.1472C86.9639 53.354 88.8999 53.0198 90.4019 53.1446C91.3599 53.2344 91.7679 53.3042 92.6419 53.7082C93.1599 53.9426 94.9399 55.1448 95.2999 55.6686C95.6239 56.1374 96.5619 57.0302 96.5359 58.2024C96.5119 59.275 96.0279 59.8536 95.2139 60.4072C95.2099 60.4072 95.2039 60.4072 95.1999 60.4122C95.0959 60.4272 94.9799 60.4322 94.8699 60.4222C94.1779 60.3524 93.6139 59.8834 93.0739 59.4594C91.0639 57.8882 88.6759 56.696 86.1059 56.3818C85.5819 56.317 85.0439 56.292 84.5459 56.4416Z" fill="white"/>
<path fill-rule="evenodd" clip-rule="evenodd" d="M109.232 116.058L107.4 105.184H108.472V102.866H99.5839V105.184H100.606L98.8899 116.058H97.8179V118.378H103.34V116.058H102.352L102.726 113.166H105.36L105.75 116.058H104.742V118.378H110.238V116.058H109.232ZM102.976 111.24L103.8 104.79H104.238L105.082 111.24H102.976Z" fill="white"/>
<path fill-rule="evenodd" clip-rule="evenodd" d="M109.61 53.1446C111.11 53.0198 113.046 53.354 114.304 54.1472C115.744 55.05 117.062 56.1424 118.214 57.3794C117.426 56.9454 116.488 56.5464 115.47 56.4416C114.966 56.292 114.428 56.317 113.91 56.3818C111.336 56.696 108.946 57.8882 106.936 59.4594C106.398 59.8834 105.834 60.3524 105.14 60.4222C105.03 60.4322 104.92 60.4272 104.81 60.4122C104.806 60.4072 104.802 60.4072 104.796 60.4072C103.982 59.8536 103.31 59.265 103.474 58.2024C103.558 57.6438 103.898 56.5116 104.248 56.0676C106.596 53.1196 108.646 53.2344 109.61 53.1446Z" fill="white"/>
<path fill-rule="evenodd" clip-rule="evenodd" d="M117.172 58.207C117.696 58.3018 118.194 58.4764 118.644 58.7558C118.938 58.9352 119.208 59.1648 119.482 59.3792C119.058 59.3842 118.644 59.504 118.254 59.6486C118.19 59.6686 118.136 59.6934 118.08 59.7184C117.386 59.8382 116.698 60.0178 116.046 60.2622C114.184 60.9406 112.504 62.0828 111.262 63.5742C110.898 64.0132 110.568 64.477 110.114 64.8262C109.666 65.1754 109.056 65.3998 108.498 65.2452C107.814 65.0556 107.406 64.3724 107.29 63.699C107.222 63.3298 107.232 62.9558 107.29 62.5866C107.71 61.539 108.558 60.6562 109.55 60.0376C110.772 59.2694 111.596 58.7806 113.002 58.4066C113.008 58.4066 113.008 58.4066 113.012 58.4066C113.846 58.2968 114.684 58.1522 115.526 58.1122C116.06 58.0874 116.608 58.1022 117.132 58.197L116.838 58.242C116.952 58.227 117.062 58.217 117.172 58.207Z" fill="white"/>
<path fill-rule="evenodd" clip-rule="evenodd" d="M117.482 66.7212C118.644 66.367 120.006 65.968 121.168 65.564C121.298 65.534 121.408 65.4942 121.512 65.4492C121.452 65.988 121.538 66.5666 121.568 67.0952C121.478 67.5842 121.304 68.033 121.048 68.3424C120.366 69.2002 119.138 69.4348 118.022 69.5944C117.956 69.6044 117.886 69.6142 117.822 69.6192C117.742 69.3948 117.652 69.1754 117.562 68.9558C117.532 68.3124 117.482 67.5142 117.482 66.7212Z" fill="white"/>
<path fill-rule="evenodd" clip-rule="evenodd" d="M112.858 116.058V105.184H111.846V102.866H116.464C117.686 105.578 118.77 108.672 119.706 112.144H119.912C119.806 109.864 119.746 108.556 119.746 108.222V105.184H118.81V102.866H123.03V105.184H122.156V118.508H119.184L117.946 115.4C117.402 114.048 116.918 112.772 116.484 111.574C116.06 110.372 115.652 109.106 115.258 107.774H115.044C115.188 109.564 115.258 111.32 115.258 113.026V116.058H116.13V118.378H111.846V116.058H112.858Z" fill="white"/>
<path fill-rule="evenodd" clip-rule="evenodd" d="M101.396 139.378L101.45 141.578C101.456 141.798 101.44 141.962 101.4 142.078C101.336 142.256 101.206 142.346 101.022 142.352C100.832 142.356 100.696 142.266 100.612 142.092C100.562 141.978 100.532 141.812 100.528 141.598L100.468 139.404C100.462 139.194 100.488 139.03 100.538 138.914C100.608 138.754 100.732 138.676 100.916 138.67C101.11 138.666 101.24 138.74 101.316 138.894C101.36 139 101.39 139.158 101.396 139.378Z" fill="white"/>
<path fill-rule="evenodd" clip-rule="evenodd" d="M133.428 127.498C133.124 127.552 132.81 127.608 132.5 127.662C128.54 128.346 123.586 128.212 119.202 128.012C119.196 128.012 119.196 128.012 119.192 128.012C114.15 132.522 107.4 135.29 99.998 135.29C92.59 135.29 85.846 132.522 80.804 128.012H80.798C76.16 128.222 71.332 128.326 67.506 127.662C67.192 127.608 66.876 127.552 66.562 127.498C73.63 138.756 86.34 145.71 99.998 145.71C113.676 145.71 126.36 138.766 133.434 127.498C133.428 127.498 133.428 127.498 133.428 127.498ZM73.93 132.556L77.76 128.68L78.704 129.548L74.872 133.424L73.93 132.556ZM78.43 136.288L77.382 135.494L78.504 132.532L78.484 132.536L76.664 134.95L75.69 134.218L79.122 130.008L80.176 130.806L79.052 133.754L80.888 131.344L81.862 132.078L78.43 136.288ZM82.036 138.502L84.25 134.79L83.362 134.302L83.916 133.374L86.844 134.996L86.29 135.922L85.378 135.42L83.162 139.13L82.036 138.502ZM86.988 140.766L87.836 138.696L86.998 138.378L86.15 140.448L84.938 139.988L86.974 135.01L88.186 135.47L87.402 137.38L88.246 137.698L89.024 135.788L90.236 136.248L88.2 141.226L86.988 140.766ZM93.338 138.212L91.722 137.774L91.444 138.716L93.01 139.146L92.71 140.178L91.144 139.748L90.814 140.862L92.516 141.326L92.212 142.352L89.258 141.544L90.774 136.396L93.642 137.184L93.338 138.212ZM98.392 143.14L95.504 142.932L95.922 137.594L97.224 137.688L96.886 141.958L98.472 142.074L98.392 143.14ZM102.408 142.816C102.142 143.136 101.684 143.3 101.046 143.316C100.402 143.33 99.938 143.186 99.648 142.886C99.38 142.608 99.24 142.154 99.22 141.524L99.164 139.35C99.15 138.836 99.294 138.436 99.594 138.152C99.888 137.874 100.326 137.724 100.896 137.708C101.464 137.694 101.904 137.824 102.212 138.092C102.516 138.358 102.682 138.752 102.692 139.264L102.752 141.44C102.766 142.068 102.652 142.528 102.408 142.816ZM106.538 142.462C106.288 142.772 105.894 142.956 105.36 143.022C104.802 143.09 104.358 143.006 104.024 142.776C103.728 142.572 103.554 142.278 103.504 141.894L103.43 141.33L104.626 141.186L104.676 141.554C104.702 141.73 104.756 141.864 104.846 141.958C104.936 142.048 105.076 142.088 105.266 142.064C105.41 142.044 105.51 141.984 105.57 141.868C105.63 141.76 105.65 141.63 105.63 141.48C105.604 141.286 105.504 141.13 105.336 141.01C105.266 140.96 105.086 140.876 104.802 140.752C104.556 140.652 104.362 140.566 104.218 140.492C104.024 140.398 103.864 140.292 103.728 140.172C103.6 140.054 103.484 139.914 103.4 139.744C103.31 139.58 103.25 139.384 103.22 139.166C103.156 138.672 103.25 138.282 103.5 137.988C103.754 137.698 104.132 137.52 104.642 137.46C105.186 137.39 105.624 137.5 105.948 137.788C106.252 138.058 106.438 138.456 106.508 138.98L105.32 139.13C105.29 138.896 105.25 138.732 105.2 138.636C105.116 138.462 104.976 138.388 104.786 138.412C104.488 138.446 104.352 138.576 104.382 138.806C104.388 138.85 104.392 138.886 104.392 138.906C104.412 139.02 104.458 139.12 104.536 139.2C104.616 139.28 104.726 139.354 104.866 139.424C105.2 139.564 105.44 139.664 105.58 139.724C105.828 139.828 106.024 139.928 106.164 140.024C106.342 140.152 106.488 140.308 106.588 140.488C106.692 140.666 106.762 140.916 106.806 141.236C106.872 141.744 106.782 142.154 106.538 142.462ZM110.094 142.028L108.826 142.312L107.824 138.142L106.832 138.362L106.582 137.32L109.87 136.586L110.118 137.628L109.096 137.858L110.094 142.028ZM116.878 139.274C116.708 139.664 116.334 139.988 115.746 140.242C115.216 140.472 114.768 140.512 114.408 140.352C114.044 140.198 113.74 139.864 113.5 139.35L112.562 137.35C112.314 136.82 112.258 136.372 112.398 136.002C112.538 135.638 112.882 135.334 113.426 135.1C113.944 134.87 114.398 134.81 114.788 134.92C115.172 135.026 115.48 135.324 115.71 135.808L115.9 136.222L114.712 136.736L114.568 136.426C114.368 136.002 114.14 135.844 113.89 135.952C113.71 136.032 113.61 136.128 113.58 136.238C113.556 136.346 113.58 136.492 113.666 136.666L114.792 139.076C114.862 139.22 114.948 139.314 115.046 139.354C115.152 139.4 115.276 139.39 115.42 139.324C115.606 139.25 115.69 139.116 115.686 138.93C115.68 138.812 115.63 138.646 115.536 138.436L115.326 137.998L116.514 137.48L116.792 138.078C117.002 138.516 117.028 138.916 116.878 139.274ZM118.394 138.87L115.63 134.232L116.758 133.604L119.526 138.242L118.394 138.87ZM121.252 137.224L118.678 133.738L117.846 134.306L117.202 133.438L119.956 131.554L120.598 132.422L119.74 133.01L122.314 136.502L121.252 137.224ZM124.738 134.69L123.212 132.99L120.114 131.474L121.112 130.64L122.794 131.554L122.12 129.802L123.078 129L123.132 129.064L124.2 132.172L125.726 133.868L124.738 134.69Z" fill="white"/>
<path fill-rule="evenodd" clip-rule="evenodd" d="M136.072 109.948C136.078 109.584 136.102 109.22 136.168 108.88C135.968 107.3 135.484 106.002 134.716 104.97C133.674 103.568 132.306 102.866 130.616 102.866H125.048V105.184H126.192V116.058H125.048V118.378H130.616C132.462 118.378 133.868 117.664 134.83 116.238C135.608 115.086 136.072 113.65 136.218 111.928C136.218 111.928 136.222 111.924 136.218 111.918C136.102 111.3 136.052 110.616 136.072 109.948ZM131.992 114.068C131.838 114.852 131.604 115.386 131.298 115.65C130.99 115.92 130.566 116.058 130.016 116.058V105.184C130.52 105.184 130.924 105.304 131.23 105.538C131.528 105.774 131.768 106.278 131.948 107.056C132.126 107.828 132.216 109 132.216 110.556C132.216 112.108 132.142 113.28 131.992 114.068Z" fill="white"/>
<path fill-rule="evenodd" clip-rule="evenodd" d="M135.174 127.144C137.444 126.624 139.52 125.866 141.376 124.366C139.54 127.752 137.314 131.01 135.066 133.614C134.91 133.788 134.76 133.948 134.616 134.112C133.992 134.79 133.404 135.434 133.094 136.466C132.866 137.24 132.95 138.028 133.334 138.706C133.738 139.404 134.436 139.918 135.344 140.168C135.324 140.198 135.294 140.238 135.244 140.282C135.01 140.532 134.496 140.822 133.828 140.822C132.542 140.822 132.102 140.742 131.01 140.052C130.232 139.56 129.692 138.692 129.608 137.794C129.388 135.538 130.72 133.424 131.544 132.356L131.618 132.256L131.614 132.252C132.442 131.238 133.23 130.182 133.958 129.084C134.522 129.348 135.076 129.628 135.608 129.952C135.274 129.648 134.84 128.97 134.426 128.366C134.686 127.966 134.936 127.558 135.174 127.144Z" fill="white"/>
<path fill-rule="evenodd" clip-rule="evenodd" d="M155.526 103.28C155.5 103.29 155.47 103.306 155.44 103.316C155.152 103.446 154.742 103.63 154.204 103.774C153.252 104.04 151.346 104.098 150.268 102.642C149.34 101.386 149.38 100.204 149.426 98.9521L149.43 98.6861C149.466 97.4341 149.58 96.6021 149.704 95.6341C149.734 95.4101 149.77 95.1801 149.794 94.9361C150.098 92.5361 150.562 86.5761 148.418 83.1101C147.346 81.3781 146.592 80.4601 144.732 79.2541C137.438 74.5001 130.326 79.8221 127.986 81.5721C127.638 81.8321 127.402 82.0021 127.234 82.1021C125.198 83.2741 121.966 83.4481 120.294 81.7021C119.756 81.1381 119.396 80.4061 119.228 79.5481C118.908 80.0221 118.534 80.4561 118.14 80.8741C117.696 81.4981 117.218 82.0461 116.738 82.3501C116.608 82.4301 116.478 82.5101 116.35 82.5901C116.11 82.7701 115.86 82.9241 115.586 83.0441C115.502 83.0801 115.416 83.1101 115.332 83.1381C114.634 83.4781 113.9 83.7421 113.122 83.8421C111.172 84.1021 108.038 83.1201 107.166 80.9201C109.002 82.1621 112.014 82.5201 114.084 81.6881C116.154 80.8541 117.75 79.0781 118.46 77.0381C118.938 75.6661 119.078 74.1901 118.794 72.7741C118.474 71.1721 118.648 71.6561 118.214 71.3381C118.214 71.3421 117.098 71.7521 115.516 72.3301C115.756 74.0861 116 76.2261 115.76 76.4201C115.616 76.5401 111.092 78.4801 109.46 79.0581C107.8 77.9761 107.116 77.3381 107.116 77.3381C107.116 77.3381 107.39 76.2201 107.57 75.2181C106.408 75.6421 105.55 75.9561 105.316 76.0401C105.156 75.8521 104.532 74.8581 104.512 74.8381C104.402 74.7201 102.722 72.7081 102.692 72.7081C103.34 72.0301 103.948 71.4461 104.248 70.2501C104.666 70.9141 105.08 71.5821 105.49 72.2441C105.504 72.2641 105.52 72.2901 105.534 72.3101C105.724 72.5941 106.058 73.3921 106.254 73.6861C106.866 73.3521 107.526 73.0481 108.204 72.7681C108.848 71.1121 110.09 68.7383 110.148 68.2147C110.004 69.5515 109.82 70.8881 109.6 72.2161C111.016 71.6861 112.444 71.2221 113.7 70.7581C114.274 70.4341 114.788 70.2001 115.128 70.1801C115.392 70.0661 115.636 69.9505 115.86 69.8357C115.86 69.8259 115.856 69.8109 115.85 69.7959C115.846 69.7859 115.846 69.7759 115.84 69.7659C115.84 69.7609 115.84 69.7609 115.836 69.7559C115.836 69.7509 115.836 69.7411 115.83 69.7361C115.71 69.3669 115.266 67.9703 115.162 67.2469C115.038 66.4039 115.098 65.5011 115.566 64.7829C115.59 64.7379 115.626 64.7031 115.65 64.6681C115.696 64.5483 115.74 64.4685 115.786 64.4437C115.84 64.4087 115.9 64.3739 115.956 64.3339C116.034 64.2641 116.12 64.1943 116.214 64.1293C116.988 63.4909 117.816 62.5133 120.28 62.5431C120.504 62.5531 120.724 62.5631 120.954 62.5731C120.958 62.5631 120.964 62.5581 120.974 62.5531C118.798 60.6925 116.598 61.3959 114.2 62.8425C114 63.0369 113.816 63.2465 113.64 63.4659C112.958 64.3089 112.648 64.6681 112.368 65.6407C112.368 65.6507 112.368 65.6557 112.364 65.6607C112.348 65.7007 112.344 65.7305 112.334 65.7705C110.05 66.5885 106.802 67.7757 104.518 68.5987C104.518 68.5987 105.948 65.0473 105.958 64.6331C105.958 64.6331 105.046 63.7253 104.308 62.9721C103.68 62.2339 102.666 61.5905 101.46 61.1465C100.852 61.0069 101.46 61.1465 100.656 60.9919C100.656 60.9919 100.722 58.3531 101.12 57.4453C101.28 57.0811 101.12 57.4453 101.384 57.1461C101.824 56.6423 102.368 56.1683 102.946 55.7045C102.946 55.6995 102.952 55.6995 102.956 55.6945C103.1 55.5797 103.246 55.4651 103.394 55.3553C103.394 55.3203 103.376 55.3155 103.356 55.3253C104.028 54.7467 105.226 53.8839 105.59 53.5397C106.154 53.0109 107.536 52.2277 107.516 51.4745C107.496 50.8011 106.702 49.7287 106.114 49.3547C105.13 48.7311 103.086 48.3121 101.19 48.1175C99.0458 48.0477 95.3638 48.4269 93.8918 49.3547C93.3098 49.7287 92.5158 50.8011 92.4958 51.4745C92.4758 52.2277 93.8617 53.0109 94.4157 53.5397C94.7857 53.8839 95.9777 54.7467 96.6617 55.3253C96.6317 55.3155 96.6158 55.3203 96.6158 55.3553L97.0398 55.6795C97.0398 55.6845 97.0398 55.6845 97.0398 55.6845C97.0458 55.6845 97.0457 55.6895 97.0497 55.6945C97.0557 55.6995 97.0598 55.6995 97.0598 55.7045C97.6438 56.1683 98.1818 56.6423 98.6258 57.1461C98.8898 57.4453 98.8297 57.2159 98.9897 57.5801C99.3897 58.4929 99.3798 60.9419 99.3798 60.9419C98.9498 60.9221 98.4917 61.2063 97.8737 61.3461C95.9677 62.3187 94.3118 64.5235 94.1478 65.0621C94.1578 65.4761 95.2137 68.4939 95.2137 68.4939C94.0717 68.0849 92.7598 67.6111 91.4438 67.1323C90.1358 66.6583 88.8238 66.1795 87.6818 65.7705C87.6718 65.7405 87.6618 65.7157 87.6518 65.6857C87.6318 65.7205 87.5278 65.6109 87.6378 65.6407C87.3578 64.6681 87.0478 64.3089 86.3698 63.4659C86.1958 63.2465 86.0058 63.0369 85.8118 62.8425C83.4118 61.3959 81.2078 60.6925 79.0338 62.5531C79.0438 62.5581 79.0538 62.5631 79.0638 62.5731C79.2818 62.5631 79.5058 62.5531 79.7318 62.5431C82.1998 62.5133 83.0237 63.4909 83.7957 64.1293C83.8857 64.1943 83.9718 64.2641 84.0558 64.3339C84.1158 64.3739 84.1698 64.4087 84.2258 64.4437C84.2698 64.4685 84.3097 64.5483 84.3597 64.6681C84.3897 64.7031 84.4198 64.7379 84.4458 64.7829C84.9138 65.5011 84.9778 66.4039 84.8498 67.2469C84.7498 67.9153 84.4798 68.8133 84.3758 69.1525C84.3758 69.1923 84.2958 69.5665 84.2798 69.6213C85.7918 70.4101 88.0718 71.1921 90.3318 72.1061C90.1218 70.8141 89.9418 69.5165 89.8018 68.2147C89.8578 68.7285 91.0638 71.0281 91.7118 72.6841C92.4358 72.9981 93.1398 73.3321 93.7978 73.6861C94.2118 73.0781 94.7098 71.9601 95.0338 71.4661C95.2338 70.9341 95.4578 70.4141 95.7678 70.0761C96.2618 71.0181 96.5617 71.7921 97.5537 72.5141C97.3037 72.7541 94.6098 76.0701 94.4458 76.2701C93.7078 75.9921 92.9438 75.6821 92.1818 75.3681C92.3618 76.4141 92.6758 77.6761 92.6758 77.6761C92.6758 77.6761 91.9818 78.3161 90.3058 79.4021C88.6498 78.8201 84.0558 76.8841 83.9058 76.7601C83.6378 76.5401 83.9758 73.8561 84.2458 72.0261C83.4178 71.6921 82.5937 71.3681 81.7957 71.0721C81.4217 71.3781 81.4377 71.5121 81.2177 72.7741C80.9837 74.2001 81.0738 75.6661 81.5478 77.0381C82.2598 79.0781 83.8558 80.8541 85.9258 81.6881C87.9958 82.5201 91.0098 82.1621 92.8398 80.9201C91.9718 83.1201 88.8338 84.1021 86.8898 83.8421C86.1158 83.7421 85.3778 83.4781 84.6738 83.1381C84.5898 83.1101 84.5058 83.0801 84.4258 83.0441C84.1498 82.9241 83.8957 82.7701 83.6617 82.5901C83.5277 82.5101 83.4018 82.4301 83.2718 82.3501C82.7898 82.0461 82.3158 81.4981 81.8718 80.8741C81.4778 80.4501 81.0938 80.0121 80.7778 79.5381C80.6098 80.4001 80.2498 81.1381 79.7118 81.7021C78.0398 83.4481 74.8138 83.2741 72.7778 82.1021C72.6078 82.0021 72.3737 81.8321 72.0237 81.5721C69.6797 79.8221 62.5677 74.5001 55.2737 79.2541C53.4137 80.4601 52.6658 81.3781 51.5878 83.1101C49.4438 86.5761 49.9118 92.5361 50.2118 94.9361C50.2418 95.1801 50.2718 95.4101 50.3018 95.6341C50.4318 96.6021 50.5417 97.4341 50.5797 98.6861L50.5858 98.9521C50.6258 100.204 50.6698 101.386 49.7418 102.642C48.6658 104.098 46.7598 104.04 45.8078 103.774C45.2638 103.63 44.8598 103.446 44.5658 103.316C44.5358 103.306 44.5098 103.29 44.4798 103.28C44.4398 103.5 44.4258 103.82 44.5398 104.144C44.6898 104.548 45.6618 106.214 47.4538 106.354C48.9638 106.474 49.8478 106.258 51.0898 105.476C52.0318 104.878 52.8498 103.526 53.0358 102.258L53.0598 101.574L53.0497 101.446L53.0658 101.44C53.1598 99.3101 53.2598 97.6801 53.3638 96.4681C53.4498 95.4941 53.5478 94.4661 53.7378 93.4641V93.4601C53.5138 93.3941 53.3038 93.2841 53.0898 93.1901C52.7498 93.0461 52.3818 92.9661 52.0078 92.9601C52.5858 92.8461 53.1698 92.7661 53.7578 92.7021V92.6921C53.7838 91.8681 53.8637 91.0941 53.9677 90.4021C54.0717 89.7141 54.2017 89.1101 54.3217 88.6361C53.6037 88.2361 52.8997 87.6281 52.1277 87.3781C52.8457 87.4481 53.5638 87.5141 54.2818 87.5741C54.4058 87.5841 54.5258 87.5981 54.6558 87.6041C54.9858 86.8201 55.3698 86.1361 55.7938 85.5681C56.2218 85.0001 56.6958 84.5461 57.2158 84.2021C57.0598 83.9521 56.8758 83.7121 56.6718 83.4941C56.2018 83.0001 55.6437 82.5661 55.0197 82.2261C56.2377 82.4061 57.3698 82.8441 58.1478 83.6881C58.1478 83.6881 58.1478 83.6881 58.1518 83.6881C59.3458 83.1341 60.7657 82.8501 62.1277 82.8501H62.1638C62.5878 81.8521 62.8858 80.6801 62.7458 80.1121C63.0518 80.9101 63.2998 81.7181 63.4998 82.5361C63.5358 82.6761 63.5738 82.8241 63.5838 82.9701C63.9538 83.0301 64.3138 83.1201 64.6478 83.2341C66.1578 82.9541 67.7398 82.8701 69.3718 82.9701C69.4998 82.3761 69.5597 81.7681 69.5497 81.1581C69.7897 81.7581 69.9538 82.3801 70.0438 83.0141C70.6978 83.0741 71.3517 83.1581 72.0197 83.2781C72.3237 83.3341 72.6378 83.3881 72.9518 83.4481C76.0558 84.0421 78.4297 84.1161 80.0157 83.6921L80.3737 83.5921L79.8958 84.2261C77.7758 85.6621 75.0778 85.1541 72.6978 84.7001C72.3878 84.6401 72.0838 84.5861 71.7798 84.5301C68.3738 83.9281 65.1318 84.1461 62.3978 85.1601C59.2998 86.3061 56.8758 88.4861 55.7538 91.1401C55.0498 92.7961 54.8498 94.6561 54.6818 96.5721C54.5918 97.6341 54.5017 99.1061 54.4117 100.956C55.3397 98.9761 56.6158 97.4201 57.8938 96.2281C59.1698 95.0301 60.4477 94.2021 61.3857 93.6841C61.3797 93.6681 61.3698 93.6581 61.3658 93.6481C60.8518 92.7561 60.3418 91.8681 59.8338 90.9761C60.6218 91.5181 61.4098 92.0681 62.1178 92.7021C62.9918 91.7441 64.3738 90.9561 65.9438 90.5061C65.9138 89.4101 65.8598 87.9781 65.2318 87.3781C66.0698 88.0381 66.6118 89.0141 67.0618 90.2481H67.0658C67.2358 90.2181 67.4097 90.1921 67.5797 90.1721C68.9977 89.9921 70.6238 90.0721 72.1038 90.2421C72.9578 89.2141 72.7538 87.6741 72.4838 86.3521C72.9518 87.0541 73.4018 87.7921 73.5858 88.6161C73.7198 89.2141 73.6857 89.8681 73.4417 90.4221H73.4458C74.3038 90.5561 75.0717 90.7061 75.6657 90.8301C75.8957 90.8201 76.1598 90.8161 76.4298 90.8101L77.2078 90.7961C78.1698 90.7761 79.1478 90.7561 80.1158 90.6801C80.1298 90.5561 80.1298 90.4321 80.1258 90.3061C80.0458 88.9101 79.7118 87.5241 79.1378 86.2461C79.8918 86.9801 81.4918 88.9701 81.4918 90.2961C81.4918 90.3761 81.4817 90.4561 81.4717 90.5321C81.7957 90.4861 82.1157 90.4321 82.4297 90.3621C83.4577 90.0181 84.1017 89.0501 84.2097 88.6061L84.2357 88.4961C84.4657 87.6081 84.5497 87.2701 84.0457 86.4901C83.5377 85.7021 83.0877 84.9701 81.6917 84.2361C84.2797 84.5701 87.8218 84.9341 88.6698 86.7861L88.6958 86.8361L88.6758 86.8861C87.9518 88.6201 87.1838 90.0381 84.5058 91.0701C82.1858 91.9781 79.6658 92.0221 77.2318 92.0681L76.4597 92.0821C71.5057 92.1981 67.8697 92.5261 63.9337 93.8981C63.5997 94.0141 55.7337 96.8421 54.4417 105.38C53.9477 108.638 54.1918 112.912 55.0558 116.016C55.8138 118.74 56.4558 120.286 58.2718 122.266C60.8218 125.034 63.9337 125.752 67.7397 126.41C71.4357 127.044 76.1638 126.944 80.7298 126.74C82.2698 126.676 83.5418 126.66 84.7798 126.646C86.0058 126.63 87.2677 126.62 88.7997 126.55C89.9277 126.506 92.1457 126.8 93.3297 128.222C93.6777 128.646 93.9077 129.14 94.0117 129.692C94.1817 130.222 94.2118 130.78 94.0918 131.294C94.0578 131.428 94.0218 131.564 93.9778 131.694C93.9118 131.928 93.8478 132.148 93.8278 132.376C94.4758 132.396 95.1598 131.882 95.5578 131.408C97.3238 129.314 97.5098 126.256 95.9818 124.29C95.2598 123.348 94.2018 122.65 92.7598 122.14C92.2418 121.992 91.6818 121.866 91.0998 121.766C89.3378 121.792 86.7538 121.792 83.8658 121.772H70.2437L70.2397 121.726C67.8397 121.572 66.0298 120.73 64.7278 119.736C63.6038 120.42 62.5918 121.408 61.8798 122.456C62.1438 121.244 62.9858 120.086 63.8838 119.008L63.8798 119.004C62.8318 117.966 62.2578 116.908 62.0738 116.334C61.8138 115.522 61.6037 114.674 61.4597 113.796C60.2977 113.966 59.1358 114.164 57.9878 114.42C59.0558 113.786 60.1478 113.158 61.3058 112.708V112.704C61.1258 111.138 61.1158 109.486 61.2758 107.76V107.756C60.0878 107.376 58.8817 107.062 57.6537 106.822C58.7617 107.036 60.1978 106.344 61.4398 106.454C61.6598 105.312 62.1378 103.934 62.9918 102.668C62.4418 101.57 61.6198 100.532 60.7018 99.7501C61.7738 100.128 62.7418 100.942 63.6298 101.83C64.4018 100.926 65.4058 100.138 66.6678 99.6201C66.7118 98.4121 66.4837 97.1361 66.0537 96.0381C66.8417 96.8761 67.3057 98.0681 67.6657 99.2801C67.6697 99.2801 67.6698 99.2801 67.6698 99.2801C68.0798 99.1701 68.5178 99.0901 68.9818 99.0361C69.9138 98.9321 70.5678 98.9761 71.3958 99.0361C71.5798 99.0461 71.7698 99.0561 71.9698 99.0701C72.0198 99.0761 72.2098 99.0761 72.5138 99.0801C72.5438 98.9961 72.5678 98.9121 72.5878 98.8321C72.9418 97.4541 72.8978 95.8581 72.5378 94.4921C73.3418 95.5641 73.6458 97.0801 73.8698 98.5381C73.8958 98.7161 73.9198 98.9061 73.9358 99.0901C75.5658 99.1061 77.9398 99.1101 79.9458 99.1061C79.9758 98.9761 80.0058 98.8361 80.0358 98.6661C80.0358 98.6661 80.3158 95.6201 79.3618 94.2021C80.2298 95.3641 81.0938 96.6061 81.2018 98.0281C81.2318 98.3821 81.2178 98.7461 81.2518 99.1001C82.2598 99.0901 83.0678 99.0761 83.4818 99.0561C85.0638 98.9661 86.5057 98.7961 87.8477 98.5381C88.6257 96.5761 87.5177 94.0781 86.1017 92.6961C89.0337 94.3581 89.2678 96.0381 89.5338 98.1581C91.2738 97.7001 92.7858 97.0761 94.1118 96.2721C95.3538 94.7761 95.0437 93.3841 94.9157 92.7861C94.8997 92.7261 94.8898 92.6721 94.8798 92.6261C94.6798 91.6181 94.3458 91.1601 93.7878 90.3961C93.6938 90.2661 93.5938 90.1321 93.4878 89.9821C92.4518 88.5361 91.3938 87.7581 90.2558 87.6041L90.2818 87.3481C92.2518 87.4741 94.1278 88.3761 95.4198 89.8141C96.3058 90.7961 96.9058 92.0381 97.1298 93.3441C97.4098 92.7361 97.6338 92.0081 97.7638 91.2941C97.8838 90.6221 97.7738 89.5541 97.5138 88.9101C96.3758 86.0621 93.0298 84.0521 89.8978 84.3361L88.7838 84.4361L89.8477 84.0861C90.5097 83.8681 91.2097 83.7281 91.9117 83.6681C92.0377 83.2641 92.3018 82.9001 92.5658 82.5401C92.7798 82.1721 93.0138 81.7681 93.2598 81.3441C94.2718 79.6081 95.4578 77.5881 96.1418 76.5141C95.9418 77.2921 94.6757 82.8541 94.5457 83.6481L99.9738 83.6781C99.9038 84.0461 99.2538 87.5381 98.7758 88.6101C99.3098 90.1521 99.6978 93.6581 99.9538 96.0141C99.9738 96.1781 99.9838 96.3381 100.004 96.4881C100.018 96.3381 100.038 96.1781 100.058 96.0141C100.322 93.5801 100.722 89.8921 101.286 88.4461C101.286 88.4461 101.286 88.4461 101.286 88.4421L99.9878 83.6781L105.246 83.7021C105.116 82.9141 104.018 77.2921 103.818 76.5141C104.158 77.0541 104.622 77.8221 105.13 78.6801C105.64 79.5381 106.188 80.4761 106.698 81.3441C106.942 81.7681 107.176 82.1721 107.39 82.5401C107.66 82.9001 107.924 83.2641 108.044 83.6681H108.048C108.768 83.7221 109.48 83.8621 110.164 84.0861L111.222 84.4361L110.108 84.3361C106.976 84.0521 103.634 86.0621 102.498 88.9101C102.238 89.5541 102.128 90.6221 102.242 91.2941C102.372 92.0081 102.596 92.7361 102.876 93.3441C103.106 92.0381 103.704 90.7961 104.592 89.8141C105.884 88.3761 107.754 87.4741 109.73 87.3481C109.326 87.3881 107.556 88.5361 106.518 89.9821C106.418 90.1321 106.318 90.2661 106.224 90.3961C105.66 91.1601 105.326 91.6181 105.126 92.6261C105.116 92.6721 105.11 92.7261 105.096 92.7861C104.962 93.3841 104.656 94.7761 105.9 96.2721C107.162 97.0361 108.592 97.6401 110.224 98.0841C110.484 96.0641 110.798 94.4421 113.63 92.8361C112.264 94.1681 111.186 96.5421 111.81 98.4681C113.242 98.7661 114.808 98.9561 116.524 99.0561C116.902 99.0701 117.612 99.0861 118.494 99.0961C118.514 98.7861 118.504 98.4781 118.528 98.1681C118.638 96.7461 119.502 95.5041 120.37 94.3421C119.416 95.7641 119.696 98.8121 119.696 98.8121C119.716 98.9161 119.736 99.0161 119.756 99.1061C121.722 99.1101 124.096 99.1061 125.806 99.0961H125.812C125.826 98.9561 125.842 98.8161 125.866 98.6761C126.086 97.2201 126.396 95.7041 127.198 94.6321C126.834 95.9981 126.79 97.5941 127.144 98.9761C127.154 99.0121 127.164 99.0461 127.174 99.0861C127.668 99.0801 127.976 99.0761 128.036 99.0701C128.24 99.0561 128.43 99.0461 128.614 99.0361C129.438 98.9761 130.096 98.9321 131.03 99.0361C131.414 99.0801 131.772 99.1461 132.122 99.2261H132.126C132.48 98.0781 132.934 96.9701 133.678 96.1821C133.278 97.2001 133.054 98.3781 133.06 99.5101C134.422 100.008 135.494 100.816 136.316 101.76C137.144 100.956 138.042 100.238 139.03 99.8901C138.198 100.602 137.444 101.52 136.9 102.502C137.374 103.182 137.744 103.894 138.022 104.592C138.302 105.292 138.482 105.974 138.592 106.578C139.764 106.588 141.06 107.162 142.078 106.968C140.95 107.186 139.838 107.46 138.74 107.806C138.81 108.594 138.846 109.366 138.846 110.124C138.846 111.092 138.79 112.03 138.67 112.938C139.738 113.382 140.75 113.97 141.744 114.56C140.676 114.32 139.598 114.12 138.522 113.96C138.376 114.778 138.182 115.572 137.938 116.334C137.738 116.948 137.1 118.12 135.908 119.212C135.908 119.212 135.908 119.212 135.902 119.212C136.78 120.27 137.598 121.408 137.852 122.594C137.15 121.562 136.156 120.59 135.054 119.906C133.772 120.824 132.036 121.578 129.768 121.726L129.762 121.772H116.14C113.252 121.792 110.672 121.792 108.886 121.766C108.328 121.866 107.764 121.992 107.24 122.146C105.81 122.65 104.752 123.348 104.024 124.29C102.502 126.256 102.682 129.314 104.448 131.408C104.852 131.882 105.534 132.406 106.178 132.376C106.158 132.148 106.094 131.928 106.028 131.694C105.988 131.564 105.948 131.428 105.914 131.294C105.8 130.78 105.824 130.222 105.994 129.678C106.098 129.14 106.332 128.646 106.682 128.222C107.86 126.8 110.084 126.506 111.212 126.55C112.738 126.62 114 126.63 115.222 126.646C116.464 126.66 117.74 126.676 119.282 126.74C123.842 126.944 128.57 127.044 132.272 126.41C136.072 125.752 139.184 125.034 141.734 122.266C143.55 120.286 144.198 118.74 144.95 116.016C145.814 112.912 146.058 108.638 145.57 105.38C144.278 96.8421 136.406 94.0141 136.072 93.8981C132.136 92.5261 128.5 92.1981 123.552 92.0821L122.774 92.0681C120.344 92.0221 117.826 91.9781 115.496 91.0701C112.798 90.0281 111.776 88.6801 111.066 86.9841C111.97 85.1801 116.484 84.0821 118.214 84.3861C117.482 84.3361 116.398 85.4241 115.896 86.2161C115.392 86.9941 115.546 87.6081 115.77 88.4961L115.8 88.6061C115.91 89.0501 116.548 90.0181 117.592 90.3621C117.806 90.4061 118.02 90.4461 118.24 90.4921C118.24 90.4921 118.24 90.4921 118.244 90.4921C118.2 89.1641 119.83 87.1341 120.594 86.3861C120.02 87.6641 119.686 89.0501 119.612 90.4461C119.606 90.5161 119.606 90.5861 119.606 90.6561C120.664 90.7561 121.746 90.7761 122.798 90.7961L123.576 90.8101C123.846 90.8161 124.11 90.8201 124.374 90.8301C124.884 90.7201 125.528 90.5961 126.25 90.4721H126.256C126.046 89.9381 126.022 89.3241 126.146 88.7561C126.33 87.9321 126.784 87.1941 127.248 86.4901C126.988 87.7721 126.79 89.2601 127.552 90.2861C129.128 90.0881 130.894 89.9821 132.43 90.1721C132.53 90.1881 132.63 90.1981 132.73 90.2181H132.736C133.174 89.0641 133.702 88.1481 134.5 87.5241C134.206 87.8021 134.036 88.2661 133.942 88.7901C133.842 89.3141 133.812 89.9021 133.798 90.4361C135.448 90.8601 136.91 91.6641 137.842 92.6461C138.492 92.0981 139.194 91.6041 139.898 91.1201C139.434 91.9241 138.976 92.7321 138.512 93.5401C138.532 93.5801 138.552 93.6141 138.566 93.6481C140.436 94.6821 143.714 96.9601 145.6 100.956C145.51 99.1061 145.42 97.6341 145.33 96.5721C145.16 94.6561 144.956 92.7961 144.252 91.1401C143.136 88.4861 140.712 86.3061 137.608 85.1601C134.88 84.1461 131.632 83.9321 128.226 84.5301C127.926 84.5861 127.618 84.6401 127.312 84.7001C124.928 85.1541 122.23 85.6621 120.11 84.2261L120.086 84.2021L119.636 83.5921L119.996 83.6921C121.576 84.1161 123.95 84.0421 127.058 83.4481C127.368 83.3881 127.682 83.3341 127.992 83.2781C128.564 83.1781 129.138 83.0941 129.702 83.0401C129.798 82.4461 129.956 81.8621 130.182 81.2981V81.4281C130.182 81.9521 130.236 82.4761 130.34 82.9841C132.076 82.8541 133.758 82.9401 135.358 83.2341C135.614 83.1441 135.882 83.0741 136.156 83.0201C136.172 82.9041 136.196 82.7901 136.226 82.6761C136.432 81.8581 136.686 81.0481 136.984 80.2501C136.85 80.8001 137.12 81.8921 137.508 82.8601C137.508 82.8601 137.508 82.8601 137.514 82.8601C138.95 82.8001 140.476 83.0741 141.758 83.6481H141.764C142.536 82.9201 143.59 82.5261 144.712 82.3601C144.088 82.7101 143.53 83.1381 143.066 83.6381C142.92 83.7881 142.786 83.9481 142.662 84.1121C143.22 84.4561 143.728 84.9341 144.188 85.5381C144.646 86.1421 145.056 86.8701 145.4 87.7181H145.45C146.168 87.6541 146.886 87.5881 147.604 87.5181C146.932 87.7381 146.308 88.2321 145.684 88.6161C145.814 89.1041 145.944 89.7381 146.048 90.4621C146.154 91.1901 146.232 92.0081 146.252 92.8701C146.746 92.9301 147.236 93.0061 147.724 93.1001C147.35 93.1101 146.982 93.1861 146.642 93.3301C146.522 93.3841 146.402 93.4401 146.282 93.4941C146.282 93.5001 146.282 93.5001 146.282 93.5001C146.462 94.4721 146.558 95.5001 146.646 96.4681C146.746 97.6801 146.846 99.3001 146.942 101.426H146.956L146.946 101.55L146.982 102.274C147.16 103.526 147.974 104.878 148.916 105.476C150.158 106.258 151.042 106.474 152.558 106.354C154.344 106.214 155.322 104.548 155.466 104.144C155.586 103.82 155.566 103.5 155.526 103.28ZM96.2678 65.2967C96.5918 62.3387 103.196 62.1791 103.844 64.9325C104.038 65.7655 103.21 66.9825 102.084 69.1623C102.348 66.1445 101.146 65.5759 100.94 65.4463C100.052 65.1419 99.4597 64.9673 98.6317 65.6657C98.1717 66.0547 97.8137 67.1521 97.8777 69.1623C96.8357 67.1521 96.0678 66.0897 96.2678 65.2967ZM101.62 76.4441C101.494 76.1661 101.36 75.8761 101.106 75.6461C100.95 75.5121 100.746 75.4081 100.522 75.3521H100.392C100.208 76.4941 99.9977 77.6321 99.7477 78.7641C99.5397 77.8721 99.3938 76.9641 99.3098 76.0561C99.3098 76.0161 99.3038 75.7121 99.2838 75.3521C99.1658 75.3521 99.0457 75.3581 98.9297 75.3721C98.7657 75.4321 98.6118 75.5181 98.4918 75.6221C98.2378 75.8521 98.1018 76.1401 97.9778 76.4201C97.6278 77.1941 97.2797 77.9621 96.9297 78.7301C96.9257 78.4801 97.0198 78.0121 97.1338 77.5181C97.2998 76.7541 97.5238 75.9461 97.6778 75.3021C97.7938 74.7201 97.8538 74.3341 98.1378 73.6521C98.5058 73.9701 99.0098 74.0161 99.4798 74.0501C100.258 74.1061 101.07 74.1561 101.774 73.7921C102.028 74.6501 102.218 75.5321 102.332 76.4201C102.488 77.1941 102.596 77.9721 102.666 78.7541C102.318 77.9821 101.968 77.2141 101.62 76.4441Z" fill="white"/>
<path d="M99.9722 83.6759H99.9882L99.9782 83.6399C99.9782 83.6399 99.9782 83.6559 99.9722 83.6759Z" fill="white"/>
<path d="M96.6602 55.3242C96.7902 55.434 96.9002 55.5338 96.9802 55.6136C96.8802 55.5088 96.7302 55.3542 96.6602 55.3242Z" fill="white"/>
<path d="M103.06 55.5886C103.14 55.5088 103.24 55.424 103.36 55.3242C103.284 55.3542 103.15 55.4788 103.06 55.5886Z" fill="white"/>
<path fill-rule="evenodd" clip-rule="evenodd" d="M192.514 99.8878C192.514 106.192 191.88 112.508 190.592 118.698L178.382 116.174C178.796 114 179.21 111.704 179.45 109.494L181.924 109.79C181.738 111.34 181.504 113.032 181.21 114.562C182.842 114.858 187.002 115.606 188.572 115.884C189.33 111.774 189.814 107.27 189.94 103.1C188.224 103.04 173.762 102.532 172.492 102.486C172.302 108.852 171.174 115.182 169.354 121.266C169.622 121.352 189.676 127.526 190.808 127.876L191.57 125.202L172.336 119.896C173.698 114.962 174.552 109.888 174.88 104.772L187.326 105.57C187.206 107.71 186.856 110.772 186.558 112.922L184.088 112.552C184.184 111.84 184.318 110.812 184.408 110.084C184.502 109.36 184.632 108.342 184.672 107.61C183.02 107.46 178.816 107.08 177.22 106.936C176.916 110.482 176.272 114.404 175.434 117.87C177.106 118.268 191.182 121.61 192.418 121.906C194.17 114.712 195.012 107.26 195.012 99.8818H192.514V99.8878Z" fill="white"/>
<path fill-rule="evenodd" clip-rule="evenodd" d="M187.864 142.186C181.494 155.296 172.222 166.988 160.808 176.062L162.364 178.012C177.988 165.606 189.694 148.412 195.576 129.352L193.192 128.62C191.73 133.254 189.954 137.792 187.864 142.186Z" fill="white"/>
<path fill-rule="evenodd" clip-rule="evenodd" d="M181.016 144.556L170.102 138.526C171.168 136.54 172.212 134.54 173.11 132.47L175.388 133.488C174.756 134.948 174.028 136.43 173.294 137.836C174.766 138.6 178.516 140.546 179.934 141.284C181.858 137.598 183.69 133.388 185.026 129.466C183.404 128.904 169.738 124.144 168.536 123.73C166.466 129.746 163.522 135.458 159.97 140.73C160.206 140.89 177.528 152.726 178.506 153.39C179.046 152.636 179.52 151.838 180.028 151.066L163.228 140.296C165.992 135.982 168.316 131.392 170.142 126.608L181.794 131.054C181.05 133.064 179.798 135.882 178.88 137.856L176.626 136.77C176.946 136.126 177.354 135.174 177.658 134.51C177.992 133.756 178.356 132.998 178.646 132.226L176.342 131.278C175.194 130.804 172.88 129.85 171.728 129.378C170.34 132.778 168.646 136.116 166.784 139.288C168.26 140.162 180.716 147.528 181.808 148.178C185.584 141.808 188.642 134.968 190.808 127.886L188.422 127.152C186.572 133.188 184.074 139.028 181.016 144.556Z" fill="white"/>
<path fill-rule="evenodd" clip-rule="evenodd" d="M164.24 166.41L155.582 157.436C157.162 155.934 158.824 154.188 160.246 152.538L162.12 154.178C161.168 155.316 159.872 156.644 158.844 157.726C160.424 159.282 162.594 161.416 164.176 162.972C167.148 159.936 170.012 156.604 172.522 153.192C171.14 152.174 159.488 143.59 158.464 142.836C154.668 147.944 150.234 152.608 145.246 156.568C145.42 156.788 158.514 173.188 159.252 174.112C159.902 173.608 160.794 172.89 161.398 172.35L148.498 157.126C152.404 153.81 155.976 150.098 159.138 146.064L168.96 153.75C167.484 155.66 165.818 157.616 164.166 159.382L162.336 157.68C162.84 157.166 163.528 156.388 163.996 155.83L165.622 153.95C164.346 152.896 161.088 150.204 159.852 149.186C157.516 151.97 154.874 154.752 152.2 157.212C153.356 158.484 163.094 169.184 163.952 170.12C169.384 165.098 174.332 159.506 178.496 153.386L176.436 151.98C172.88 157.186 168.78 162.03 164.24 166.41Z" fill="white"/>
<path fill-rule="evenodd" clip-rule="evenodd" d="M148.782 184.268C127.788 196.538 102.064 200.348 78.386 194.886L77.832 197.32C107.018 204.12 139.056 196.876 162.366 178.006L160.81 176.056C157.034 179.114 152.988 181.832 148.782 184.268Z" fill="white"/>
<path fill-rule="evenodd" clip-rule="evenodd" d="M141.788 182.386L136.152 171.262C138.178 170.266 140.122 169.128 142.052 167.96L143.364 170.08C142.686 170.514 141.984 170.908 141.29 171.312C140.592 171.712 139.898 172.12 139.19 172.51C140.248 174.466 141.688 177.138 142.746 179.094C146.472 177.058 150.178 174.7 153.6 172.186C152.578 170.804 143.958 159.186 143.2 158.164C138.068 161.916 132.48 165.112 126.544 167.388C126.65 167.652 134.322 187.18 134.75 188.282C135.608 187.938 136.482 187.614 137.33 187.244L129.492 168.898C134.196 166.884 138.696 164.38 142.896 161.446L150.028 171.676C148.084 173.054 145.868 174.46 143.788 175.642L142.542 173.482C143.26 173.068 143.984 172.664 144.682 172.216C145.27 171.842 146.178 171.258 146.776 170.874C145.864 169.492 143.54 165.966 142.656 164.628C139.584 166.638 136.322 168.504 132.994 170.05C133.728 171.606 139.884 184.696 140.426 185.848C147.126 182.686 153.466 178.736 159.252 174.116L157.696 172.166C152.762 176.096 147.426 179.534 141.788 182.386Z" fill="white"/>
<path fill-rule="evenodd" clip-rule="evenodd" d="M125.626 165.062C112.648 170.2 98.0619 171.252 84.4639 168.136L85.0139 165.706C97.3099 168.524 110.448 167.806 122.354 163.622C123.158 163.372 123.936 163.048 124.714 162.738L125.626 165.062Z" fill="white"/>
<path fill-rule="evenodd" clip-rule="evenodd" d="M115.606 191.02L113.52 178.726C115.426 178.436 118.238 177.788 120.134 177.334L120.752 179.728C119.196 180.126 117.626 180.482 116.05 180.806C116.368 182.432 117.182 186.576 117.49 188.148C121.68 187.324 125.876 186.178 129.906 184.756C129.338 183.134 124.534 169.488 124.114 168.286C118.13 170.396 111.824 171.746 105.484 172.166C105.504 172.45 107.05 193.376 107.14 194.552C108.064 194.478 108.986 194.418 109.908 194.334L107.858 174.486C112.956 173.956 117.994 172.904 122.868 171.348L126.658 183.23C124.31 183.972 121.926 184.632 119.516 185.164L118.962 182.73C119.77 182.546 120.578 182.356 121.382 182.148L121.386 182.168L123.78 181.488C123.162 179.354 122.314 176.436 121.696 174.3C118.278 175.308 114.384 176.146 110.866 176.62C111.106 178.322 113.102 192.652 113.28 193.91C120.624 192.892 127.852 190.982 134.754 188.278L133.842 185.958C127.956 188.268 121.83 189.968 115.606 191.02Z" fill="white"/>
<path fill-rule="evenodd" clip-rule="evenodd" d="M88.0718 191.55L89.6718 179.184C91.9078 179.494 94.1578 179.668 96.4118 179.782L96.3018 182.272C95.4578 182.262 92.3719 181.982 91.4839 181.922L91.2299 184.402C91.0999 185.638 90.8439 188.128 90.7159 189.364C94.9299 189.764 99.3238 189.934 103.564 189.758C103.5 188.042 102.942 173.582 102.896 172.316C96.5318 172.55 90.1058 172.006 83.9158 170.564C83.8518 170.838 79.2018 191.3 78.9438 192.452C79.8518 192.646 80.7438 192.896 81.6618 193.04L85.5078 173.462C90.5298 174.45 95.6578 174.914 100.796 174.864L100.916 187.334C98.5358 187.36 95.9019 187.284 93.5279 187.09L93.7138 184.6C94.4458 184.656 95.4678 184.756 96.1918 184.766C96.6118 184.776 98.2318 184.816 98.6758 184.83L98.7159 182.336C98.7359 181.094 98.7758 178.59 98.7958 177.348C95.1198 177.304 91.3739 176.97 87.7519 176.4C87.4819 178.096 85.2038 192.382 85.0038 193.64C92.3218 194.782 99.7638 195.1 107.146 194.552L106.962 192.064C100.662 192.532 94.3358 192.362 88.0718 191.55Z" fill="white"/>
<path fill-rule="evenodd" clip-rule="evenodd" d="M75.722 194.268C38.574 185.046 8.99997 152.324 3.69397 114.398C2.28197 104.772 2.28197 95.0039 3.69397 85.3819L1.22397 85.0139C-7.07603 135.528 27.756 186.666 77.832 197.32L78.386 194.886C77.796 194.752 76.29 194.402 75.722 194.268Z" fill="white"/>
<path fill-rule="evenodd" clip-rule="evenodd" d="M61.5702 183.954L66.7682 172.616C68.8082 173.578 70.9122 174.39 73.0222 175.18L72.1802 177.524C71.4162 177.27 70.6782 176.95 69.9242 176.66C69.1762 176.366 68.4242 176.076 67.6862 175.762L66.7082 178.058C66.2182 179.2 65.2362 181.498 64.7482 182.646C68.6722 184.302 72.8022 185.728 76.9182 186.832C77.3582 185.17 81.0742 171.188 81.3982 169.956C75.2682 168.3 69.2962 165.902 63.8202 162.674C63.6802 162.918 53.1702 181.08 52.5762 182.102C53.3802 182.562 54.1782 183.036 54.9902 183.474L64.4722 165.916C68.9822 168.346 73.7362 170.306 78.6442 171.762L75.0882 183.714C72.7582 183.036 70.3582 182.202 68.0942 181.3L69.0062 178.98C69.7802 179.274 70.5442 179.608 71.3322 179.868C71.7262 180.002 73.2662 180.522 73.6862 180.666C74.2002 179.09 75.5122 175.074 76.0062 173.552C72.5182 172.41 69.0322 171.008 65.7502 169.372C64.9862 170.914 58.5722 183.884 58.0082 185.02C64.6582 188.302 71.7002 190.802 78.9282 192.448L79.4822 190.014C73.3262 188.626 67.3122 186.586 61.5702 183.954Z" fill="white"/>
<path fill-rule="evenodd" clip-rule="evenodd" d="M38.5098 168.868L46.8138 159.564C48.2718 160.872 50.4618 162.652 52.0418 163.86L50.5458 165.85C49.2878 164.852 47.9858 163.89 46.7798 162.832C45.3438 164.528 43.3778 166.848 41.9418 168.538C45.1838 171.306 48.7098 173.86 52.3218 176.13C53.2338 174.674 60.9218 162.418 61.5998 161.34C56.1918 157.994 51.2398 153.854 46.9198 149.19C46.7098 149.384 31.3318 163.66 30.4678 164.464L32.3838 166.474L46.6058 152.482C50.1958 156.138 54.1578 159.44 58.4278 162.274L51.4938 172.638C49.4638 171.242 47.4478 169.816 45.5318 168.264L47.0898 166.314C47.7418 166.822 48.3918 167.336 49.0498 167.844L49.0438 167.85C49.7018 168.338 50.3958 168.822 51.0638 169.302C52.0218 167.95 54.4618 164.498 55.3838 163.192C52.4318 161.126 49.4078 158.652 46.8138 156.162C45.6318 157.41 35.6858 167.92 34.8138 168.842C40.1698 173.956 46.1718 178.39 52.5818 182.106L53.8278 179.946C48.3618 176.788 43.2178 173.068 38.5098 168.868Z" fill="white"/>
<path fill-rule="evenodd" clip-rule="evenodd" d="M20.898 147.68L31.568 141.226C32.604 142.886 34.1621 145.3 35.3241 146.852L33.3081 148.318C32.3901 147.036 31.422 145.68 30.59 144.328C28.72 145.524 26.1601 147.166 24.2901 148.364C26.4601 151.8 29.308 155.61 31.986 158.668C33.288 157.546 44.232 148.084 45.194 147.25C40.994 142.468 37.538 137.036 34.714 131.344C34.46 131.468 15.56 140.586 14.498 141.096L15.7661 143.57L33.472 134.376C35.832 138.92 38.656 143.226 41.888 147.206L32.22 155.082C31.048 153.656 28.834 150.682 27.796 149.156L29.856 147.75C30.824 149.092 31.7421 150.484 32.7901 151.766C34.5501 150.408 36.954 148.548 38.71 147.19C36.516 144.392 34.326 141.066 32.58 137.958C31.084 138.806 18.488 145.924 17.382 146.552C20.988 153.018 25.442 159.038 30.47 164.454L32.296 162.758C27.996 158.144 24.16 153.092 20.898 147.68Z" fill="white"/>
<path fill-rule="evenodd" clip-rule="evenodd" d="M10.3279 122.214L22.4279 119.212C22.9619 121.366 23.6159 123.602 24.3439 125.696L21.9839 126.5C21.4799 125.062 20.9679 123.366 20.5619 121.886C18.4239 122.478 15.4899 123.288 13.3499 123.876C14.4719 127.97 15.9399 132.126 17.6539 136.002C19.2259 135.314 32.4739 129.498 33.6419 128.984C31.0679 123.168 29.3479 116.988 28.3539 110.708C28.0759 110.746 7.31986 113.85 6.15186 114.024C6.28786 114.942 6.46586 115.85 6.62186 116.762L26.2599 113.236C27.1619 118.274 28.5879 123.218 30.5039 127.96L18.9419 132.634C18.0099 130.38 17.1919 127.986 16.4479 125.672L18.8479 124.934C19.0919 125.726 19.3499 126.514 19.6159 127.298C19.8899 128.08 20.1239 128.878 20.4379 129.642L22.7719 128.768C23.9339 128.334 26.2799 127.458 27.4459 127.024C26.1699 123.596 25.1079 119.98 24.3279 116.398C22.6479 116.762 8.51187 119.83 7.26987 120.1C8.83987 127.342 11.2599 134.43 14.4819 141.1L16.7279 140.018C13.9979 134.326 11.8439 128.344 10.3279 122.214Z" fill="white"/>
<path fill-rule="evenodd" clip-rule="evenodd" d="M7.74397 94.7859L20.194 95.464C20.12 97.718 20.026 99.9779 20.124 102.232L17.63 102.302C17.58 100.692 17.56 99.086 17.63 97.474C15.974 97.424 11.75 97.3039 10.154 97.2599C10.014 101.394 10.204 106.008 10.682 110.104C12.388 109.91 26.764 108.284 28.03 108.144C27.308 101.818 27.468 95.37 28.356 89.07C28.076 89.03 7.31997 85.926 6.15397 85.752L5.79797 88.5099L25.612 90.88C25.004 95.962 24.914 101.13 25.342 106.238L12.916 107.28C12.702 105.186 12.622 102.028 12.582 99.8979H15.096C15.096 100.726 15.112 101.554 15.136 102.382C15.172 103.21 15.146 104.044 15.232 104.866C17.452 104.736 20.484 104.562 22.704 104.438C22.5 100.766 22.544 97.0159 22.858 93.3439C21.148 93.1999 6.72597 91.992 5.45997 91.888C4.81597 99.254 5.06597 106.712 6.15397 114.034L8.62196 113.666C7.69396 107.41 7.40597 101.086 7.74397 94.7859Z" fill="white"/>
<path fill-rule="evenodd" clip-rule="evenodd" d="M13.3299 67.789L25.0219 72.118C24.2799 74.198 23.5359 76.414 22.9619 78.558L20.5579 77.894C20.9719 76.388 21.4599 74.752 21.9799 73.28C20.4139 72.748 16.4119 71.386 14.8959 70.866C13.5299 74.822 12.3779 79.206 11.6339 83.318C13.3259 83.632 27.5459 86.284 28.7979 86.514C29.9199 80.26 32.0059 74.178 34.7039 68.4276C34.4499 68.3028 15.5499 59.1896 14.4879 58.6758L13.3359 61.2098L31.5519 69.3454C29.4619 74.02 27.8558 78.902 26.7738 83.906L14.5879 81.262C15.0259 79.162 15.8299 76.184 16.4479 74.104L18.8379 74.842C18.6379 75.536 18.3539 76.528 18.1539 77.232C17.9399 77.97 17.6799 78.882 17.5259 79.636L19.9499 80.23C21.1559 80.524 23.5859 81.118 24.7919 81.416C25.6499 77.86 26.8179 74.274 28.1939 70.876C26.6039 70.234 13.1859 64.8112 12.0079 64.3322C9.19986 71.19 7.23986 78.424 6.15186 85.746L8.62186 86.116C9.55386 79.87 11.1259 73.71 13.3299 67.789Z" fill="white"/>
<path fill-rule="evenodd" clip-rule="evenodd" d="M26.6738 43.6664L36.5698 51.2584C35.2078 53.0142 33.8818 54.9146 32.6898 56.7952L30.5898 55.4484C31.3918 54.1514 32.4098 52.705 33.3078 51.458C31.9658 50.4852 28.5498 48.0012 27.2578 47.0584C24.7578 50.5052 22.4238 54.2064 20.4578 57.9774C21.9798 58.7804 34.7738 65.5294 35.9018 66.123C38.8698 60.4964 42.5998 55.2588 46.9258 50.585C46.7158 50.3904 31.3378 36.1146 30.4738 35.3164C29.8258 35.9748 29.2278 36.6832 28.6198 37.3814L43.6338 50.5252C40.2558 54.381 37.2778 58.581 34.7538 63.0402L23.8998 56.9C25.0978 54.74 26.4338 52.665 27.8018 50.615L29.8618 52.0216C28.9378 53.3982 28.0358 54.79 27.1778 56.2066L29.3178 57.4886C30.3838 58.127 32.5298 59.419 33.5918 60.0574C35.4878 56.915 37.6578 53.8422 39.9618 50.989C38.6298 49.9016 27.4118 40.7684 26.4238 39.9654C21.7658 45.7166 17.7198 52.0016 14.5078 58.6758L16.7518 59.7582C19.4898 54.0716 22.8278 48.6746 26.6738 43.6664Z" fill="white"/>
<path fill-rule="evenodd" clip-rule="evenodd" d="M46.4961 24.5416L53.7301 34.7024C51.9081 35.9842 50.0741 37.4058 48.3881 38.8474L46.7761 36.947C47.2261 36.543 48.1581 35.7748 48.6421 35.4106L50.5421 33.9192L49.0461 31.924C48.2981 30.9314 46.7961 28.9312 46.0481 27.9384C42.6701 30.5024 39.3441 33.3954 36.3421 36.3784C37.5581 37.5904 47.8041 47.806 48.7061 48.704C53.2401 44.2446 58.2881 40.2442 63.8201 37.0966C63.6801 36.8522 53.1701 18.6906 52.5781 17.668C51.7801 18.1418 50.956 18.5708 50.188 19.0846L60.6821 36.0542C56.3281 38.7526 52.2481 41.9002 48.5261 45.4218L39.9521 36.3634C41.6841 34.7074 43.6481 32.9864 45.5301 31.51L47.0861 33.4604C46.5921 33.8344 45.628 34.6276 45.166 35.0416L45.1601 35.0366L43.2801 36.6626L44.9461 38.5182C45.7781 39.441 47.4501 41.3016 48.2781 42.2294C51.0121 39.7902 53.9881 37.4658 57.0261 35.4256C56.0681 33.999 48.0281 21.9728 47.3201 20.9152C41.1841 25.0604 35.4941 29.8788 30.4561 35.3108L32.2801 37.0068C36.5901 32.3878 41.3541 28.2028 46.4961 24.5416Z" fill="white"/>
<path fill-rule="evenodd" clip-rule="evenodd" d="M71.0859 12.087L74.9919 23.9288C72.8779 24.6072 70.7079 25.4551 68.6619 26.3029L67.6899 24.0236C68.4279 23.7092 69.176 23.4049 69.924 23.1105C70.672 22.8163 71.4259 22.527 72.1799 22.2478L71.3359 19.8984C70.9179 18.7262 70.0699 16.3718 69.6499 15.2046C65.6599 16.6412 61.6339 18.4318 57.8839 20.4172C58.6919 21.9336 65.4799 34.708 66.0779 35.8304C71.6899 32.8674 77.7059 30.558 83.9119 29.2062C83.8459 28.9318 79.1979 8.47056 78.9379 7.31836L76.2299 7.95175L81.2219 27.2708C76.2699 28.5578 71.4499 30.3534 66.8619 32.628L61.3359 21.4496C63.4699 20.3872 65.8739 19.3198 68.1039 18.4618L69.0159 20.7812C68.2439 21.0856 67.4759 21.3948 66.7119 21.724L66.7079 21.709C65.9599 22.0482 65.1799 22.3824 64.4419 22.7316C65.3759 24.7468 66.6519 27.5052 67.5859 29.5204C70.8979 27.984 74.444 26.6322 77.946 25.6048C77.456 23.9586 73.3319 10.0918 72.9679 8.86955C65.8599 10.9796 58.9999 13.9526 52.5859 17.6586L53.8319 19.8186C59.2899 16.666 65.0859 14.0672 71.0859 12.087Z" fill="white"/>
<path fill-rule="evenodd" clip-rule="evenodd" d="M105.302 30.0953L105.118 32.5843C78.0059 30.1751 50.7919 46.0173 39.1999 70.5979C20.2539 108.708 43.3639 156.824 85.0139 165.706L84.4659 168.136C41.2799 158.944 17.3019 109.028 36.9539 69.5163C48.2479 45.6681 73.6519 29.6265 100.054 29.8759C101.804 29.9507 103.56 29.9157 105.302 30.0953Z" fill="white"/>
<path fill-rule="evenodd" clip-rule="evenodd" d="M98.2582 7.47227L98.4982 19.9427C96.5782 19.9377 93.6802 20.1721 91.7442 20.3317L91.4902 17.8675C93.0902 17.7079 94.6962 17.5933 96.3022 17.5035L96.1942 15.0095C96.1382 13.7673 96.0242 11.2683 95.9682 10.0263C91.7082 10.2309 87.3902 10.7197 83.1942 11.5227C83.5142 13.2087 86.2122 27.4249 86.4522 28.6769C92.6962 27.4847 99.1422 27.1005 105.49 27.6093C105.51 27.3251 107.058 6.39987 107.146 5.22267C106.224 5.16287 105.302 5.05807 104.378 5.04307L103.486 24.9757C98.3582 24.7461 93.2062 25.0305 88.1522 25.8385L86.1862 13.5229C88.6222 13.1489 91.0762 12.8445 93.5342 12.6849L93.7182 15.1741C92.8902 15.2339 92.0682 15.3037 91.2402 15.3885V15.3685L88.7702 15.6829L89.1002 18.1569C89.2642 19.3889 89.5942 21.8681 89.7582 23.1001C93.2902 22.6113 97.2702 22.3719 100.828 22.4167C100.842 20.7009 100.982 6.23028 100.996 4.95828C93.6002 4.89848 86.1862 5.67667 78.9502 7.32267L79.5022 9.75688C85.6542 8.35028 91.9542 7.59207 98.2582 7.47227Z" fill="white"/>
<path fill-rule="evenodd" clip-rule="evenodd" d="M170.158 100.122C170.158 106.886 169.134 113.75 166.97 120.534C160.84 140.61 145.222 157.5 125.628 165.062L124.716 162.738C181.524 140.37 181.554 59.4238 124.716 37.0372C119.088 34.7776 113.034 33.3908 107.008 32.7224C106.604 32.6926 105.536 32.6127 105.118 32.5827L105.302 30.0938C142.414 32.4032 170.158 64.8259 170.158 100.122Z" fill="white"/>
<path fill-rule="evenodd" clip-rule="evenodd" d="M125.578 11.0249L122.142 23.0114C120.016 22.3828 117.746 21.8442 115.572 21.4152L116.05 18.966C116.878 19.1006 119.892 19.829 120.76 20.0234C121.174 18.4222 122.23 14.327 122.63 12.7808C118.534 11.7582 114.16 10.9302 109.97 10.4762C109.78 12.1822 108.204 26.5678 108.064 27.8298C114.38 28.5532 120.64 30.0296 126.536 32.394C126.64 32.1296 134.312 12.6011 134.74 11.4987C133.874 11.1695 133.026 10.7953 132.142 10.5061L125.398 29.2864C120.58 27.5604 115.586 26.3334 110.514 25.63L112.234 13.2796C114.6 13.5938 117.178 14.0725 119.508 14.6163L118.954 17.0506C118.24 16.881 117.238 16.6464 116.524 16.5218C115.836 16.397 114.774 16.2125 114.076 16.0827C113.712 18.2725 113.212 21.2703 112.848 23.4651C116.46 24.0587 120.136 24.9468 123.618 26.054C124.142 24.418 128.536 10.6307 128.92 9.41875C121.852 7.18895 114.514 5.76235 107.132 5.21875L106.948 7.70775C113.248 8.17655 119.502 9.28395 125.578 11.0249Z" fill="white"/>
<path fill-rule="evenodd" clip-rule="evenodd" d="M150.638 22.5075L143.804 32.9377C141.948 31.7057 139.944 30.5435 138.004 29.4609L139.18 27.2811C139.888 27.6653 140.592 28.0593 141.286 28.4633C141.984 28.8673 142.676 29.2765 143.36 29.6955C144.234 28.2887 146.452 24.6923 147.296 23.3307C143.68 21.0909 139.798 19.0707 135.894 17.3699C135.21 18.9461 129.438 32.2145 128.93 33.3817C134.75 35.9205 140.298 39.2077 145.236 43.2131C145.41 42.9937 158.504 26.5929 159.242 25.6751L157.058 23.9591L145.066 39.9061C140.976 36.8185 136.552 34.1747 131.922 31.9949L137.23 20.7119C139.43 21.7393 141.684 22.9215 143.78 24.1487L142.532 26.3085C141.814 25.8945 141.09 25.4855 140.362 25.0915L140.372 25.0765C139.644 24.7023 138.89 24.3033 138.158 23.9441C137.16 25.9295 135.794 28.6429 134.796 30.6281C138.068 32.2693 141.326 34.1947 144.314 36.2997C145.296 34.8881 153.57 23.0213 154.3 21.9789C148.228 17.7339 141.634 14.2223 134.74 11.5039L133.828 13.8233C139.718 16.1377 145.356 19.0509 150.638 22.5075Z" fill="white"/>
<path fill-rule="evenodd" clip-rule="evenodd" d="M171.198 40.8437L161.606 48.8147C160.32 47.2883 158.444 45.2033 157.062 43.8015L158.838 42.0507C159.252 42.4847 160.09 43.3627 160.504 43.7965C161.068 44.3703 161.586 44.9887 162.114 45.5923L163.99 43.9513C164.924 43.1331 166.808 41.4821 167.742 40.6641C165.028 37.5265 161.77 34.3143 158.604 31.6157C157.486 32.9175 148.058 43.8963 147.23 44.8641C152.094 48.9693 156.344 53.8277 159.96 59.0553C160.194 58.8955 177.518 47.0589 178.496 46.3953L176.884 44.1307L160.744 55.8629C157.736 51.7177 154.298 47.8719 150.512 44.4151L158.908 35.1921C160.504 36.6835 162.694 38.8185 164.15 40.4047L162.324 42.1007C161.896 41.6517 161.038 40.7489 160.608 40.2999C160.054 39.7013 159.412 39.1277 158.832 38.5591C157.296 40.1653 155.192 42.3551 153.656 43.9611C156.248 46.4153 158.898 49.3483 161.092 52.1815C162.444 51.1241 173.838 42.2053 174.84 41.4223C170.306 35.5663 165.024 30.2937 159.242 25.6699L157.686 27.6201C162.628 31.5557 167.162 35.9951 171.198 40.8437Z" fill="white"/>
<path fill-rule="evenodd" clip-rule="evenodd" d="M185.46 64.4315L173.942 69.2151C173.05 67.1449 172.138 65.0849 171.074 63.0947L173.29 61.9473C173.992 63.2691 174.786 64.9153 175.384 66.2969C176.896 65.6235 180.756 63.8977 182.218 63.2443C180.538 59.4433 178.378 55.3929 176.142 51.9013C174.692 52.8191 162.46 60.5457 161.382 61.2291C164.81 66.5913 167.428 72.4519 169.358 78.5079C169.628 78.4239 189.68 72.2479 190.812 71.8979C190.538 71.0099 190.23 70.1379 189.934 69.2599L171.05 75.6939C169.398 70.8519 167.248 66.1773 164.646 61.7677L175.38 55.4179C176.486 57.2535 177.918 59.9871 178.886 61.9273L176.632 63.0147C176.322 62.3613 175.834 61.4485 175.504 60.7951C175.174 60.1417 174.712 59.2289 174.332 58.6003C172.392 59.6827 169.738 61.1593 167.798 62.2417C169.598 65.4439 171.16 68.8459 172.476 72.2819C174.082 71.6699 187.6 66.5115 188.788 66.0625C186.158 59.1391 182.696 52.4949 178.512 46.3945L176.452 47.8011C180.018 53.0087 183.042 58.5953 185.46 64.4315Z" fill="white"/>
<path fill-rule="evenodd" clip-rule="evenodd" d="M198.888 85.014C185.998 2.29057 83.9981 -29.1695 26.8081 31.92C13.2021 46.5152 4.16812 65.2703 1.22412 85.0079L3.69412 85.378C14.9661 11.349 102.248 -22.9193 160.81 23.7243C176.042 35.8205 187.456 52.5856 193.192 71.166C198.908 89.766 198.908 110.014 193.192 128.614L195.576 129.348C198.5 119.816 199.956 109.844 200 99.888C199.95 94.92 199.612 89.946 198.888 85.014Z" fill="white"/>
<path fill-rule="evenodd" clip-rule="evenodd" d="M192.094 91.194L179.678 92.356C179.47 90.146 179.164 87.8361 178.756 85.6561L181.21 85.218C181.49 86.708 181.748 88.4741 181.924 89.9921C184.128 89.7261 187.146 89.368 189.35 89.104C188.846 84.868 188.034 80.578 186.916 76.468C185.256 76.912 171.284 80.674 170.056 81.002C171.722 87.138 172.486 93.522 172.556 99.892C172.84 99.892 193.82 99.892 195.002 99.892L194.938 97.12L174.994 97.692C174.85 92.566 174.182 87.462 173 82.484L185.13 79.6001C185.73 81.9961 186.148 84.43 186.552 86.858L184.068 87.228C183.808 85.592 183.544 83.95 183.2 82.33L180.762 82.844C179.544 83.098 177.094 83.612 175.878 83.87C176.616 87.458 177.14 91.188 177.364 94.854C179.08 94.744 193.516 93.8181 194.788 93.7381C194.324 86.3501 192.986 78.9881 190.802 71.9041L188.418 72.638C190.284 78.678 191.51 84.908 192.094 91.194Z" fill="white"/>
</g>
<defs>
<filter id="filter0_i_960_1459" x="0" y="0" width="200" height="207.825" filterUnits="userSpaceOnUse" color-interpolation-filters="sRGB">
<feFlood flood-opacity="0" result="BackgroundImageFix"/>
<feBlend mode="normal" in="SourceGraphic" in2="BackgroundImageFix" result="shape"/>
<feColorMatrix in="SourceAlpha" type="matrix" values="0 0 0 0 0 0 0 0 0 0 0 0 0 0 0 0 0 0 127 0" result="hardAlpha"/>
<feOffset dy="8"/>
<feGaussianBlur stdDeviation="4"/>
<feComposite in2="hardAlpha" operator="arithmetic" k2="-1" k3="1"/>
<feColorMatrix type="matrix" values="0 0 0 0 0 0 0 0 0 0 0 0 0 0 0 0 0 0 0.25 0"/>
<feBlend mode="normal" in2="shape" result="effect1_innerShadow_960_1459"/>
</filter>
</defs>
</svg>
